SplineFontDB: 3.0
FontName: Georgia-Bold-Italic
FullName: Georgia Bold Italic
FamilyName: Georgia
Weight: Bold
Copyright: Typeface and data copyright 1996 Microsoft Corporation. All Rights Reserved.
Version: 2.05
ItalicAngle: -13
UnderlinePosition: -121
UnderlineWidth: 120
Ascent: 1638
Descent: 410
sfntRevision: 0x00010000
LayerCount: 2
Layer: 0 1 "Back"  1
Layer: 1 1 "Fore"  0
XUID: [1021 588 1133928653 11351631]
FSType: 0
OS2Version: 1
OS2_WeightWidthSlopeOnly: 0
OS2_UseTypoMetrics: 1
CreationTime: 840471159
ModificationTime: 1359126039
PfmFamily: 17
TTFWeight: 700
TTFWidth: 5
LineGap: 0
VLineGap: 0
Panose: 2 4 8 2 5 4 5 9 2 3
OS2TypoAscent: -89
OS2TypoAOffset: 1
OS2TypoDescent: -34
OS2TypoDOffset: 1
OS2TypoLinegap: 198
OS2WinAscent: 5
OS2WinAOffset: 1
OS2WinDescent: 5
OS2WinDOffset: 1
HheadAscent: 5
HheadAOffset: 1
HheadDescent: -5
HheadDOffset: 1
OS2SubXSize: 1434
OS2SubYSize: 1331
OS2SubXOff: 35
OS2SubYOff: 155
OS2SupXSize: 1434
OS2SupYSize: 1331
OS2SupXOff: 125
OS2SupYOff: 542
OS2StrikeYSize: 120
OS2StrikeYPos: 618
OS2FamilyClass: 1027
OS2Vendor: 'MS  '
OS2CodePages: 2000009f.00000000
OS2UnicodeRanges: 00000287.00000000.00000000.00000000
MarkAttachClasses: 1
DEI: 91125
TtTable: prep
PUSHB_2
 232
 233
PUSHW_3
 500
 31
 -64
PUSHB_4
 233
 10
 11
 54
PUSHW_1
 -64
PUSHB_6
 233
 16
 18
 54
 231
 177
PUSHW_1
 500
NPUSHB
 72
 31
 64
 230
 11
 13
 54
 31
 224
 1
 64
 210
 42
 45
 54
 96
 243
 112
 243
 2
 16
 242
 32
 242
 2
 242
 241
 25
 31
 31
 241
 127
 241
 143
 241
 159
 241
 4
 31
 241
 47
 241
 176
 241
 3
 31
 220
 1
 15
 209
 112
 209
 2
 15
 208
 31
 208
 79
 208
 3
 15
 204
 112
 204
 2
 205
 207
 26
 31
 206
 207
 26
 31
PUSHW_1
 -64
PUSHB_4
 207
 19
 25
 54
PUSHW_1
 -64
NPUSHB
 81
 207
 14
 16
 54
 64
 207
 22
 22
 54
 169
 156
 39
 31
 154
 156
 39
 31
 155
 156
 39
 31
 156
 145
 39
 31
 146
 147
 33
 31
 31
 158
 47
 158
 2
 15
 163
 1
 255
 163
 1
 64
 188
 9
 15
 54
 79
 187
 95
 187
 111
 187
 112
 187
 4
 127
 186
 1
 16
 185
 1
 96
 185
 112
 185

StartChar: .notdef
Encoding: 65536 -1 0
Width: 2048
Flags: W
LayerCount: 2
Fore
SplineSet
256 0 m 1,0,-1
 256 1536 l 1,1,-1
 1792 1536 l 1,2,-1
 1792 0 l 1,3,-1
 256 0 l 1,0,-1
384 128 m 1,4,-1
 1664 128 l 1,5,-1
 1664 1408 l 1,6,-1
 384 1408 l 1,7,-1
 384 128 l 1,4,-1
EndSplineSet
EndChar

StartChar: exclam
Encoding: 33 33 4
Width: 771
Flags: W
LayerCount: 2
Fore
SplineSet
697 1106 m 0,0,1
 654 1015 654 1015 578 845 c 128,-1,2
 502 675 502 675 420 462 c 1,3,-1
 343 462 l 1,4,5
 355 717 355 717 354.5 874 c 128,-1,6
 354 1031 354 1031 354 1101 c 0,7,8
 354 1160 354 1160 356 1194 c 128,-1,9
 358 1228 358 1228 366 1264 c 0,10,11
 387 1355 387 1355 455 1401 c 128,-1,12
 523 1447 523 1447 601 1447 c 0,13,14
 669 1447 669 1447 713.5 1406 c 128,-1,15
 758 1365 758 1365 758 1304 c 0,16,17
 758 1272 758 1272 744.5 1225.5 c 128,-1,18
 731 1179 731 1179 697 1106 c 0,0,1
509 156 m 256,19,20
 509 80 509 80 451.5 25.5 c 128,-1,21
 394 -29 394 -29 317 -29 c 0,22,23
 239 -29 239 -29 181.5 25.5 c 128,-1,24
 124 80 124 80 124 156 c 256,25,26
 124 232 124 232 181.5 287.5 c 128,-1,27
 239 343 239 343 317 343 c 0,28,29
 394 343 394 343 451.5 287.5 c 128,-1,30
 509 232 509 232 509 156 c 256,19,20
EndSplineSet
EndChar

StartChar: quotedbl
Encoding: 34 34 5
Width: 1044
Flags: W
LayerCount: 2
Fore
SplineSet
588 1219 m 1,0,1
 548 1142 548 1142 496 1043 c 128,-1,2
 444 944 444 944 392 823 c 1,3,-1
 325 823 l 1,4,5
 325 1008 325 1008 320 1122 c 128,-1,6
 315 1236 315 1236 315 1314 c 0,7,8
 315 1403 315 1403 370.5 1466 c 128,-1,9
 426 1529 426 1529 514 1529 c 0,10,11
 580 1529 580 1529 618.5 1493.5 c 128,-1,12
 657 1458 657 1458 657 1407 c 0,13,14
 657 1377 657 1377 640 1333 c 128,-1,15
 623 1289 623 1289 588 1219 c 1,0,1
1061 1219 m 0,16,17
 1021 1142 1021 1142 969 1043 c 128,-1,18
 917 944 917 944 865 823 c 1,19,-1
 798 823 l 1,20,21
 798 1008 798 1008 793 1122 c 128,-1,22
 788 1236 788 1236 788 1314 c 0,23,24
 788 1403 788 1403 843.5 1466 c 128,-1,25
 899 1529 899 1529 987 1529 c 0,26,27
 1053 1529 1053 1529 1091.5 1493.5 c 128,-1,28
 1130 1458 1130 1458 1130 1407 c 0,29,30
 1130 1377 1130 1377 1113.5 1333 c 128,-1,31
 1097 1289 1097 1289 1061 1219 c 0,16,17
EndSplineSet
EndChar

StartChar: numbersign
Encoding: 35 35 6
Width: 1440
Flags: W
LayerCount: 2
Fore
SplineSet
1335 748 m 1,0,-1
 1066 748 l 1,1,-1
 966 491 l 1,2,-1
 1239 491 l 1,3,-1
 1239 331 l 1,4,-1
 904 331 l 1,5,-1
 774 0 l 1,6,-1
 625 0 l 1,7,-1
 755 331 l 1,8,-1
 525 331 l 1,9,-1
 395 0 l 1,10,-1
 246 0 l 1,11,-1
 376 331 l 1,12,-1
 169 331 l 1,13,-1
 169 491 l 1,14,-1
 438 491 l 1,15,-1
 539 748 l 1,16,-1
 265 748 l 1,17,-1
 265 908 l 1,18,-1
 601 908 l 1,19,-1
 735 1249 l 1,20,-1
 884 1249 l 1,21,-1
 750 908 l 1,22,-1
 980 908 l 1,23,-1
 1114 1249 l 1,24,-1
 1263 1249 l 1,25,-1
 1129 908 l 1,26,-1
 1335 908 l 1,27,-1
 1335 748 l 1,0,-1
920 750 m 1,28,-1
 687 750 l 1,29,-1
 586 489 l 1,30,-1
 818 489 l 1,31,-1
 920 750 l 1,28,-1
EndSplineSet
EndChar

StartChar: dollar
Encoding: 36 36 7
Width: 1312
Flags: W
LayerCount: 2
Fore
SplineSet
677 816 m 1,0,-1
 767 1223 l 1,1,2
 622 1211 622 1211 547 1150 c 128,-1,3
 472 1089 472 1089 472 999 c 0,4,5
 472 921 472 921 523 874.5 c 128,-1,6
 574 828 574 828 677 816 c 1,0,-1
936 312 m 0,7,8
 936 399 936 399 877 449.5 c 128,-1,9
 818 500 818 500 709 511 c 1,10,-1
 611 65 l 1,11,12
 770 80 770 80 853 144 c 128,-1,13
 936 208 936 208 936 312 c 0,7,8
512 65 m 1,14,-1
 612 521 l 1,15,16
 429 544 429 544 322 629.5 c 128,-1,17
 215 715 215 715 215 851 c 0,18,19
 215 927 215 927 246 999 c 128,-1,20
 277 1071 277 1071 351 1141 c 0,21,22
 418 1205 418 1205 530.5 1251 c 128,-1,23
 643 1297 643 1297 785 1306 c 1,24,-1
 834 1524 l 1,25,-1
 933 1524 l 1,26,-1
 884 1306 l 1,27,28
 1077 1297 1077 1297 1179.5 1224.5 c 128,-1,29
 1282 1152 1282 1152 1282 1030 c 0,30,31
 1282 961 1282 961 1240.5 913.5 c 128,-1,32
 1199 866 1199 866 1128 866 c 0,33,34
 1052 866 1052 866 1009 909.5 c 128,-1,35
 966 953 966 953 966 1020 c 0,36,37
 966 1069 966 1069 982 1114 c 128,-1,38
 998 1159 998 1159 1007 1187 c 1,39,40
 980 1201 980 1201 946 1210.5 c 128,-1,41
 912 1220 912 1220 866 1223 c 1,42,-1
 774 806 l 1,43,44
 976 775 976 775 1084 687.5 c 128,-1,45
 1192 600 1192 600 1192 458 c 0,46,47
 1192 347 1192 347 1142 261 c 128,-1,48
 1092 175 1092 175 1011 118 c 0,49,50
 926 57 926 57 817.5 23.5 c 128,-1,51
 709 -10 709 -10 593 -18 c 1,52,-1
 531 -299 l 1,53,-1
 432 -299 l 1,54,-1
 494 -18 l 1,55,56
 290 -13 290 -13 170 78.5 c 128,-1,57
 50 170 50 170 50 294 c 0,58,59
 50 366 50 366 91 414 c 128,-1,60
 132 462 132 462 210 462 c 0,61,62
 289 462 289 462 334.5 418 c 128,-1,63
 380 374 380 374 380 303 c 0,64,65
 380 253 380 253 363.5 203.5 c 128,-1,66
 347 154 347 154 336 125 c 1,67,68
 385 94 385 94 428 79.5 c 128,-1,69
 471 65 471 65 512 65 c 1,14,-1
EndSplineSet
EndChar

StartChar: percent
Encoding: 37 37 8
Width: 1801
Flags: W
LayerCount: 2
Fore
SplineSet
985 1145 m 0,0,1
 985 965 985 965 851 838.5 c 128,-1,2
 717 712 717 712 527 712 c 0,3,4
 378 712 378 712 283 799 c 128,-1,5
 188 886 188 886 188 1027 c 0,6,7
 188 1209 188 1209 323.5 1334.5 c 128,-1,8
 459 1460 459 1460 646 1460 c 0,9,10
 796 1460 796 1460 890.5 1373 c 128,-1,11
 985 1286 985 1286 985 1145 c 0,0,1
730 1219 m 0,12,13
 730 1301 730 1301 708 1345 c 128,-1,14
 686 1389 686 1389 633 1389 c 0,15,16
 549 1389 549 1389 496 1261.5 c 128,-1,17
 443 1134 443 1134 443 947 c 0,18,19
 443 869 443 869 466 826 c 128,-1,20
 489 783 489 783 542 783 c 0,21,22
 623 783 623 783 676.5 907.5 c 128,-1,23
 730 1032 730 1032 730 1219 c 0,12,13
1692 398 m 0,24,25
 1692 218 1692 218 1558 91.5 c 128,-1,26
 1424 -35 1424 -35 1234 -35 c 0,27,28
 1085 -35 1085 -35 990 52 c 128,-1,29
 895 139 895 139 895 280 c 0,30,31
 895 462 895 462 1030.5 587.5 c 128,-1,32
 1166 713 1166 713 1353 713 c 0,33,34
 1503 713 1503 713 1597.5 626 c 128,-1,35
 1692 539 1692 539 1692 398 c 0,24,25
1437 472 m 0,36,37
 1437 554 1437 554 1415 598 c 128,-1,38
 1393 642 1393 642 1340 642 c 0,39,40
 1256 642 1256 642 1203 514.5 c 128,-1,41
 1150 387 1150 387 1150 200 c 0,42,43
 1150 122 1150 122 1173 79 c 128,-1,44
 1196 36 1196 36 1249 36 c 0,45,46
 1330 36 1330 36 1383.5 160.5 c 128,-1,47
 1437 285 1437 285 1437 472 c 0,36,37
1745 1428 m 1,48,-1
 292 0 l 1,49,-1
 137 0 l 1,50,-1
 1587 1428 l 1,51,-1
 1745 1428 l 1,48,-1
EndSplineSet
EndChar

StartChar: ampersand
Encoding: 38 38 9
Width: 1637
Flags: W
LayerCount: 2
Fore
SplineSet
1528 0 m 1,0,-1
 942 0 l 1,1,2
 921 32 921 32 898 66.5 c 128,-1,3
 875 101 875 101 848 148 c 1,4,5
 709 41 709 41 606.5 3 c 128,-1,6
 504 -35 504 -35 386 -35 c 0,7,8
 218 -35 218 -35 116 49 c 128,-1,9
 14 133 14 133 14 272 c 0,10,11
 14 360 14 360 45 432 c 128,-1,12
 76 504 76 504 137 567 c 0,13,14
 194 626 194 626 284.5 676.5 c 128,-1,15
 375 727 375 727 479 768 c 1,16,17
 429 854 429 854 406 920.5 c 128,-1,18
 383 987 383 987 383 1047 c 0,19,20
 383 1224 383 1224 522.5 1340.5 c 128,-1,21
 662 1457 662 1457 859 1457 c 0,22,23
 1001 1457 1001 1457 1088.5 1396 c 128,-1,24
 1176 1335 1176 1335 1176 1226 c 0,25,26
 1176 1110 1176 1110 1091 1013.5 c 128,-1,27
 1006 917 1006 917 826 826 c 1,28,29
 899 695 899 695 955 606.5 c 128,-1,30
 1011 518 1011 518 1068 428 c 1,31,32
 1157 523 1157 523 1216.5 621.5 c 128,-1,33
 1276 720 1276 720 1276 754 c 0,34,35
 1276 779 1276 779 1233.5 796 c 128,-1,36
 1191 813 1191 813 1119 828 c 1,37,-1
 1135 899 l 1,38,-1
 1694 899 l 1,39,-1
 1678 828 l 1,40,41
 1582 819 1582 819 1537.5 804 c 128,-1,42
 1493 789 1493 789 1445 749 c 0,43,44
 1418 727 1418 727 1380.5 680.5 c 128,-1,45
 1343 634 1343 634 1309 591 c 256,46,47
 1275 548 1275 548 1217.5 478 c 128,-1,48
 1160 408 1160 408 1111 359 c 1,49,50
 1183 248 1183 248 1225.5 200 c 128,-1,51
 1268 152 1268 152 1301 131 c 0,52,53
 1339 108 1339 108 1410 93.5 c 128,-1,54
 1481 79 1481 79 1545 75 c 1,55,-1
 1528 0 l 1,0,-1
1015 1218 m 0,56,57
 1015 1284 1015 1284 978.5 1322.5 c 128,-1,58
 942 1361 942 1361 881 1361 c 0,59,60
 808 1361 808 1361 752 1310 c 128,-1,61
 696 1259 696 1259 696 1171 c 0,62,63
 696 1114 696 1114 719.5 1051.5 c 128,-1,64
 743 989 743 989 792 893 c 1,65,66
 902 957 902 957 958.5 1045.5 c 128,-1,67
 1015 1134 1015 1134 1015 1218 c 0,56,57
809 213 m 1,68,69
 742 322 742 322 653 467.5 c 128,-1,70
 564 613 564 613 512 703 c 1,71,72
 429 637 429 637 389 554.5 c 128,-1,73
 349 472 349 472 349 386 c 0,74,75
 349 278 349 278 416 209.5 c 128,-1,76
 483 141 483 141 595 141 c 0,77,78
 657 141 657 141 701.5 155.5 c 128,-1,79
 746 170 746 170 809 213 c 1,68,69
EndSplineSet
EndChar

StartChar: quotesingle
Encoding: 39 39 10
Width: 551
Flags: W
LayerCount: 2
Fore
SplineSet
578 1219 m 0,0,1
 538 1142 538 1142 486 1043 c 128,-1,2
 434 944 434 944 382 823 c 1,3,-1
 315 823 l 1,4,5
 315 1008 315 1008 310 1122 c 128,-1,6
 305 1236 305 1236 305 1314 c 0,7,8
 305 1403 305 1403 360.5 1466 c 128,-1,9
 416 1529 416 1529 504 1529 c 0,10,11
 570 1529 570 1529 608.5 1493.5 c 128,-1,12
 647 1458 647 1458 647 1407 c 0,13,14
 647 1377 647 1377 630.5 1333 c 128,-1,15
 614 1289 614 1289 578 1219 c 0,0,1
EndSplineSet
EndChar

StartChar: parenleft
Encoding: 40 40 11
Width: 915
Flags: W
LayerCount: 2
Fore
SplineSet
667 -328 m 1,0,1
 556 -313 556 -313 452 -266 c 128,-1,2
 348 -219 348 -219 267 -135 c 0,3,4
 187 -52 187 -52 139.5 67.5 c 128,-1,5
 92 187 92 187 92 346 c 0,6,7
 92 596 92 596 177.5 813 c 128,-1,8
 263 1030 263 1030 416 1190 c 1,9,10
 555 1337 555 1337 731.5 1424 c 128,-1,11
 908 1511 908 1511 1067 1532 c 1,12,-1
 1047 1442 l 1,13,14
 921 1420 921 1420 801.5 1310 c 128,-1,15
 682 1200 682 1200 593 1024 c 0,16,17
 509 857 509 857 462 650 c 128,-1,18
 415 443 415 443 415 235 c 0,19,20
 415 38 415 38 481 -87.5 c 128,-1,21
 547 -213 547 -213 687 -240 c 1,22,-1
 667 -328 l 1,0,1
EndSplineSet
EndChar

StartChar: parenright
Encoding: 41 41 12
Width: 915
Flags: W
LayerCount: 2
Fore
SplineSet
275 1532 m 1,0,1
 386 1517 386 1517 490 1470 c 128,-1,2
 594 1423 594 1423 675 1339 c 0,3,4
 755 1256 755 1256 802.5 1136.5 c 128,-1,5
 850 1017 850 1017 850 858 c 0,6,7
 850 608 850 608 764.5 391 c 128,-1,8
 679 174 679 174 526 14 c 0,9,10
 386 -132 386 -132 210 -219.5 c 128,-1,11
 34 -307 34 -307 -125 -328 c 1,12,-1
 -105 -238 l 1,13,14
 21 -216 21 -216 140.5 -106 c 128,-1,15
 260 4 260 4 349 180 c 0,16,17
 433 346 433 346 480 553.5 c 128,-1,18
 527 761 527 761 527 969 c 0,19,20
 527 1166 527 1166 461 1291.5 c 128,-1,21
 395 1417 395 1417 255 1444 c 1,22,-1
 275 1532 l 1,0,1
EndSplineSet
EndChar

StartChar: asterisk
Encoding: 42 42 13
Width: 987
Flags: W
LayerCount: 2
Fore
SplineSet
1037 1083 m 0,0,1
 1037 1038 1037 1038 1011.5 1017.5 c 128,-1,2
 986 997 986 997 947 997 c 0,3,4
 922 997 922 997 843.5 1019 c 128,-1,5
 765 1041 765 1041 677 1052 c 1,6,7
 735 976 735 976 805 909 c 128,-1,8
 875 842 875 842 875 795 c 0,9,10
 875 762 875 762 846 737.5 c 128,-1,11
 817 713 817 713 785 713 c 0,12,13
 763 713 763 713 744 725.5 c 128,-1,14
 725 738 725 738 711 761 c 0,15,16
 698 783 698 783 678 861 c 128,-1,17
 658 939 658 939 624 1021 c 1,18,19
 591 943 591 943 569.5 860 c 128,-1,20
 548 777 548 777 537 761 c 0,21,22
 521 736 521 736 504.5 724.5 c 128,-1,23
 488 713 488 713 463 713 c 0,24,25
 430 713 430 713 401.5 736.5 c 128,-1,26
 373 760 373 760 373 795 c 0,27,28
 373 842 373 842 443 909 c 128,-1,29
 513 976 513 976 571 1052 c 1,30,31
 487 1042 487 1042 406 1019.5 c 128,-1,32
 325 997 325 997 301 997 c 0,33,34
 262 997 262 997 236.5 1017.5 c 128,-1,35
 211 1038 211 1038 211 1083 c 0,36,37
 211 1124 211 1124 236.5 1146.5 c 128,-1,38
 262 1169 262 1169 301 1169 c 0,39,40
 332 1169 332 1169 400.5 1148.5 c 128,-1,41
 469 1128 469 1128 571 1116 c 1,42,43
 505 1200 505 1200 439 1263.5 c 128,-1,44
 373 1327 373 1327 373 1373 c 0,45,46
 373 1406 373 1406 402 1430.5 c 128,-1,47
 431 1455 431 1455 463 1455 c 0,48,49
 486 1455 486 1455 504.5 1443 c 128,-1,50
 523 1431 523 1431 537 1408 c 0,51,52
 550 1386 550 1386 570.5 1307 c 128,-1,53
 591 1228 591 1228 624 1147 c 1,54,55
 657 1229 657 1229 678 1308.5 c 128,-1,56
 699 1388 699 1388 711 1408 c 0,57,58
 723 1429 723 1429 742.5 1442 c 128,-1,59
 762 1455 762 1455 785 1455 c 0,60,61
 818 1455 818 1455 846.5 1431.5 c 128,-1,62
 875 1408 875 1408 875 1373 c 0,63,64
 875 1327 875 1327 812.5 1265.5 c 128,-1,65
 750 1204 750 1204 678 1116 c 1,66,67
 778 1129 778 1129 849.5 1149 c 128,-1,68
 921 1169 921 1169 947 1169 c 0,69,70
 986 1169 986 1169 1011.5 1146.5 c 128,-1,71
 1037 1124 1037 1124 1037 1083 c 0,0,1
EndSplineSet
EndChar

StartChar: plus
Encoding: 43 43 14
Width: 1440
Flags: W
LayerCount: 2
Fore
SplineSet
1275 493 m 1,0,-1
 802 493 l 1,1,-1
 802 20 l 1,2,-1
 637 20 l 1,3,-1
 637 493 l 1,4,-1
 164 493 l 1,5,-1
 164 656 l 1,6,-1
 637 656 l 1,7,-1
 637 1129 l 1,8,-1
 802 1129 l 1,9,-1
 802 656 l 1,10,-1
 1275 656 l 1,11,-1
 1275 493 l 1,0,-1
EndSplineSet
EndChar

StartChar: comma
Encoding: 44 44 15
Width: 672
Flags: W
LayerCount: 2
Fore
SplineSet
511 132 m 0,0,1
 511 -23 511 -23 384 -167.5 c 128,-1,2
 257 -312 257 -312 75 -389 c 1,3,-1
 43 -318 l 1,4,5
 104 -288 104 -288 147 -263 c 128,-1,6
 190 -238 190 -238 237 -192 c 0,7,8
 277 -154 277 -154 307.5 -107.5 c 128,-1,9
 338 -61 338 -61 354 0 c 1,10,-1
 295 0 l 2,11,12
 202 0 202 0 158 37 c 128,-1,13
 114 74 114 74 114 139 c 0,14,15
 114 217 114 217 176.5 278.5 c 128,-1,16
 239 340 239 340 321 340 c 0,17,18
 419 340 419 340 465 282 c 128,-1,19
 511 224 511 224 511 132 c 0,0,1
EndSplineSet
EndChar

StartChar: hyphen
Encoding: 45 45 16
AltUni2: 0000ad.ffffffff.0
Width: 776
Flags: W
LayerCount: 2
Fore
SplineSet
671 435 m 1,0,-1
 65 435 l 1,1,-1
 115 654 l 1,2,-1
 721 654 l 1,3,-1
 671 435 l 1,0,-1
EndSplineSet
EndChar

StartChar: period
Encoding: 46 46 17
Width: 672
Flags: W
LayerCount: 2
Fore
SplineSet
504 166 m 256,0,1
 504 87 504 87 445.5 29 c 128,-1,2
 387 -29 387 -29 307 -29 c 0,3,4
 226 -29 226 -29 167.5 28.5 c 128,-1,5
 109 86 109 86 109 166 c 256,6,7
 109 246 109 246 167.5 304.5 c 128,-1,8
 226 363 226 363 307 363 c 0,9,10
 387 363 387 363 445.5 304 c 128,-1,11
 504 245 504 245 504 166 c 256,0,1
EndSplineSet
EndChar

StartChar: slash
Encoding: 47 47 18
Width: 966
Flags: W
LayerCount: 2
Fore
SplineSet
1068 1523 m 1,0,-1
 34 -424 l 1,1,-1
 -149 -424 l 1,2,-1
 883 1523 l 1,3,-1
 1068 1523 l 1,0,-1
EndSplineSet
EndChar

StartChar: zero
Encoding: 48 48 19
Width: 1436
Flags: W
LayerCount: 2
Fore
SplineSet
1256 973 m 0,0,1
 1318 913 1318 913 1349 834.5 c 128,-1,2
 1380 756 1380 756 1380 666 c 0,3,4
 1380 516 1380 516 1318.5 385 c 128,-1,5
 1257 254 1257 254 1155 163 c 0,6,7
 1049 69 1049 69 913.5 17.5 c 128,-1,8
 778 -34 778 -34 620 -34 c 0,9,10
 491 -34 491 -34 393 1.5 c 128,-1,11
 295 37 295 37 231 96 c 256,12,13
 167 155 167 155 134 234 c 128,-1,14
 101 313 101 313 101 406 c 0,15,16
 101 545 101 545 152 668 c 128,-1,17
 203 791 203 791 304 892 c 0,18,19
 401 989 401 989 544 1049 c 128,-1,20
 687 1109 687 1109 861 1109 c 0,21,22
 996 1109 996 1109 1094.5 1071.5 c 128,-1,23
 1193 1034 1193 1034 1256 973 c 0,0,1
916 286 m 0,24,25
 966 393 966 393 992.5 518 c 128,-1,26
 1019 643 1019 643 1019 779 c 0,27,28
 1019 836 1019 836 1009.5 878 c 128,-1,29
 1000 920 1000 920 978 954 c 0,30,31
 957 987 957 987 924 1006.5 c 128,-1,32
 891 1026 891 1026 844 1026 c 0,33,34
 764 1026 764 1026 693 966.5 c 128,-1,35
 622 907 622 907 561 777 c 0,36,37
 512 672 512 672 487 547 c 128,-1,38
 462 422 462 422 462 300 c 0,39,40
 462 237 462 237 471 197 c 128,-1,41
 480 157 480 157 502 121 c 0,42,43
 522 88 522 88 556 68 c 128,-1,44
 590 48 590 48 638 48 c 0,45,46
 722 48 722 48 794 113 c 128,-1,47
 866 178 866 178 916 286 c 0,24,25
EndSplineSet
EndChar

StartChar: one
Encoding: 49 49 20
Width: 1003
Flags: W
LayerCount: 2
Fore
SplineSet
822 0 m 1,0,-1
 -3 0 l 1,1,-1
 13 72 l 1,2,3
 44 74 44 74 111 82 c 128,-1,4
 178 90 178 90 204 98 c 0,5,6
 233 107 233 107 257.5 132 c 128,-1,7
 282 157 282 157 291 198 c 2,8,-1
 440 840 l 1,9,-1
 187 840 l 1,10,-1
 208 931 l 1,11,-1
 236 931 l 2,12,13
 324 931 324 931 396 950 c 128,-1,14
 468 969 468 969 521 996 c 0,15,16
 575 1023 575 1023 615 1054.5 c 128,-1,17
 655 1086 655 1086 674 1107 c 1,18,-1
 850 1107 l 1,19,20
 829 1032 829 1032 808 953 c 128,-1,21
 787 874 787 874 770 799 c 2,22,-1
 637 227 l 2,23,24
 634 215 634 215 631.5 199 c 128,-1,25
 629 183 629 183 629 173 c 0,26,27
 629 149 629 149 639.5 133 c 128,-1,28
 650 117 650 117 669 106 c 0,29,30
 691 94 691 94 749 84 c 128,-1,31
 807 74 807 74 838 72 c 1,32,-1
 822 0 l 1,0,-1
EndSplineSet
EndChar

StartChar: two
Encoding: 50 50 21
Width: 1283
Flags: W
LayerCount: 2
Fore
SplineSet
347 1014 m 0,0,1
 412 1057 412 1057 510 1083 c 128,-1,2
 608 1109 608 1109 725 1109 c 0,3,4
 954 1109 954 1109 1088.5 1030.5 c 128,-1,5
 1223 952 1223 952 1223 797 c 0,6,7
 1223 701 1223 701 1180.5 635 c 128,-1,8
 1138 569 1138 569 1050 522 c 0,9,10
 973 481 973 481 858 448.5 c 128,-1,11
 743 416 743 416 590 384 c 0,12,13
 504 366 504 366 427.5 341 c 128,-1,14
 351 316 351 316 287 286 c 1,15,-1
 283 270 l 1,16,-1
 1130 270 l 1,17,-1
 1068 0 l 1,18,-1
 -16 0 l 1,19,-1
 29 200 l 1,20,21
 65 228 65 228 110 257 c 128,-1,22
 155 286 155 286 202 313 c 0,23,24
 267 351 267 351 334.5 382.5 c 128,-1,25
 402 414 402 414 453 437 c 0,26,27
 582 494 582 494 651.5 532 c 128,-1,28
 721 570 721 570 763 613 c 0,29,30
 812 663 812 663 829.5 716 c 128,-1,31
 847 769 847 769 847 829 c 0,32,33
 847 921 847 921 798 968 c 128,-1,34
 749 1015 749 1015 666 1015 c 0,35,36
 608 1015 608 1015 571.5 1004 c 128,-1,37
 535 993 535 993 505 981 c 1,38,39
 519 942 519 942 534 896 c 128,-1,40
 549 850 549 850 549 798 c 0,41,42
 549 727 549 727 500 680.5 c 128,-1,43
 451 634 451 634 372 634 c 0,44,45
 297 634 297 634 252.5 683 c 128,-1,46
 208 732 208 732 208 802 c 0,47,48
 208 857 208 857 243.5 913 c 128,-1,49
 279 969 279 969 347 1014 c 0,0,1
EndSplineSet
EndChar

StartChar: three
Encoding: 51 51 22
Width: 1279
Flags: W
LayerCount: 2
Fore
SplineSet
768 1109 m 0,0,1
 910 1109 910 1109 999.5 1079.5 c 128,-1,2
 1089 1050 1089 1050 1139 1007 c 256,3,4
 1189 964 1189 964 1208.5 912 c 128,-1,5
 1228 860 1228 860 1228 814 c 0,6,7
 1228 763 1228 763 1204.5 704 c 128,-1,8
 1181 645 1181 645 1130 593 c 256,9,10
 1079 541 1079 541 995.5 497 c 128,-1,11
 912 453 912 453 790 429 c 1,12,-1
 786 413 l 1,13,14
 851 411 851 411 912.5 393.5 c 128,-1,15
 974 376 974 376 1019 346 c 0,16,17
 1068 313 1068 313 1099 259 c 128,-1,18
 1130 205 1130 205 1130 128 c 0,19,20
 1130 18 1130 18 1072.5 -75 c 128,-1,21
 1015 -168 1015 -168 915 -233 c 0,22,23
 809 -302 809 -302 688.5 -335.5 c 128,-1,24
 568 -369 568 -369 412 -369 c 0,25,26
 209 -369 209 -369 84.5 -283 c 128,-1,27
 -40 -197 -40 -197 -40 -70 c 0,28,29
 -40 1 -40 1 5.5 50 c 128,-1,30
 51 99 51 99 127 99 c 0,31,32
 206 99 206 99 254.5 54 c 128,-1,33
 303 9 303 9 303 -62 c 0,34,35
 303 -113 303 -113 286.5 -163.5 c 128,-1,36
 270 -214 270 -214 258 -244 c 1,37,38
 281 -257 281 -257 313 -267 c 128,-1,39
 345 -277 345 -277 389 -277 c 0,40,41
 456 -277 456 -277 520.5 -249 c 128,-1,42
 585 -221 585 -221 634 -168 c 0,43,44
 688 -109 688 -109 718 -32.5 c 128,-1,45
 748 44 748 44 748 166 c 0,46,47
 748 244 748 244 706.5 296 c 128,-1,48
 665 348 665 348 548 348 c 2,49,-1
 421 348 l 1,50,-1
 449 465 l 1,51,-1
 539 465 l 2,52,53
 684 465 684 465 771 564.5 c 128,-1,54
 858 664 858 664 858 840 c 0,55,56
 858 920 858 920 816 967.5 c 128,-1,57
 774 1015 774 1015 683 1015 c 0,58,59
 639 1015 639 1015 590 1002 c 128,-1,60
 541 989 541 989 509 972 c 1,61,62
 520 938 520 938 535 887.5 c 128,-1,63
 550 837 550 837 550 794 c 0,64,65
 550 723 550 723 503 678.5 c 128,-1,66
 456 634 456 634 377 634 c 0,67,68
 302 634 302 634 257.5 683 c 128,-1,69
 213 732 213 732 213 802 c 0,70,71
 213 918 213 918 373.5 1013.5 c 128,-1,72
 534 1109 534 1109 768 1109 c 0,0,1
EndSplineSet
EndChar

StartChar: four
Encoding: 52 52 23
Width: 1330
Flags: W
LayerCount: 2
Fore
SplineSet
1197 10 m 1,0,-1
 975 10 l 1,1,-1
 887 -369 l 1,2,-1
 558 -369 l 1,3,-1
 646 10 l 1,4,-1
 -22 10 l 1,5,-1
 22 204 l 1,6,-1
 940 1103 l 1,7,-1
 1227 1103 l 1,8,-1
 1022 217 l 1,9,-1
 1244 217 l 1,10,-1
 1197 10 l 1,0,-1
693 217 m 1,11,-1
 843 860 l 1,12,-1
 187 217 l 1,13,-1
 693 217 l 1,11,-1
EndSplineSet
EndChar

StartChar: five
Encoding: 53 53 24
Width: 1227
Flags: W
LayerCount: 2
Fore
SplineSet
431 -369 m 0,0,1
 233 -369 233 -369 97.5 -282 c 128,-1,2
 -38 -195 -38 -195 -38 -75 c 0,3,4
 -38 -4 -38 -4 7.5 45 c 128,-1,5
 53 94 53 94 129 94 c 0,6,7
 208 94 208 94 256.5 49.5 c 128,-1,8
 305 5 305 5 305 -66 c 0,9,10
 305 -116 305 -116 288 -172 c 128,-1,11
 271 -228 271 -228 260 -259 c 1,12,13
 277 -264 277 -264 317 -270.5 c 128,-1,14
 357 -277 357 -277 396 -277 c 0,15,16
 447 -277 447 -277 507 -244.5 c 128,-1,17
 567 -212 567 -212 616 -151 c 0,18,19
 669 -85 669 -85 701 -3 c 128,-1,20
 733 79 733 79 733 200 c 0,21,22
 733 313 733 313 676 379.5 c 128,-1,23
 619 446 619 446 515 446 c 0,24,25
 464 446 464 446 424.5 433 c 128,-1,26
 385 420 385 420 348 399 c 0,27,28
 310 377 310 377 283 356 c 128,-1,29
 256 335 256 335 226 304 c 1,30,-1
 152 331 l 1,31,-1
 408 1077 l 1,32,-1
 1253 1077 l 1,33,-1
 1190 802 l 1,34,-1
 426 802 l 1,35,-1
 317 465 l 1,36,37
 410 520 410 520 487 543.5 c 128,-1,38
 564 567 564 567 655 567 c 0,39,40
 736 567 736 567 811 550.5 c 128,-1,41
 886 534 886 534 956 488 c 0,42,43
 1024 443 1024 443 1065 373 c 128,-1,44
 1106 303 1106 303 1106 204 c 0,45,46
 1106 -37 1106 -37 907.5 -203 c 128,-1,47
 709 -369 709 -369 431 -369 c 0,0,1
EndSplineSet
EndChar

StartChar: six
Encoding: 54 54 25
Width: 1327
Flags: W
LayerCount: 2
Fore
SplineSet
595 -35 m 0,0,1
 371 -35 371 -35 237.5 92 c 128,-1,2
 104 219 104 219 104 429 c 0,3,4
 104 830 104 830 404 1116 c 128,-1,5
 704 1402 704 1402 1196 1458 c 1,6,-1
 1201 1359 l 1,7,-1
 1092 1341 l 1,8,9
 966 1308 966 1308 872.5 1249 c 128,-1,10
 779 1190 779 1190 714 1119 c 0,11,12
 650 1049 650 1049 606.5 963 c 128,-1,13
 563 877 563 877 529 782 c 1,14,15
 596 838 596 838 689 876 c 128,-1,16
 782 914 782 914 911 914 c 0,17,18
 1061 914 1061 914 1162.5 814 c 128,-1,19
 1264 714 1264 714 1264 554 c 0,20,21
 1264 315 1264 315 1070.5 140 c 128,-1,22
 877 -35 877 -35 595 -35 c 0,0,1
892 550 m 0,23,24
 892 655 892 655 844 716 c 128,-1,25
 796 777 796 777 722 777 c 0,26,27
 663 777 663 777 610.5 754.5 c 128,-1,28
 558 732 558 732 499 665 c 1,29,30
 492 634 492 634 474 545.5 c 128,-1,31
 456 457 456 457 456 328 c 0,32,33
 456 196 456 196 499.5 122 c 128,-1,34
 543 48 543 48 615 48 c 0,35,36
 727 48 727 48 809.5 194.5 c 128,-1,37
 892 341 892 341 892 550 c 0,23,24
EndSplineSet
EndChar

StartChar: seven
Encoding: 55 55 26
Width: 1160
Flags: W
LayerCount: 2
Fore
SplineSet
1259 948 m 1,0,-1
 237 -369 l 1,1,-1
 67 -369 l 1,2,-1
 1014 808 l 1,3,-1
 560 808 l 2,4,5
 479 808 479 808 425.5 806.5 c 128,-1,6
 372 805 372 805 330 787 c 0,7,8
 298 773 298 773 264 723.5 c 128,-1,9
 230 674 230 674 193 584 c 1,10,-1
 120 584 l 1,11,-1
 234 1077 l 1,12,-1
 1289 1077 l 1,13,-1
 1259 948 l 1,0,-1
EndSplineSet
EndChar

StartChar: eight
Encoding: 56 56 27
Width: 1385
Flags: W
LayerCount: 2
Fore
SplineSet
1363 1156 m 0,0,1
 1363 1024 1363 1024 1265 932 c 128,-1,2
 1167 840 1167 840 993 790 c 1,3,4
 1149 730 1149 730 1223.5 643.5 c 128,-1,5
 1298 557 1298 557 1298 452 c 0,6,7
 1298 245 1298 245 1101 104 c 128,-1,8
 904 -37 904 -37 596 -37 c 0,9,10
 364 -37 364 -37 226 54.5 c 128,-1,11
 88 146 88 146 88 295 c 0,12,13
 88 439 88 439 189 540.5 c 128,-1,14
 290 642 290 642 497 689 c 1,15,16
 375 748 375 748 321.5 835 c 128,-1,17
 268 922 268 922 268 1017 c 0,18,19
 268 1111 268 1111 317.5 1192.5 c 128,-1,20
 367 1274 367 1274 456 1335 c 0,21,22
 539 1392 539 1392 659.5 1426 c 128,-1,23
 780 1460 780 1460 904 1460 c 0,24,25
 1114 1460 1114 1460 1238.5 1373.5 c 128,-1,26
 1363 1287 1363 1287 1363 1156 c 0,0,1
1032 1174 m 0,27,28
 1032 1262 1032 1262 990 1319 c 128,-1,29
 948 1376 948 1376 868 1376 c 0,30,31
 764 1376 764 1376 690.5 1297.5 c 128,-1,32
 617 1219 617 1219 617 1111 c 0,33,34
 617 1058 617 1058 641 1020 c 128,-1,35
 665 982 665 982 706 952 c 0,36,37
 740 927 740 927 806.5 891.5 c 128,-1,38
 873 856 873 856 927 826 c 1,39,40
 970 893 970 893 1001 990 c 128,-1,41
 1032 1087 1032 1087 1032 1174 c 0,27,28
945 338 m 0,42,43
 945 396 945 396 915 436.5 c 128,-1,44
 885 477 885 477 834 510 c 0,45,46
 780 545 780 545 706 580 c 128,-1,47
 632 615 632 615 562 653 c 1,48,49
 514 605 514 605 469 504.5 c 128,-1,50
 424 404 424 404 424 292 c 0,51,52
 424 179 424 179 483 113.5 c 128,-1,53
 542 48 542 48 642 48 c 0,54,55
 778 48 778 48 861.5 133.5 c 128,-1,56
 945 219 945 219 945 338 c 0,42,43
EndSplineSet
EndChar

StartChar: nine
Encoding: 57 57 28
Width: 1327
Flags: W
LayerCount: 2
Fore
SplineSet
1274 641 m 0,0,1
 1274 240 1274 240 977 -35 c 128,-1,2
 680 -310 680 -310 179 -375 c 1,3,-1
 173 -276 l 1,4,-1
 283 -258 l 1,5,6
 411 -224 411 -224 504.5 -168 c 128,-1,7
 598 -112 598 -112 664 -40 c 0,8,9
 729 31 729 31 776.5 118.5 c 128,-1,10
 824 206 824 206 853 292 c 1,11,12
 755 218 755 218 665 189 c 128,-1,13
 575 160 575 160 469 160 c 0,14,15
 318 160 318 160 216 266.5 c 128,-1,16
 114 373 114 373 114 534 c 0,17,18
 114 769 114 769 307.5 939 c 128,-1,19
 501 1109 501 1109 781 1109 c 0,20,21
 1006 1109 1006 1109 1140 981 c 128,-1,22
 1274 853 1274 853 1274 641 c 0,0,1
923 746 m 0,23,24
 923 877 923 877 879.5 951 c 128,-1,25
 836 1025 836 1025 768 1025 c 0,26,27
 655 1025 655 1025 571 883 c 128,-1,28
 487 741 487 741 487 533 c 0,29,30
 487 425 487 425 532.5 360 c 128,-1,31
 578 295 578 295 652 295 c 0,32,33
 709 295 709 295 768 319.5 c 128,-1,34
 827 344 827 344 880 406 c 1,35,36
 887 438 887 438 905 522.5 c 128,-1,37
 923 607 923 607 923 746 c 0,23,24
EndSplineSet
EndChar

StartChar: colon
Encoding: 58 58 29
Width: 752
Flags: W
LayerCount: 2
Fore
SplineSet
674 799 m 256,0,1
 674 720 674 720 615.5 662 c 128,-1,2
 557 604 557 604 477 604 c 0,3,4
 396 604 396 604 337.5 661.5 c 128,-1,5
 279 719 279 719 279 799 c 256,6,7
 279 879 279 879 337.5 937.5 c 128,-1,8
 396 996 396 996 477 996 c 0,9,10
 557 996 557 996 615.5 937 c 128,-1,11
 674 878 674 878 674 799 c 256,0,1
534 166 m 256,12,13
 534 87 534 87 475.5 29 c 128,-1,14
 417 -29 417 -29 337 -29 c 0,15,16
 256 -29 256 -29 197.5 28.5 c 128,-1,17
 139 86 139 86 139 166 c 256,18,19
 139 246 139 246 197.5 304.5 c 128,-1,20
 256 363 256 363 337 363 c 0,21,22
 417 363 417 363 475.5 304 c 128,-1,23
 534 245 534 245 534 166 c 256,12,13
EndSplineSet
EndChar

StartChar: semicolon
Encoding: 59 59 30
AltUni2: 00037e.ffffffff.0
Width: 752
Flags: W
LayerCount: 2
Fore
SplineSet
541 132 m 0,0,1
 541 -23 541 -23 414 -167.5 c 128,-1,2
 287 -312 287 -312 105 -389 c 1,3,-1
 73 -318 l 1,4,5
 134 -288 134 -288 177 -263 c 128,-1,6
 220 -238 220 -238 267 -192 c 0,7,8
 307 -154 307 -154 337.5 -107.5 c 128,-1,9
 368 -61 368 -61 384 0 c 1,10,-1
 325 0 l 2,11,12
 232 0 232 0 188 37 c 128,-1,13
 144 74 144 74 144 139 c 0,14,15
 144 217 144 217 206.5 278.5 c 128,-1,16
 269 340 269 340 351 340 c 0,17,18
 449 340 449 340 495 282 c 128,-1,19
 541 224 541 224 541 132 c 0,0,1
674 799 m 256,20,21
 674 720 674 720 615.5 662 c 128,-1,22
 557 604 557 604 477 604 c 0,23,24
 396 604 396 604 337.5 661.5 c 128,-1,25
 279 719 279 719 279 799 c 256,26,27
 279 879 279 879 337.5 937.5 c 128,-1,28
 396 996 396 996 477 996 c 0,29,30
 557 996 557 996 615.5 937 c 128,-1,31
 674 878 674 878 674 799 c 256,20,21
EndSplineSet
EndChar

StartChar: less
Encoding: 60 60 31
Width: 1440
Flags: W
LayerCount: 2
Fore
SplineSet
1231 6 m 1,0,-1
 231 506 l 1,1,-1
 231 645 l 1,2,-1
 1231 1145 l 1,3,-1
 1231 957 l 1,4,-1
 445 575 l 1,5,-1
 1231 194 l 1,6,-1
 1231 6 l 1,0,-1
EndSplineSet
EndChar

StartChar: equal
Encoding: 61 61 32
Width: 1440
Flags: W
LayerCount: 2
Fore
SplineSet
1277 700 m 1,0,-1
 207 700 l 1,1,-1
 207 863 l 1,2,-1
 1277 863 l 1,3,-1
 1277 700 l 1,0,-1
1277 286 m 1,4,-1
 207 286 l 1,5,-1
 207 449 l 1,6,-1
 1277 449 l 1,7,-1
 1277 286 l 1,4,-1
EndSplineSet
EndChar

StartChar: greater
Encoding: 62 62 33
Width: 1440
Flags: W
LayerCount: 2
Fore
SplineSet
1253 506 m 1,0,-1
 253 6 l 1,1,-1
 253 194 l 1,2,-1
 1039 575 l 1,3,-1
 253 957 l 1,4,-1
 253 1145 l 1,5,-1
 1253 645 l 1,6,-1
 1253 506 l 1,0,-1
EndSplineSet
EndChar

StartChar: question
Encoding: 63 63 34
Width: 1123
Flags: W
LayerCount: 2
Fore
SplineSet
597 156 m 256,0,1
 597 80 597 80 539.5 25.5 c 128,-1,2
 482 -29 482 -29 405 -29 c 0,3,4
 327 -29 327 -29 269.5 25.5 c 128,-1,5
 212 80 212 80 212 156 c 256,6,7
 212 232 212 232 269.5 287.5 c 128,-1,8
 327 343 327 343 405 343 c 0,9,10
 482 343 482 343 539.5 287.5 c 128,-1,11
 597 232 597 232 597 156 c 256,0,1
720 1452 m 0,12,13
 905 1452 905 1452 1028.5 1354.5 c 128,-1,14
 1152 1257 1152 1257 1152 1094 c 0,15,16
 1152 870 1152 870 980 729 c 128,-1,17
 808 588 808 588 524 568 c 1,18,-1
 495 432 l 1,19,-1
 409 432 l 1,20,-1
 486 821 l 1,21,22
 661 834 661 834 768 919.5 c 128,-1,23
 875 1005 875 1005 875 1164 c 0,24,25
 875 1261 875 1261 823.5 1314 c 128,-1,26
 772 1367 772 1367 680 1367 c 0,27,28
 642 1367 642 1367 607 1356 c 128,-1,29
 572 1345 572 1345 538 1324 c 1,30,31
 548 1292 548 1292 558.5 1248 c 128,-1,32
 569 1204 569 1204 569 1166 c 0,33,34
 569 1095 569 1095 522.5 1053.5 c 128,-1,35
 476 1012 476 1012 397 1012 c 0,36,37
 325 1012 325 1012 281 1055 c 128,-1,38
 237 1098 237 1098 237 1164 c 0,39,40
 237 1284 237 1284 378.5 1368 c 128,-1,41
 520 1452 520 1452 720 1452 c 0,12,13
EndSplineSet
EndChar

StartChar: at
Encoding: 64 64 35
Width: 1980
Flags: W
LayerCount: 2
Fore
SplineSet
1678 1173 m 0,0,1
 1764 1081 1764 1081 1807 962.5 c 128,-1,2
 1850 844 1850 844 1850 717 c 0,3,4
 1850 465 1850 465 1707.5 290 c 128,-1,5
 1565 115 1565 115 1353 115 c 0,6,7
 1243 115 1243 115 1172 152.5 c 128,-1,8
 1101 190 1101 190 1081 248 c 1,9,-1
 1076 248 l 1,10,11
 1053 223 1053 223 1027.5 197.5 c 128,-1,12
 1002 172 1002 172 973 155 c 0,13,14
 941 137 941 137 913 128.5 c 128,-1,15
 885 120 885 120 838 120 c 0,16,17
 715 120 715 120 646.5 197.5 c 128,-1,18
 578 275 578 275 578 402 c 0,19,20
 578 498 578 498 618.5 599.5 c 128,-1,21
 659 701 659 701 729 785 c 0,22,23
 796 866 796 866 892.5 918.5 c 128,-1,24
 989 971 989 971 1092 971 c 0,25,26
 1161 971 1161 971 1196.5 946.5 c 128,-1,27
 1232 922 1232 922 1249 872 c 1,28,-1
 1251 872 l 1,29,-1
 1283 959 l 1,30,-1
 1540 959 l 1,31,-1
 1339 404 l 2,32,33
 1332 384 1332 384 1325 348 c 128,-1,34
 1318 312 1318 312 1318 293 c 0,35,36
 1318 252 1318 252 1336 228.5 c 128,-1,37
 1354 205 1354 205 1393 205 c 0,38,39
 1550 205 1550 205 1645 349.5 c 128,-1,40
 1740 494 1740 494 1740 728 c 0,41,42
 1740 845 1740 845 1701 944 c 128,-1,43
 1662 1043 1662 1043 1585 1117 c 256,44,45
 1508 1191 1508 1191 1392 1233.5 c 128,-1,46
 1276 1276 1276 1276 1127 1276 c 0,47,48
 984 1276 984 1276 850.5 1222.5 c 128,-1,49
 717 1169 717 1169 608 1065 c 0,50,51
 501 963 501 963 435.5 817 c 128,-1,52
 370 671 370 671 370 490 c 0,53,54
 370 313 370 313 422 178.5 c 128,-1,55
 474 44 474 44 565 -46 c 0,56,57
 657 -137 657 -137 781 -183 c 128,-1,58
 905 -229 905 -229 1055 -229 c 0,59,60
 1226 -229 1226 -229 1358 -184.5 c 128,-1,61
 1490 -140 1490 -140 1594 -59 c 1,62,-1
 1633 -121 l 1,63,64
 1519 -212 1519 -212 1376.5 -267.5 c 128,-1,65
 1234 -323 1234 -323 1048 -323 c 0,66,67
 891 -323 891 -323 732.5 -272 c 128,-1,68
 574 -221 574 -221 452 -123 c 0,69,70
 329 -24 329 -24 253.5 127 c 128,-1,71
 178 278 178 278 178 477 c 0,72,73
 178 652 178 652 246 813.5 c 128,-1,74
 314 975 314 975 439 1101 c 0,75,76
 562 1225 562 1225 742.5 1301 c 128,-1,77
 923 1377 923 1377 1136 1377 c 0,78,79
 1324 1377 1324 1377 1457.5 1321.5 c 128,-1,80
 1591 1266 1591 1266 1678 1173 c 0,0,1
1209 760 m 1,81,82
 1208 815 1208 815 1181.5 850 c 128,-1,83
 1155 885 1155 885 1103 885 c 0,84,85
 1053 885 1053 885 1006.5 840 c 128,-1,86
 960 795 960 795 923 722 c 0,87,88
 886 650 886 650 865 557.5 c 128,-1,89
 844 465 844 465 844 376 c 0,90,91
 844 308 844 308 863.5 272 c 128,-1,92
 883 236 883 236 926 236 c 0,93,94
 964 236 964 236 994 255.5 c 128,-1,95
 1024 275 1024 275 1056 319 c 1,96,-1
 1209 760 l 1,81,82
EndSplineSet
EndChar

StartChar: A
Encoding: 65 65 36
Width: 1553
Flags: W
LayerCount: 2
Fore
SplineSet
892 571 m 1,0,-1
 805 1088 l 1,1,-1
 481 571 l 1,2,-1
 892 571 l 1,0,-1
732 0 m 1,3,-1
 749 73 l 1,4,5
 852 81 852 81 909.5 98.5 c 128,-1,6
 967 116 967 116 967 137 c 0,7,8
 967 155 967 155 965 168 c 128,-1,9
 963 181 963 181 960 198 c 2,10,-1
 910 477 l 1,11,-1
 421 477 l 1,12,13
 397 440 397 440 360.5 379.5 c 128,-1,14
 324 319 324 319 299 276 c 0,15,16
 261 208 261 208 254.5 183 c 128,-1,17
 248 158 248 158 248 151 c 0,18,19
 248 121 248 121 295 101.5 c 128,-1,20
 342 82 342 82 439 73 c 1,21,-1
 422 0 l 1,22,-1
 -174 0 l 1,23,-1
 -157 73 l 1,24,25
 -128 75 -128 75 -84 83 c 128,-1,26
 -40 91 -40 91 -10 107 c 0,27,28
 32 129 32 129 69 164 c 128,-1,29
 106 199 106 199 138 249 c 0,30,31
 341 561 341 561 511 825.5 c 128,-1,32
 681 1090 681 1090 905 1439 c 1,33,-1
 1103 1439 l 1,34,35
 1180 991 1180 991 1230.5 698 c 128,-1,36
 1281 405 1281 405 1319 208 c 0,37,38
 1324 178 1324 178 1338.5 153.5 c 128,-1,39
 1353 129 1353 129 1385 107 c 0,40,41
 1409 91 1409 91 1443.5 83 c 128,-1,42
 1478 75 1478 75 1508 73 c 1,43,-1
 1491 0 l 1,44,-1
 732 0 l 1,3,-1
EndSplineSet
EndChar

StartChar: B
Encoding: 66 66 37
Width: 1555
Flags: W
LayerCount: 2
Fore
SplineSet
1131 1142 m 0,0,1
 1131 1241 1131 1241 1068.5 1287 c 128,-1,2
 1006 1333 1006 1333 904 1333 c 0,3,4
 884 1333 884 1333 857 1331.5 c 128,-1,5
 830 1330 830 1330 815 1329 c 1,6,-1
 691 795 l 1,7,-1
 758 795 l 2,8,9
 930 795 930 795 1030.5 890.5 c 128,-1,10
 1131 986 1131 986 1131 1142 c 0,0,1
1053 469 m 0,11,12
 1053 584 1053 584 979 645.5 c 128,-1,13
 905 707 905 707 760 707 c 0,14,15
 740 707 740 707 710.5 705.5 c 128,-1,16
 681 704 681 704 670 703 c 1,17,-1
 548 175 l 1,18,19
 549 138 549 138 603 112 c 128,-1,20
 657 86 657 86 723 86 c 0,21,22
 856 86 856 86 954.5 193 c 128,-1,23
 1053 300 1053 300 1053 469 c 0,11,12
1026 1419 m 2,24,25
 1283 1419 1283 1419 1403.5 1355.5 c 128,-1,26
 1524 1292 1524 1292 1524 1161 c 0,27,28
 1524 1074 1524 1074 1485.5 1008 c 128,-1,29
 1447 942 1447 942 1384 897 c 0,30,31
 1321 851 1321 851 1238.5 820 c 128,-1,32
 1156 789 1156 789 1068 771 c 1,33,-1
 1064 752 l 1,34,35
 1133 745 1133 745 1204.5 722.5 c 128,-1,36
 1276 700 1276 700 1327 665 c 0,37,38
 1382 628 1382 628 1414 575 c 128,-1,39
 1446 522 1446 522 1446 446 c 0,40,41
 1446 227 1446 227 1262.5 113.5 c 128,-1,42
 1079 0 1079 0 721 0 c 2,43,-1
 -55 0 l 1,44,-1
 -38 73 l 1,45,46
 -13 74 -13 74 36.5 80.5 c 128,-1,47
 86 87 86 87 110 95 c 0,48,49
 149 108 149 108 169.5 134 c 128,-1,50
 190 160 190 160 198 195 c 2,51,-1
 427 1187 l 2,52,53
 432 1208 432 1208 434 1222 c 128,-1,54
 436 1236 436 1236 436 1243 c 0,55,56
 436 1285 436 1285 393.5 1308.5 c 128,-1,57
 351 1332 351 1332 255 1346 c 1,58,-1
 272 1419 l 1,59,-1
 1026 1419 l 2,24,25
EndSplineSet
EndChar

StartChar: C
Encoding: 67 67 38
Width: 1465
Flags: W
LayerCount: 2
Fore
SplineSet
721 -38 m 0,0,1
 584 -38 584 -38 467 2.5 c 128,-1,2
 350 43 350 43 265 119 c 0,3,4
 181 195 181 195 134 304.5 c 128,-1,5
 87 414 87 414 87 552 c 0,6,7
 87 735 87 735 154.5 897 c 128,-1,8
 222 1059 222 1059 345 1186 c 0,9,10
 463 1308 463 1308 633.5 1382.5 c 128,-1,11
 804 1457 804 1457 996 1457 c 0,12,13
 1112 1457 1112 1457 1231 1429 c 128,-1,14
 1350 1401 1350 1401 1409 1364 c 1,15,-1
 1484 1419 l 1,16,-1
 1571 1419 l 1,17,-1
 1460 901 l 1,18,-1
 1372 901 l 1,19,20
 1352 1128 1352 1128 1251.5 1246.5 c 128,-1,21
 1151 1365 1151 1365 993 1365 c 0,22,23
 877 1365 877 1365 779 1296 c 128,-1,24
 681 1227 681 1227 605 1084 c 0,25,26
 543 966 543 966 510.5 810.5 c 128,-1,27
 478 655 478 655 478 519 c 0,28,29
 478 319 478 319 575 208 c 128,-1,30
 672 97 672 97 835 97 c 0,31,32
 978 97 978 97 1100 177 c 128,-1,33
 1222 257 1222 257 1335 408 c 1,34,-1
 1412 356 l 1,35,36
 1363 280 1363 280 1295 206.5 c 128,-1,37
 1227 133 1227 133 1140 79 c 0,38,39
 1049 22 1049 22 952.5 -8 c 128,-1,40
 856 -38 856 -38 721 -38 c 0,0,1
EndSplineSet
EndChar

StartChar: D
Encoding: 68 68 39
Width: 1708
Flags: W
LayerCount: 2
Fore
SplineSet
1448 1304 m 0,0,1
 1559 1235 1559 1235 1622 1123.5 c 128,-1,2
 1685 1012 1685 1012 1685 860 c 0,3,4
 1685 670 1685 670 1610 509 c 128,-1,5
 1535 348 1535 348 1398 235 c 1,6,7
 1262 121 1262 121 1082 60.5 c 128,-1,8
 902 0 902 0 685 0 c 2,9,-1
 -55 0 l 1,10,-1
 -38 73 l 1,11,12
 -13 74 -13 74 36.5 79.5 c 128,-1,13
 86 85 86 85 110 93 c 0,14,15
 149 106 149 106 169.5 133 c 128,-1,16
 190 160 190 160 198 195 c 2,17,-1
 427 1187 l 2,18,19
 432 1208 432 1208 434 1222 c 128,-1,20
 436 1236 436 1236 436 1243 c 0,21,22
 436 1285 436 1285 393.5 1308.5 c 128,-1,23
 351 1332 351 1332 255 1346 c 1,24,-1
 272 1419 l 1,25,-1
 999 1419 l 2,26,27
 1111 1419 1111 1419 1229.5 1392.5 c 128,-1,28
 1348 1366 1348 1366 1448 1304 c 0,0,1
1152 349 m 0,29,30
 1223 470 1223 470 1257 612.5 c 128,-1,31
 1291 755 1291 755 1291 910 c 0,32,33
 1291 1104 1291 1104 1203 1218.5 c 128,-1,34
 1115 1333 1115 1333 938 1333 c 0,35,36
 903 1333 903 1333 868.5 1331.5 c 128,-1,37
 834 1330 834 1330 814 1329 c 1,38,-1
 569 264 l 2,39,40
 565 249 565 249 562 227.5 c 128,-1,41
 559 206 559 206 559 197 c 0,42,43
 559 134 559 134 605.5 110 c 128,-1,44
 652 86 652 86 736 86 c 0,45,46
 872 86 872 86 977.5 158 c 128,-1,47
 1083 230 1083 230 1152 349 c 0,29,30
EndSplineSet
EndChar

StartChar: E
Encoding: 69 69 40
Width: 1477
Flags: W
LayerCount: 2
Fore
SplineSet
1520 1419 m 1,0,-1
 1437 1057 l 1,1,-1
 1361 1057 l 1,2,3
 1347 1152 1347 1152 1293.5 1231.5 c 128,-1,4
 1240 1311 1240 1311 1181 1324 c 0,5,6
 1153 1331 1153 1331 1100 1332.5 c 128,-1,7
 1047 1334 1047 1334 1012 1334 c 2,8,-1
 816 1334 l 1,9,-1
 688 779 l 1,10,-1
 824 779 l 2,11,12
 899 779 899 779 941.5 795.5 c 128,-1,13
 984 812 984 812 1021 842 c 0,14,15
 1049 865 1049 865 1086.5 924.5 c 128,-1,16
 1124 984 1124 984 1140 1026 c 1,17,-1
 1216 1026 l 1,18,-1
 1079 434 l 1,19,-1
 1003 434 l 1,20,-1
 1003 471 l 2,21,22
 1003 516 1003 516 993.5 563.5 c 128,-1,23
 984 611 984 611 971 630 c 0,24,25
 945 668 945 668 902 680.5 c 128,-1,26
 859 693 859 693 804 693 c 2,27,-1
 668 693 l 1,28,-1
 577 298 l 2,29,30
 570 268 570 268 564 233 c 128,-1,31
 558 198 558 198 558 183 c 0,32,33
 558 119 558 119 600 102.5 c 128,-1,34
 642 86 642 86 755 86 c 0,35,36
 899 86 899 86 965 98.5 c 128,-1,37
 1031 111 1031 111 1064 137 c 1,38,39
 1124 187 1124 187 1208 290 c 128,-1,40
 1292 393 1292 393 1322 442 c 1,41,-1
 1395 442 l 1,42,-1
 1266 0 l 1,43,-1
 -55 0 l 1,44,-1
 -38 73 l 1,45,46
 -13 74 -13 74 36.5 79.5 c 128,-1,47
 86 85 86 85 110 93 c 0,48,49
 149 106 149 106 169.5 133 c 128,-1,50
 190 160 190 160 198 195 c 2,51,-1
 427 1187 l 2,52,53
 432 1208 432 1208 434 1222 c 128,-1,54
 436 1236 436 1236 436 1243 c 0,55,56
 436 1285 436 1285 393.5 1308.5 c 128,-1,57
 351 1332 351 1332 255 1346 c 1,58,-1
 272 1419 l 1,59,-1
 1520 1419 l 1,0,-1
EndSplineSet
EndChar

StartChar: F
Encoding: 70 70 41
Width: 1375
Flags: W
LayerCount: 2
Fore
SplineSet
1548 1419 m 1,0,-1
 1460 1040 l 1,1,-1
 1383 1040 l 1,2,3
 1372 1134 1372 1134 1318.5 1225 c 128,-1,4
 1265 1316 1265 1316 1206 1324 c 0,5,6
 1176 1328 1176 1328 1127.5 1331 c 128,-1,7
 1079 1334 1079 1334 1037 1334 c 2,8,-1
 816 1334 l 1,9,-1
 685 769 l 1,10,-1
 826 769 l 2,11,12
 881 769 881 769 929.5 783 c 128,-1,13
 978 797 978 797 1023 834 c 0,14,15
 1054 859 1054 859 1091 917 c 128,-1,16
 1128 975 1128 975 1143 1018 c 1,17,-1
 1219 1018 l 1,18,-1
 1081 421 l 1,19,-1
 1006 421 l 1,20,-1
 1006 452 l 2,21,22
 1006 504 1006 504 995.5 551.5 c 128,-1,23
 985 599 985 599 973 616 c 0,24,25
 949 651 949 651 909.5 667 c 128,-1,26
 870 683 870 683 807 683 c 2,27,-1
 666 683 l 1,28,-1
 560 226 l 2,29,30
 556 209 556 209 553.5 194 c 128,-1,31
 551 179 551 179 551 171 c 0,32,33
 551 126 551 126 588 105 c 128,-1,34
 625 84 625 84 729 73 c 1,35,-1
 712 0 l 1,36,-1
 -55 0 l 1,37,-1
 -38 73 l 1,38,39
 -13 74 -13 74 36.5 80.5 c 128,-1,40
 86 87 86 87 110 95 c 0,41,42
 149 108 149 108 169.5 134 c 128,-1,43
 190 160 190 160 198 195 c 2,44,-1
 427 1187 l 2,45,46
 432 1208 432 1208 434 1222 c 128,-1,47
 436 1236 436 1236 436 1243 c 0,48,49
 436 1285 436 1285 393.5 1308.5 c 128,-1,50
 351 1332 351 1332 255 1346 c 1,51,-1
 272 1419 l 1,52,-1
 1548 1419 l 1,0,-1
EndSplineSet
EndChar

StartChar: G
Encoding: 71 71 42
Width: 1653
Flags: W
LayerCount: 2
Fore
SplineSet
725 -39 m 0,0,1
 589 -39 589 -39 473 -0.5 c 128,-1,2
 357 38 357 38 271 113 c 0,3,4
 184 188 184 188 135.5 296 c 128,-1,5
 87 404 87 404 87 539 c 0,6,7
 87 739 87 739 157.5 906.5 c 128,-1,8
 228 1074 228 1074 354 1198 c 0,9,10
 478 1320 478 1320 650.5 1388.5 c 128,-1,11
 823 1457 823 1457 1023 1457 c 0,12,13
 1144 1457 1144 1457 1263.5 1427.5 c 128,-1,14
 1383 1398 1383 1398 1443 1364 c 1,15,-1
 1517 1419 l 1,16,-1
 1604 1419 l 1,17,-1
 1494 901 l 1,18,-1
 1406 901 l 1,19,20
 1384 1132 1384 1132 1282.5 1248.5 c 128,-1,21
 1181 1365 1181 1365 1020 1365 c 0,22,23
 892 1365 892 1365 792 1289 c 128,-1,24
 692 1213 692 1213 623 1092 c 0,25,26
 555 974 555 974 517.5 810.5 c 128,-1,27
 480 647 480 647 480 488 c 0,28,29
 480 290 480 290 557.5 173.5 c 128,-1,30
 635 57 635 57 786 57 c 0,31,32
 868 57 868 57 928 84 c 128,-1,33
 988 111 988 111 1034 150 c 1,34,-1
 1097 421 l 2,35,36
 1101 439 1101 439 1103.5 454.5 c 128,-1,37
 1106 470 1106 470 1106 479 c 0,38,39
 1106 521 1106 521 1054 544.5 c 128,-1,40
 1002 568 1002 568 906 582 c 1,41,-1
 923 655 l 1,42,-1
 1691 655 l 1,43,-1
 1674 582 l 1,44,45
 1643 580 1643 580 1602 572 c 128,-1,46
 1561 564 1561 564 1536 557 c 0,47,48
 1494 544 1494 544 1475 516.5 c 128,-1,49
 1456 489 1456 489 1448 456 c 2,50,-1
 1408 283 l 2,51,52
 1398 239 1398 239 1391.5 203.5 c 128,-1,53
 1385 168 1385 168 1378 127 c 1,54,55
 1263 61 1263 61 1073.5 11 c 128,-1,56
 884 -39 884 -39 725 -39 c 0,0,1
EndSplineSet
EndChar

StartChar: H
Encoding: 72 72 43
Width: 1870
Flags: W
LayerCount: 2
Fore
SplineSet
1994 1419 m 1,0,-1
 1977 1346 l 1,1,2
 1946 1344 1946 1344 1899 1336 c 128,-1,3
 1852 1328 1852 1328 1828 1321 c 0,4,5
 1787 1308 1787 1308 1767.5 1280.5 c 128,-1,6
 1748 1253 1748 1253 1740 1219 c 2,7,-1
 1511 226 l 2,8,9
 1507 209 1507 209 1504.5 194 c 128,-1,10
 1502 179 1502 179 1502 171 c 0,11,12
 1502 126 1502 126 1540.5 104.5 c 128,-1,13
 1579 83 1579 83 1684 73 c 1,14,-1
 1667 0 l 1,15,-1
 900 0 l 1,16,-1
 917 73 l 1,17,18
 943 75 943 75 991 79 c 128,-1,19
 1039 83 1039 83 1060 91 c 0,20,21
 1099 105 1099 105 1120 131 c 128,-1,22
 1141 157 1141 157 1149 193 c 2,23,-1
 1262 690 l 1,24,-1
 666 690 l 1,25,-1
 560 226 l 2,26,27
 556 209 556 209 553.5 194 c 128,-1,28
 551 179 551 179 551 171 c 0,29,30
 551 126 551 126 588 105 c 128,-1,31
 625 84 625 84 729 73 c 1,32,-1
 712 0 l 1,33,-1
 -55 0 l 1,34,-1
 -38 73 l 1,35,36
 -13 74 -13 74 36.5 79.5 c 128,-1,37
 86 85 86 85 110 93 c 0,38,39
 149 106 149 106 169.5 133 c 128,-1,40
 190 160 190 160 198 195 c 2,41,-1
 427 1187 l 2,42,43
 432 1208 432 1208 434 1222 c 128,-1,44
 436 1236 436 1236 436 1243 c 0,45,46
 436 1285 436 1285 393.5 1308.5 c 128,-1,47
 351 1332 351 1332 255 1346 c 1,48,-1
 272 1419 l 1,49,-1
 1039 1419 l 1,50,-1
 1022 1346 l 1,51,52
 991 1344 991 1344 946.5 1336 c 128,-1,53
 902 1328 902 1328 877 1321 c 0,54,55
 835 1308 835 1308 816 1279.5 c 128,-1,56
 797 1251 797 1251 789 1219 c 2,57,-1
 690 788 l 1,58,-1
 1286 788 l 1,59,-1
 1378 1187 l 2,60,61
 1383 1208 1383 1208 1385 1222 c 128,-1,62
 1387 1236 1387 1236 1387 1243 c 0,63,64
 1387 1285 1387 1285 1346 1307.5 c 128,-1,65
 1305 1330 1305 1330 1210 1346 c 1,66,-1
 1227 1419 l 1,67,-1
 1994 1419 l 1,0,-1
EndSplineSet
EndChar

StartChar: I
Encoding: 73 73 44
Width: 923
Flags: W
LayerCount: 2
Fore
SplineSet
-61 0 m 1,0,-1
 -44 73 l 1,1,2
 -15 74 -15 74 35 79.5 c 128,-1,3
 85 85 85 85 112 94 c 0,4,5
 151 107 151 107 171.5 133.5 c 128,-1,6
 192 160 192 160 200 195 c 2,7,-1
 429 1187 l 2,8,9
 434 1208 434 1208 436 1222 c 128,-1,10
 438 1236 438 1236 438 1243 c 0,11,12
 438 1285 438 1285 391.5 1308.5 c 128,-1,13
 345 1332 345 1332 249 1346 c 1,14,-1
 266 1419 l 1,15,-1
 1053 1419 l 1,16,-1
 1036 1346 l 1,17,18
 1004 1344 1004 1344 954 1336.5 c 128,-1,19
 904 1329 904 1329 879 1321 c 0,20,21
 838 1308 838 1308 818.5 1280.5 c 128,-1,22
 799 1253 799 1253 791 1219 c 2,23,-1
 562 226 l 2,24,25
 558 209 558 209 555.5 194 c 128,-1,26
 553 179 553 179 553 171 c 0,27,28
 553 121 553 121 599.5 101.5 c 128,-1,29
 646 82 646 82 743 73 c 1,30,-1
 726 0 l 1,31,-1
 -61 0 l 1,0,-1
EndSplineSet
EndChar

StartChar: J
Encoding: 74 74 45
Width: 1219
Flags: W
LayerCount: 2
Fore
SplineSet
947 432 m 2,0,1
 920 317 920 317 859.5 228.5 c 128,-1,2
 799 140 799 140 720 82 c 0,3,4
 642 25 642 25 550 -6.5 c 128,-1,5
 458 -38 458 -38 364 -38 c 0,6,7
 176 -38 176 -38 64.5 51 c 128,-1,8
 -47 140 -47 140 -47 294 c 0,9,10
 -47 389 -47 389 8 451.5 c 128,-1,11
 63 514 63 514 155 514 c 0,12,13
 244 514 244 514 293 463.5 c 128,-1,14
 342 413 342 413 342 337 c 0,15,16
 342 297 342 297 323 259 c 128,-1,17
 304 221 304 221 256 176 c 2,18,-1
 194 118 l 1,19,-1
 194 105 l 1,20,21
 203 81 203 81 233 68.5 c 128,-1,22
 263 56 263 56 294 56 c 0,23,24
 398 56 398 56 471.5 143.5 c 128,-1,25
 545 231 545 231 584 403 c 2,26,-1
 765 1187 l 2,27,28
 770 1208 770 1208 772 1222 c 128,-1,29
 774 1236 774 1236 774 1243 c 0,30,31
 774 1285 774 1285 730.5 1308.5 c 128,-1,32
 687 1332 687 1332 591 1346 c 1,33,-1
 608 1419 l 1,34,-1
 1374 1419 l 1,35,-1
 1357 1346 l 1,36,37
 1326 1344 1326 1344 1283.5 1336 c 128,-1,38
 1241 1328 1241 1328 1216 1321 c 0,39,40
 1174 1308 1174 1308 1156 1283 c 128,-1,41
 1138 1258 1138 1258 1128 1219 c 1,42,-1
 947 432 l 2,0,1
EndSplineSet
EndChar

StartChar: K
Encoding: 75 75 46
Width: 1673
Flags: W
LayerCount: 2
Fore
SplineSet
560 226 m 2,0,1
 556 209 556 209 553.5 194 c 128,-1,2
 551 179 551 179 551 171 c 0,3,4
 551 126 551 126 588 105 c 128,-1,5
 625 84 625 84 729 73 c 1,6,-1
 712 0 l 1,7,-1
 -55 0 l 1,8,-1
 -38 73 l 1,9,10
 -13 74 -13 74 36.5 79.5 c 128,-1,11
 86 85 86 85 110 93 c 0,12,13
 149 106 149 106 169.5 133 c 128,-1,14
 190 160 190 160 198 195 c 2,15,-1
 427 1187 l 2,16,17
 432 1208 432 1208 434 1222 c 128,-1,18
 436 1236 436 1236 436 1243 c 0,19,20
 436 1285 436 1285 393.5 1308.5 c 128,-1,21
 351 1332 351 1332 255 1346 c 1,22,-1
 272 1419 l 1,23,-1
 1039 1419 l 1,24,-1
 1022 1346 l 1,25,26
 991 1344 991 1344 946.5 1336 c 128,-1,27
 902 1328 902 1328 877 1321 c 0,28,29
 835 1308 835 1308 816 1279.5 c 128,-1,30
 797 1251 797 1251 789 1219 c 2,31,-1
 678 736 l 1,32,-1
 720 736 l 1,33,34
 829 818 829 818 952 916 c 128,-1,35
 1075 1014 1075 1014 1157 1088 c 0,36,37
 1250 1173 1250 1173 1300.5 1227 c 128,-1,38
 1351 1281 1351 1281 1351 1309 c 0,39,40
 1351 1324 1351 1324 1319 1332.5 c 128,-1,41
 1287 1341 1287 1341 1213 1346 c 1,42,-1
 1230 1419 l 1,43,-1
 1847 1419 l 1,44,-1
 1830 1346 l 1,45,46
 1718 1334 1718 1334 1632.5 1299 c 128,-1,47
 1547 1264 1547 1264 1461 1200 c 0,48,49
 1322 1095 1322 1095 1223 1010 c 128,-1,50
 1124 925 1124 925 1013 834 c 1,51,52
 1090 705 1090 705 1179.5 561 c 128,-1,53
 1269 417 1269 417 1377 241 c 0,54,55
 1408 189 1408 189 1441 155 c 128,-1,56
 1474 121 1474 121 1523 97 c 0,57,58
 1545 86 1545 86 1576 80 c 128,-1,59
 1607 74 1607 74 1629 73 c 1,60,-1
 1612 0 l 1,61,-1
 1080 0 l 1,62,63
 997 190 997 190 914 331.5 c 128,-1,64
 831 473 831 473 720 655 c 1,65,-1
 659 655 l 1,66,-1
 560 226 l 2,0,1
EndSplineSet
EndChar

StartChar: L
Encoding: 76 76 47
Width: 1404
Flags: W
LayerCount: 2
Fore
SplineSet
1385 455 m 1,0,-1
 1252 0 l 1,1,-1
 -55 0 l 1,2,-1
 -38 73 l 1,3,4
 -13 74 -13 74 36.5 80.5 c 128,-1,5
 86 87 86 87 110 95 c 0,6,7
 150 108 150 108 170 134 c 128,-1,8
 190 160 190 160 198 195 c 2,9,-1
 427 1187 l 2,10,11
 432 1208 432 1208 434 1222 c 128,-1,12
 436 1236 436 1236 436 1243 c 0,13,14
 436 1285 436 1285 393.5 1308.5 c 128,-1,15
 351 1332 351 1332 255 1346 c 1,16,-1
 272 1419 l 1,17,-1
 1052 1419 l 1,18,-1
 1035 1346 l 1,19,20
 1003 1344 1003 1344 953 1336.5 c 128,-1,21
 903 1329 903 1329 877 1321 c 0,22,23
 835 1308 835 1308 816 1279.5 c 128,-1,24
 797 1251 797 1251 789 1219 c 2,25,-1
 572 276 l 2,26,27
 565 247 565 247 561 219.5 c 128,-1,28
 557 192 557 192 557 177 c 0,29,30
 557 119 557 119 599.5 102.5 c 128,-1,31
 642 86 642 86 773 86 c 0,32,33
 853 86 853 86 932 98 c 128,-1,34
 1011 110 1011 110 1050 142 c 0,35,36
 1112 192 1112 192 1188 285.5 c 128,-1,37
 1264 379 1264 379 1312 455 c 1,38,-1
 1385 455 l 1,0,-1
EndSplineSet
EndChar

StartChar: M
Encoding: 77 77 48
Width: 2116
Flags: W
LayerCount: 2
Fore
SplineSet
2246 1419 m 1,0,-1
 2229 1346 l 1,1,2
 2198 1344 2198 1344 2152 1336 c 128,-1,3
 2106 1328 2106 1328 2082 1321 c 0,4,5
 2041 1308 2041 1308 2021.5 1280 c 128,-1,6
 2002 1252 2002 1252 1994 1219 c 2,7,-1
 1771 226 l 2,8,9
 1768 211 1768 211 1765 196 c 128,-1,10
 1762 181 1762 181 1762 171 c 0,11,12
 1762 126 1762 126 1799 105 c 128,-1,13
 1836 84 1836 84 1944 73 c 1,14,-1
 1927 0 l 1,15,-1
 1160 0 l 1,16,-1
 1177 73 l 1,17,18
 1217 78 1217 78 1259 84 c 128,-1,19
 1301 90 1301 90 1323 98 c 0,20,21
 1364 113 1364 113 1386 138.5 c 128,-1,22
 1408 164 1408 164 1417 205 c 2,23,-1
 1657 1270 l 1,24,-1
 1647 1270 l 1,25,-1
 876 23 l 1,26,-1
 750 23 l 1,27,28
 748 62 748 62 736 148.5 c 128,-1,29
 724 235 724 235 714 311 c 2,30,-1
 578 1286 l 1,31,-1
 568 1286 l 1,32,-1
 368 417 l 2,33,34
 356 367 356 367 349 319.5 c 128,-1,35
 342 272 342 272 342 235 c 0,36,37
 342 195 342 195 350.5 172.5 c 128,-1,38
 359 150 359 150 374 135 c 0,39,40
 395 114 395 114 452.5 95.5 c 128,-1,41
 510 77 510 77 538 73 c 1,42,-1
 521 0 l 1,43,-1
 -89 0 l 1,44,-1
 -72 73 l 1,45,46
 -46 76 -46 76 13 86.5 c 128,-1,47
 72 97 72 97 114 123 c 0,48,49
 159 151 159 151 188.5 215.5 c 128,-1,50
 218 280 218 280 247 407 c 2,51,-1
 409 1108 l 2,52,53
 417 1144 417 1144 419.5 1163 c 128,-1,54
 422 1182 422 1182 422 1200 c 0,55,56
 422 1231 422 1231 413.5 1254 c 128,-1,57
 405 1277 405 1277 388 1294 c 0,58,59
 357 1324 357 1324 315 1333.5 c 128,-1,60
 273 1343 273 1343 233 1346 c 1,61,-1
 250 1419 l 1,62,-1
 899 1419 l 1,63,-1
 1035 482 l 1,64,-1
 1500 1243 l 2,65,66
 1531 1295 1531 1295 1556 1350 c 128,-1,67
 1581 1405 1581 1405 1585 1419 c 1,68,-1
 2246 1419 l 1,0,-1
EndSplineSet
EndChar

StartChar: N
Encoding: 78 78 49
Width: 1699
Flags: W
LayerCount: 2
Fore
SplineSet
1883 1419 m 1,0,-1
 1866 1346 l 1,1,2
 1838 1343 1838 1343 1784.5 1335.5 c 128,-1,3
 1731 1328 1731 1328 1680 1296 c 0,4,5
 1637 1269 1637 1269 1606.5 1203 c 128,-1,6
 1576 1137 1576 1137 1546 1010 c 2,7,-1
 1311 -8 l 1,8,-1
 1143 -8 l 1,9,-1
 530 1129 l 1,10,-1
 368 419 l 2,11,12
 355 363 355 363 348 314 c 128,-1,13
 341 265 341 265 341 236 c 0,14,15
 341 195 341 195 349 172.5 c 128,-1,16
 357 150 357 150 372 135 c 0,17,18
 395 112 395 112 452.5 95 c 128,-1,19
 510 78 510 78 538 73 c 1,20,-1
 521 0 l 1,21,-1
 -89 0 l 1,22,-1
 -72 73 l 1,23,24
 -45 77 -45 77 13.5 87 c 128,-1,25
 72 97 72 97 114 123 c 0,26,27
 158 151 158 151 188 214.5 c 128,-1,28
 218 278 218 278 247 408 c 2,29,-1
 401 1076 l 2,30,31
 406 1099 406 1099 409.5 1119.5 c 128,-1,32
 413 1140 413 1140 413 1157 c 0,33,34
 413 1187 413 1187 406 1214.5 c 128,-1,35
 399 1242 399 1242 380 1265 c 0,36,37
 352 1299 352 1299 311 1317.5 c 128,-1,38
 270 1336 270 1336 215 1346 c 1,39,-1
 233 1419 l 1,40,-1
 757 1419 l 1,41,-1
 1293 419 l 1,42,-1
 1426 1000 l 2,43,44
 1440 1064 1440 1064 1446.5 1104.5 c 128,-1,45
 1453 1145 1453 1145 1453 1180 c 0,46,47
 1453 1219 1453 1219 1444.5 1243.5 c 128,-1,48
 1436 1268 1436 1268 1420 1284 c 0,49,50
 1398 1306 1398 1306 1342.5 1323.5 c 128,-1,51
 1287 1341 1287 1341 1257 1346 c 1,52,-1
 1274 1419 l 1,53,-1
 1883 1419 l 1,0,-1
EndSplineSet
EndChar

StartChar: O
Encoding: 79 79 50
Width: 1679
Flags: W
LayerCount: 2
Fore
SplineSet
1661 875 m 0,0,1
 1661 695 1661 695 1593.5 527.5 c 128,-1,2
 1526 360 1526 360 1404 236 c 0,3,4
 1279 109 1279 109 1110 35 c 128,-1,5
 941 -39 941 -39 727 -39 c 0,6,7
 447 -39 447 -39 267 122.5 c 128,-1,8
 87 284 87 284 87 545 c 0,9,10
 87 735 87 735 160 902.5 c 128,-1,11
 233 1070 233 1070 362 1195 c 0,12,13
 488 1318 488 1318 657.5 1388 c 128,-1,14
 827 1458 827 1458 1015 1458 c 0,15,16
 1297 1458 1297 1458 1479 1300 c 128,-1,17
 1661 1142 1661 1142 1661 875 c 0,0,1
1138 351 m 0,18,19
 1206 489 1206 489 1239 651.5 c 128,-1,20
 1272 814 1272 814 1272 972 c 0,21,22
 1272 1155 1272 1155 1202 1260 c 128,-1,23
 1132 1365 1132 1365 993 1365 c 0,24,25
 871 1365 871 1365 774.5 1283 c 128,-1,26
 678 1201 678 1201 612 1070 c 256,27,28
 546 939 546 939 511 774 c 128,-1,29
 476 609 476 609 476 446 c 0,30,31
 476 269 476 269 546 161.5 c 128,-1,32
 616 54 616 54 756 54 c 0,33,34
 877 54 877 54 975.5 138 c 128,-1,35
 1074 222 1074 222 1138 351 c 0,18,19
EndSplineSet
EndChar

StartChar: P
Encoding: 80 80 51
Width: 1446
Flags: W
LayerCount: 2
Fore
SplineSet
1532 1121 m 0,0,1
 1532 998 1532 998 1475.5 900.5 c 128,-1,2
 1419 803 1419 803 1313 737 c 1,3,4
 1208 673 1208 673 1078.5 642 c 128,-1,5
 949 611 949 611 793 611 c 2,6,-1
 649 611 l 1,7,-1
 560 226 l 2,8,9
 556 209 556 209 553.5 194 c 128,-1,10
 551 179 551 179 551 171 c 0,11,12
 551 126 551 126 588 105 c 128,-1,13
 625 84 625 84 733 73 c 1,14,-1
 716 0 l 1,15,-1
 -55 0 l 1,16,-1
 -38 73 l 1,17,18
 -13 74 -13 74 36.5 80.5 c 128,-1,19
 86 87 86 87 110 95 c 0,20,21
 149 108 149 108 169.5 134 c 128,-1,22
 190 160 190 160 198 195 c 2,23,-1
 427 1187 l 2,24,25
 432 1208 432 1208 434 1222 c 128,-1,26
 436 1236 436 1236 436 1243 c 0,27,28
 436 1285 436 1285 393.5 1308.5 c 128,-1,29
 351 1332 351 1332 255 1346 c 1,30,-1
 272 1419 l 1,31,-1
 1041 1419 l 2,32,33
 1289 1419 1289 1419 1410.5 1346 c 128,-1,34
 1532 1273 1532 1273 1532 1121 c 0,0,1
1136 1118 m 0,36,37
 1136 1226 1136 1226 1078 1279.5 c 128,-1,38
 1020 1333 1020 1333 889 1333 c 2,39,-1
 816 1333 l 1,40,-1
 670 700 l 1,41,-1
 735 700 l 2,42,43
 843 700 843 700 920.5 732.5 c 128,-1,44
 998 765 998 765 1046 823 c 0,45,46
 1092 879 1092 879 1114 954 c 128,-1,35
 1136 1029 1136 1029 1136 1118 c 0,36,37
EndSplineSet
EndChar

StartChar: Q
Encoding: 81 81 52
Width: 1679
Flags: W
LayerCount: 2
Fore
SplineSet
1661 875 m 0,0,1
 1661 728 1661 728 1615.5 588.5 c 128,-1,2
 1570 449 1570 449 1487 336 c 0,3,4
 1403 221 1403 221 1284.5 134.5 c 128,-1,5
 1166 48 1166 48 1018 4 c 1,6,-1
 1018 -49 l 2,7,8
 1018 -157 1018 -157 1070 -221 c 128,-1,9
 1122 -285 1122 -285 1209 -285 c 0,10,11
 1253 -285 1253 -285 1306.5 -278 c 128,-1,12
 1360 -271 1360 -271 1396 -262 c 1,13,-1
 1380 -342 l 1,14,15
 1311 -371 1311 -371 1189.5 -393 c 128,-1,16
 1068 -415 1068 -415 964 -415 c 0,17,18
 818 -415 818 -415 731.5 -333 c 128,-1,19
 645 -251 645 -251 645 -91 c 2,20,-1
 645 -34 l 1,21,22
 398 -7 398 -7 242.5 144.5 c 128,-1,23
 87 296 87 296 87 545 c 0,24,25
 87 735 87 735 160 902.5 c 128,-1,26
 233 1070 233 1070 362 1195 c 0,27,28
 488 1318 488 1318 657.5 1388 c 128,-1,29
 827 1458 827 1458 1015 1458 c 0,30,31
 1297 1458 1297 1458 1479 1300 c 128,-1,32
 1661 1142 1661 1142 1661 875 c 0,0,1
1272 972 m 0,33,34
 1272 1155 1272 1155 1202 1260 c 128,-1,35
 1132 1365 1132 1365 993 1365 c 0,36,37
 871 1365 871 1365 774.5 1283 c 128,-1,38
 678 1201 678 1201 612 1070 c 256,39,40
 546 939 546 939 511 774 c 128,-1,41
 476 609 476 609 476 446 c 0,42,43
 476 269 476 269 546 161.5 c 128,-1,44
 616 54 616 54 756 54 c 0,45,46
 877 54 877 54 975.5 138 c 128,-1,47
 1074 222 1074 222 1138 351 c 0,48,49
 1206 489 1206 489 1239 651.5 c 128,-1,50
 1272 814 1272 814 1272 972 c 0,33,34
EndSplineSet
EndChar

StartChar: R
Encoding: 82 82 53
Width: 1633
Flags: W
LayerCount: 2
Fore
SplineSet
1147 1121 m 0,0,1
 1147 1228 1147 1228 1079.5 1280.5 c 128,-1,2
 1012 1333 1012 1333 884 1333 c 2,3,-1
 816 1333 l 1,4,-1
 677 730 l 1,5,-1
 774 730 l 2,6,7
 937 730 937 730 1042 832.5 c 128,-1,8
 1147 935 1147 935 1147 1121 c 0,0,1
560 226 m 2,9,10
 556 209 556 209 553.5 194 c 128,-1,11
 551 179 551 179 551 171 c 0,12,13
 551 126 551 126 588 105 c 128,-1,14
 625 84 625 84 729 73 c 1,15,-1
 712 0 l 1,16,-1
 -55 0 l 1,17,-1
 -38 73 l 1,18,19
 -13 74 -13 74 36.5 80.5 c 128,-1,20
 86 87 86 87 110 95 c 0,21,22
 149 108 149 108 169.5 134 c 128,-1,23
 190 160 190 160 198 195 c 2,24,-1
 427 1187 l 2,25,26
 432 1208 432 1208 434 1222 c 128,-1,27
 436 1236 436 1236 436 1243 c 0,28,29
 436 1285 436 1285 393.5 1308.5 c 128,-1,30
 351 1332 351 1332 255 1346 c 1,31,-1
 272 1419 l 1,32,-1
 1054 1419 l 2,33,34
 1298 1419 1298 1419 1420.5 1350 c 128,-1,35
 1543 1281 1543 1281 1543 1141 c 0,36,37
 1543 976 1543 976 1424 864.5 c 128,-1,38
 1305 753 1305 753 1088 701 c 1,39,40
 1129 626 1129 626 1191.5 514.5 c 128,-1,41
 1254 403 1254 403 1337 258 c 0,42,43
 1361 215 1361 215 1399.5 160.5 c 128,-1,44
 1438 106 1438 106 1481 91 c 0,45,46
 1502 84 1502 84 1539 79 c 128,-1,47
 1576 74 1576 74 1592 73 c 1,48,-1
 1574 0 l 1,49,-1
 1056 0 l 1,50,51
 962 215 962 215 895.5 344.5 c 128,-1,52
 829 474 829 474 729 643 c 1,53,-1
 657 643 l 1,54,-1
 560 226 l 2,9,10
EndSplineSet
EndChar

StartChar: S
Encoding: 83 83 54
Width: 1337
Flags: W
LayerCount: 2
Fore
SplineSet
575 -38 m 0,0,1
 457 -38 457 -38 337.5 -9 c 128,-1,2
 218 20 218 20 128 70 c 1,3,-1
 42 0 l 1,4,-1
 -43 0 l 1,5,-1
 63 513 l 1,6,-1
 149 513 l 1,7,8
 161 438 161 438 193 357.5 c 128,-1,9
 225 277 225 277 276 214 c 1,10,11
 326 149 326 149 403 106 c 128,-1,12
 480 63 480 63 579 63 c 0,13,14
 724 63 724 63 811 133.5 c 128,-1,15
 898 204 898 204 898 319 c 0,16,17
 898 393 898 393 848.5 449 c 128,-1,18
 799 505 799 505 689 545 c 0,19,20
 619 570 619 570 553.5 593.5 c 128,-1,21
 488 617 488 617 429 642 c 0,22,23
 312 691 312 691 253 781.5 c 128,-1,24
 194 872 194 872 194 974 c 0,25,26
 194 1068 194 1068 237 1154.5 c 128,-1,27
 280 1241 280 1241 361 1309 c 0,28,29
 440 1376 440 1376 556.5 1416.5 c 128,-1,30
 673 1457 673 1457 812 1457 c 0,31,32
 928 1457 928 1457 1042 1423.5 c 128,-1,33
 1156 1390 1156 1390 1210 1359 c 1,34,-1
 1285 1419 l 1,35,-1
 1372 1419 l 1,36,-1
 1268 935 l 1,37,-1
 1182 935 l 1,38,39
 1169 1020 1169 1020 1144.5 1095 c 128,-1,40
 1120 1170 1120 1170 1077 1230 c 0,41,42
 1035 1288 1035 1288 972.5 1322.5 c 128,-1,43
 910 1357 910 1357 822 1357 c 0,44,45
 700 1357 700 1357 618.5 1289 c 128,-1,46
 537 1221 537 1221 537 1118 c 0,47,48
 537 1046 537 1046 586 992 c 128,-1,49
 635 938 635 938 741 898 c 0,50,51
 803 875 803 875 871 850.5 c 128,-1,52
 939 826 939 826 1001 800 c 0,53,54
 1117 752 1117 752 1184 669.5 c 128,-1,55
 1251 587 1251 587 1251 474 c 0,56,57
 1251 367 1251 367 1202 273 c 128,-1,58
 1153 179 1153 179 1065 111 c 0,59,60
 972 39 972 39 848 0.5 c 128,-1,61
 724 -38 724 -38 575 -38 c 0,0,1
EndSplineSet
EndChar

StartChar: T
Encoding: 84 84 55
Width: 1401
Flags: W
LayerCount: 2
Fore
SplineSet
1591 1419 m 1,0,-1
 1497 1013 l 1,1,-1
 1420 1013 l 1,2,3
 1416 1047 1416 1047 1404.5 1098 c 128,-1,4
 1393 1149 1393 1149 1373 1199 c 0,5,6
 1352 1251 1352 1251 1327.5 1285 c 128,-1,7
 1303 1319 1303 1319 1269 1325 c 1,8,9
 1239 1329 1239 1329 1192.5 1332 c 128,-1,10
 1146 1335 1146 1335 1112 1335 c 2,11,-1
 1062 1335 l 1,12,-1
 807 232 l 2,13,14
 803 215 803 215 800.5 199.5 c 128,-1,15
 798 184 798 184 798 177 c 0,16,17
 798 153 798 153 807.5 134.5 c 128,-1,18
 817 116 817 116 843 105 c 0,19,20
 867 95 867 95 913 85.5 c 128,-1,21
 959 76 959 76 989 73 c 1,22,-1
 972 0 l 1,23,-1
 181 0 l 1,24,-1
 198 73 l 1,25,26
 226 75 226 75 280 81 c 128,-1,27
 334 87 334 87 357 95 c 1,28,29
 397 111 397 111 417 138 c 128,-1,30
 437 165 437 165 445 202 c 2,31,-1
 707 1335 l 1,32,-1
 668 1335 l 2,33,34
 630 1335 630 1335 591.5 1332.5 c 128,-1,35
 553 1330 553 1330 504 1325 c 1,36,37
 468 1320 468 1320 423.5 1282 c 128,-1,38
 379 1244 379 1244 337 1199 c 1,39,40
 287 1143 287 1143 254.5 1097.5 c 128,-1,41
 222 1052 222 1052 199 1013 c 1,42,-1
 122 1013 l 1,43,-1
 216 1419 l 1,44,-1
 1591 1419 l 1,0,-1
EndSplineSet
EndChar

StartChar: U
Encoding: 85 85 56
Width: 1707
Flags: W
LayerCount: 2
Fore
SplineSet
755 -39 m 0,0,1
 495 -39 495 -39 356.5 61.5 c 128,-1,2
 218 162 218 162 218 345 c 0,3,4
 218 377 218 377 222 409.5 c 128,-1,5
 226 442 226 442 234 480 c 2,6,-1
 398 1189 l 2,7,8
 403 1210 403 1210 405 1222 c 128,-1,9
 407 1234 407 1234 407 1243 c 0,10,11
 407 1285 407 1285 367 1308 c 128,-1,12
 327 1331 327 1331 228 1346 c 1,13,-1
 245 1419 l 1,14,-1
 1005 1419 l 1,15,-1
 988 1346 l 1,16,17
 955 1344 955 1344 916 1337.5 c 128,-1,18
 877 1331 877 1331 850 1323 c 0,19,20
 809 1311 809 1311 790 1283.5 c 128,-1,21
 771 1256 771 1256 763 1221 c 2,22,-1
 601 522 l 2,23,24
 591 480 591 480 585 431 c 128,-1,25
 579 382 579 382 579 349 c 0,26,27
 579 220 579 220 653 158.5 c 128,-1,28
 727 97 727 97 869 97 c 0,29,30
 1041 97 1041 97 1166.5 211.5 c 128,-1,31
 1292 326 1292 326 1335 515 c 2,32,-1
 1447 1001 l 2,33,34
 1461 1063 1461 1063 1467.5 1107 c 128,-1,35
 1474 1151 1474 1151 1474 1181 c 0,36,37
 1474 1219 1474 1219 1465.5 1244 c 128,-1,38
 1457 1269 1457 1269 1441 1284 c 0,39,40
 1416 1307 1416 1307 1358.5 1324.5 c 128,-1,41
 1301 1342 1301 1342 1275 1346 c 1,42,-1
 1292 1419 l 1,43,-1
 1907 1419 l 1,44,-1
 1890 1346 l 1,45,46
 1860 1343 1860 1343 1803.5 1332.5 c 128,-1,47
 1747 1322 1747 1322 1703 1296 c 0,48,49
 1659 1271 1659 1271 1628.5 1204.5 c 128,-1,50
 1598 1138 1598 1138 1568 1011 c 2,51,-1
 1445 478 l 2,52,53
 1387 230 1387 230 1201.5 95.5 c 128,-1,54
 1016 -39 1016 -39 755 -39 c 0,0,1
EndSplineSet
EndChar

StartChar: V
Encoding: 86 86 57
Width: 1561
Flags: W
LayerCount: 2
Fore
SplineSet
1787 1346 m 1,0,1
 1756 1343 1756 1343 1724 1332.5 c 128,-1,2
 1692 1322 1692 1322 1654 1304 c 0,3,4
 1606 1281 1606 1281 1576 1252 c 128,-1,5
 1546 1223 1546 1223 1511 1172 c 0,6,7
 1459 1096 1459 1096 1383 978.5 c 128,-1,8
 1307 861 1307 861 1179 666 c 0,9,10
 1048 465 1048 465 944 303.5 c 128,-1,11
 840 142 840 142 739 -16 c 1,12,-1
 538 -16 l 1,13,14
 460 427 460 427 406 727 c 128,-1,15
 352 1027 352 1027 323 1178 c 1,16,17
 311 1232 311 1232 292.5 1257.5 c 128,-1,18
 274 1283 274 1283 239 1306 c 0,19,20
 211 1324 211 1324 186 1332.5 c 128,-1,21
 161 1341 161 1341 122 1346 c 1,22,-1
 139 1419 l 1,23,-1
 892 1419 l 1,24,-1
 874 1346 l 1,25,26
 792 1337 792 1337 752 1327.5 c 128,-1,27
 712 1318 712 1318 693 1308 c 0,28,29
 675 1299 675 1299 673 1287 c 128,-1,30
 671 1275 671 1275 671 1266 c 0,31,32
 671 1244 671 1244 675 1221 c 128,-1,33
 679 1198 679 1198 685 1158 c 0,34,35
 704 1040 704 1040 742 839 c 128,-1,36
 780 638 780 638 834 324 c 1,37,38
 966 532 966 532 1078 711.5 c 128,-1,39
 1190 891 1190 891 1292 1056 c 0,40,41
 1335 1126 1335 1126 1366.5 1187 c 128,-1,42
 1398 1248 1398 1248 1398 1270 c 0,43,44
 1398 1300 1398 1300 1346.5 1320 c 128,-1,45
 1295 1340 1295 1340 1198 1346 c 1,46,-1
 1216 1419 l 1,47,-1
 1805 1419 l 1,48,-1
 1787 1346 l 1,0,1
EndSplineSet
EndChar

StartChar: W
Encoding: 87 87 58
Width: 2307
Flags: W
LayerCount: 2
Fore
SplineSet
2549 1419 m 1,0,-1
 2531 1346 l 1,1,2
 2498 1343 2498 1343 2465 1331 c 128,-1,3
 2432 1319 2432 1319 2401 1304 c 0,4,5
 2353 1280 2353 1280 2326 1250.5 c 128,-1,6
 2299 1221 2299 1221 2270 1172 c 0,7,8
 2171 1005 2171 1005 1982 678 c 128,-1,9
 1793 351 1793 351 1582 -16 c 1,10,-1
 1374 -16 l 1,11,-1
 1246 1032 l 1,12,-1
 670 -16 l 1,13,-1
 470 -16 l 1,14,15
 428 359 428 359 392.5 689 c 128,-1,16
 357 1019 357 1019 339 1176 c 0,17,18
 332 1229 332 1229 316.5 1254.5 c 128,-1,19
 301 1280 301 1280 263 1307 c 0,20,21
 239 1324 239 1324 211 1332.5 c 128,-1,22
 183 1341 183 1341 146 1346 c 1,23,-1
 163 1419 l 1,24,-1
 905 1419 l 1,25,-1
 887 1346 l 1,26,27
 815 1338 815 1338 775 1329 c 128,-1,28
 735 1320 735 1320 715 1309 c 0,29,30
 697 1299 697 1299 694 1286.5 c 128,-1,31
 691 1274 691 1274 691 1261 c 0,32,33
 691 1241 691 1241 693 1214.5 c 128,-1,34
 695 1188 695 1188 698 1157 c 0,35,36
 706 1063 706 1063 727.5 859.5 c 128,-1,37
 749 656 749 656 776 385 c 1,38,-1
 1335 1419 l 1,39,-1
 1548 1419 l 1,40,-1
 1677 353 l 1,41,42
 1796 568 1796 568 1898 754.5 c 128,-1,43
 2000 941 2000 941 2060 1057 c 0,44,45
 2097 1128 2097 1128 2124.5 1189 c 128,-1,46
 2152 1250 2152 1250 2152 1268 c 0,47,48
 2152 1299 2152 1299 2099.5 1319 c 128,-1,49
 2047 1339 2047 1339 1946 1346 c 1,50,-1
 1964 1419 l 1,51,-1
 2549 1419 l 1,0,-1
EndSplineSet
EndChar

StartChar: X
Encoding: 88 88 59
Width: 1643
Flags: W
LayerCount: 2
Fore
SplineSet
1792 1419 m 1,0,-1
 1775 1346 l 1,1,2
 1735 1345 1735 1345 1704.5 1336.5 c 128,-1,3
 1674 1328 1674 1328 1653 1320 c 0,4,5
 1586 1293 1586 1293 1533 1249.5 c 128,-1,6
 1480 1206 1480 1206 1423 1155 c 0,7,8
 1347 1087 1347 1087 1235 983 c 128,-1,9
 1123 879 1123 879 1020 785 c 1,10,11
 1104 600 1104 600 1155.5 497 c 128,-1,12
 1207 394 1207 394 1269 265 c 0,13,14
 1292 217 1292 217 1324.5 170.5 c 128,-1,15
 1357 124 1357 124 1410 101 c 0,16,17
 1435 91 1435 91 1463.5 83.5 c 128,-1,18
 1492 76 1492 76 1541 73 c 1,19,-1
 1524 0 l 1,20,-1
 690 0 l 1,21,-1
 707 73 l 1,22,23
 840 81 840 81 879.5 97 c 128,-1,24
 919 113 919 113 919 143 c 0,25,26
 919 159 919 159 912 184.5 c 128,-1,27
 905 210 905 210 882 266 c 0,28,29
 863 312 863 312 827 395 c 128,-1,30
 791 478 791 478 744 578 c 1,31,32
 653 494 653 494 568 410 c 128,-1,33
 483 326 483 326 426 269 c 0,34,35
 353 195 353 195 338.5 168.5 c 128,-1,36
 324 142 324 142 324 129 c 0,37,38
 324 109 324 109 354.5 94.5 c 128,-1,39
 385 80 385 80 473 73 c 1,40,-1
 456 0 l 1,41,-1
 -119 0 l 1,42,-1
 -102 73 l 1,43,44
 -59 76 -59 76 -38 80.5 c 128,-1,45
 -17 85 -17 85 19 99 c 1,46,47
 84 127 84 127 136 167 c 128,-1,48
 188 207 188 207 250 264 c 0,49,50
 349 354 349 354 453 450 c 128,-1,51
 557 546 557 546 697 677 c 1,52,53
 632 820 632 820 584 919 c 128,-1,54
 536 1018 536 1018 470 1154 c 0,55,56
 444 1207 444 1207 412 1250 c 128,-1,57
 380 1293 380 1293 326 1317 c 0,58,59
 299 1329 299 1329 274 1335.5 c 128,-1,60
 249 1342 249 1342 197 1346 c 1,61,-1
 214 1419 l 1,62,-1
 1050 1419 l 1,63,-1
 1033 1346 l 1,64,65
 952 1342 952 1342 885.5 1328 c 128,-1,66
 819 1314 819 1314 819 1274 c 0,67,68
 819 1257 819 1257 825.5 1234.5 c 128,-1,69
 832 1212 832 1212 851 1165 c 0,70,71
 871 1115 871 1115 897.5 1056.5 c 128,-1,72
 924 998 924 998 974 883 c 1,73,74
 1075 979 1075 979 1148 1050.5 c 128,-1,75
 1221 1122 1221 1122 1266 1171 c 0,76,77
 1334 1245 1334 1245 1341.5 1262.5 c 128,-1,78
 1349 1280 1349 1280 1349 1291 c 0,79,80
 1349 1300 1349 1300 1343 1308 c 128,-1,81
 1337 1316 1337 1316 1319 1324 c 0,82,83
 1301 1331 1301 1331 1272.5 1336.5 c 128,-1,84
 1244 1342 1244 1342 1198 1346 c 1,85,-1
 1215 1419 l 1,86,-1
 1792 1419 l 1,0,-1
EndSplineSet
EndChar

StartChar: Y
Encoding: 89 89 60
Width: 1499
Flags: W
LayerCount: 2
Fore
SplineSet
1770 1419 m 1,0,-1
 1753 1346 l 1,1,2
 1719 1342 1719 1342 1690 1334 c 128,-1,3
 1661 1326 1661 1326 1623 1306 c 0,4,5
 1575 1282 1575 1282 1536.5 1248.5 c 128,-1,6
 1498 1215 1498 1215 1448 1161 c 0,7,8
 1325 1027 1325 1027 1266.5 960 c 128,-1,9
 1208 893 1208 893 1049 706 c 0,10,11
 961 604 961 604 943 562.5 c 128,-1,12
 925 521 925 521 902 418 c 2,13,-1
 859 232 l 2,14,15
 855 215 855 215 852.5 199.5 c 128,-1,16
 850 184 850 184 850 177 c 0,17,18
 850 153 850 153 859.5 134.5 c 128,-1,19
 869 116 869 116 895 105 c 0,20,21
 919 95 919 95 965 85.5 c 128,-1,22
 1011 76 1011 76 1041 73 c 1,23,-1
 1024 0 l 1,24,-1
 233 0 l 1,25,-1
 250 73 l 1,26,27
 278 75 278 75 332 81 c 128,-1,28
 386 87 386 87 409 95 c 1,29,30
 447 110 447 110 468 138 c 128,-1,31
 489 166 489 166 497 202 c 2,32,-1
 556 457 l 2,33,34
 562 485 562 485 567 506.5 c 128,-1,35
 572 528 572 528 572 544 c 0,36,37
 572 565 572 565 561 598 c 128,-1,38
 550 631 550 631 532 682 c 0,39,40
 473 853 473 853 441.5 941 c 128,-1,41
 410 1029 410 1029 356 1168 c 0,42,43
 336 1220 336 1220 309.5 1255.5 c 128,-1,44
 283 1291 283 1291 251 1313 c 1,45,46
 227 1328 227 1328 191.5 1336 c 128,-1,47
 156 1344 156 1344 125 1346 c 1,48,-1
 142 1419 l 1,49,-1
 935 1419 l 1,50,-1
 918 1346 l 1,51,52
 815 1343 815 1343 764.5 1329.5 c 128,-1,53
 714 1316 714 1316 714 1288 c 0,54,55
 714 1275 714 1275 722.5 1236.5 c 128,-1,56
 731 1198 731 1198 759 1109 c 0,57,58
 780 1041 780 1041 818.5 932.5 c 128,-1,59
 857 824 857 824 904 694 c 1,60,61
 1030 841 1030 841 1135.5 964.5 c 128,-1,62
 1241 1088 1241 1088 1280 1137 c 0,63,64
 1354 1229 1354 1229 1365 1250.5 c 128,-1,65
 1376 1272 1376 1272 1376 1282 c 0,66,67
 1376 1313 1376 1313 1328.5 1327.5 c 128,-1,68
 1281 1342 1281 1342 1213 1346 c 1,69,-1
 1230 1419 l 1,70,-1
 1770 1419 l 1,0,-1
EndSplineSet
EndChar

StartChar: Z
Encoding: 90 90 61
Width: 1412
Flags: W
LayerCount: 2
Fore
SplineSet
1563 1419 m 1,0,-1
 1549 1358 l 1,1,-1
 363 87 l 1,2,-1
 702 87 l 2,3,4
 870 87 870 87 934.5 103.5 c 128,-1,5
 999 120 999 120 1035 154 c 0,6,7
 1101 216 1101 216 1176.5 307.5 c 128,-1,8
 1252 399 1252 399 1308 479 c 1,9,-1
 1383 479 l 1,10,-1
 1224 0 l 1,11,-1
 -98 0 l 1,12,-1
 -83 61 l 1,13,-1
 1103 1332 l 1,14,-1
 812 1332 l 2,15,16
 717 1332 717 1332 674 1326.5 c 128,-1,17
 631 1321 631 1321 589 1304 c 1,18,19
 543 1288 543 1288 469 1213 c 128,-1,20
 395 1138 395 1138 276 986 c 1,21,-1
 195 986 l 1,22,-1
 339 1419 l 1,23,-1
 1563 1419 l 1,0,-1
EndSplineSet
EndChar

StartChar: bracketleft
Encoding: 91 91 62
Width: 915
Flags: W
LayerCount: 2
Fore
SplineSet
651 -310 m 1,0,-1
 -11 -310 l 1,1,-1
 411 1519 l 1,2,-1
 1073 1519 l 1,3,-1
 1051 1424 l 1,4,-1
 704 1424 l 1,5,-1
 326 -214 l 1,6,-1
 673 -214 l 1,7,-1
 651 -310 l 1,0,-1
EndSplineSet
EndChar

StartChar: backslash
Encoding: 92 92 63
Width: 966
Flags: W
LayerCount: 2
Fore
SplineSet
778 -424 m 1,0,-1
 604 -424 l 1,1,-1
 255 1523 l 1,2,-1
 431 1523 l 1,3,-1
 778 -424 l 1,0,-1
EndSplineSet
EndChar

StartChar: bracketright
Encoding: 93 93 64
Width: 915
Flags: W
LayerCount: 2
Fore
SplineSet
537 -310 m 1,0,-1
 -125 -310 l 1,1,-1
 -103 -214 l 1,2,-1
 244 -214 l 1,3,-1
 622 1424 l 1,4,-1
 275 1424 l 1,5,-1
 297 1519 l 1,6,-1
 959 1519 l 1,7,-1
 537 -310 l 1,0,-1
EndSplineSet
EndChar

StartChar: asciicircum
Encoding: 94 94 65
Width: 1440
Flags: W
LayerCount: 2
Fore
SplineSet
1272 760 m 1,0,-1
 1076 760 l 1,1,-1
 759 1273 l 1,2,-1
 442 760 l 1,3,-1
 248 760 l 1,4,-1
 690 1456 l 1,5,-1
 830 1456 l 1,6,-1
 1272 760 l 1,0,-1
EndSplineSet
EndChar

StartChar: underscore
Encoding: 95 95 66
Width: 1440
Flags: W
LayerCount: 2
Fore
SplineSet
1262 -301 m 1,0,-1
 -188 -301 l 1,1,-1
 -161 -181 l 1,2,-1
 1289 -181 l 1,3,-1
 1262 -301 l 1,0,-1
EndSplineSet
EndChar

StartChar: grave
Encoding: 96 96 67
Width: 1024
Flags: W
LayerCount: 2
Fore
SplineSet
857 1139 m 1,0,-1
 811 1101 l 1,1,2
 680 1189 680 1189 584 1245 c 128,-1,3
 488 1301 488 1301 448 1329 c 1,4,5
 413 1355 413 1355 396 1379 c 128,-1,6
 379 1403 379 1403 379 1439 c 256,7,8
 379 1475 379 1475 410.5 1511.5 c 128,-1,9
 442 1548 442 1548 493 1548 c 0,10,11
 556 1548 556 1548 593 1524 c 128,-1,12
 630 1500 630 1500 667 1444 c 0,13,14
 696 1400 696 1400 744.5 1318 c 128,-1,15
 793 1236 793 1236 857 1139 c 1,0,-1
EndSplineSet
EndChar

StartChar: a
Encoding: 97 97 68
Width: 1352
Flags: W
LayerCount: 2
Fore
SplineSet
760 125 m 1,0,-1
 752 125 l 1,1,2
 717 95 717 95 685.5 70 c 128,-1,3
 654 45 654 45 606 20 c 0,4,5
 564 -2 564 -2 517.5 -16.5 c 128,-1,6
 471 -31 471 -31 415 -31 c 0,7,8
 241 -31 241 -31 153 71.5 c 128,-1,9
 65 174 65 174 65 352 c 0,10,11
 65 489 65 489 114 609 c 128,-1,12
 163 729 163 729 245 820 c 1,13,14
 328 910 328 910 439 962.5 c 128,-1,15
 550 1015 550 1015 673 1015 c 0,16,17
 763 1015 763 1015 830.5 994 c 128,-1,18
 898 973 898 973 941 937 c 1,19,-1
 1248 1000 l 1,20,-1
 1262 984 l 1,21,-1
 1115 369 l 2,22,23
 1107 338 1107 338 1098 291.5 c 128,-1,24
 1089 245 1089 245 1089 221 c 0,25,26
 1089 164 1089 164 1115 142.5 c 128,-1,27
 1141 121 1141 121 1205 121 c 0,28,29
 1233 121 1233 121 1272.5 132 c 128,-1,30
 1312 143 1312 143 1328 150 c 1,31,-1
 1306 60 l 1,32,33
 1207 21 1207 21 1147.5 0.5 c 128,-1,34
 1088 -20 1088 -20 1010 -20 c 0,35,36
 907 -20 907 -20 845.5 20.5 c 128,-1,37
 784 61 784 61 760 125 c 1,0,-1
879 759 m 1,38,39
 879 781 879 781 873 811 c 128,-1,40
 867 841 867 841 852 862 c 0,41,42
 834 888 834 888 805 901.5 c 128,-1,43
 776 915 776 915 733 915 c 0,44,45
 667 915 667 915 611.5 867.5 c 128,-1,46
 556 820 556 820 513 741 c 0,47,48
 471 663 471 663 447 559.5 c 128,-1,49
 423 456 423 456 423 348 c 0,50,51
 423 299 423 299 430.5 257 c 128,-1,52
 438 215 438 215 455 186 c 0,53,54
 473 155 473 155 503.5 138 c 128,-1,55
 534 121 534 121 580 121 c 0,56,57
 627 121 627 121 670.5 148.5 c 128,-1,58
 714 176 714 176 751 216 c 1,59,-1
 879 759 l 1,38,39
EndSplineSet
EndChar

StartChar: b
Encoding: 98 98 69
Width: 1329
Flags: W
LayerCount: 2
Fore
SplineSet
1264 632 m 0,0,1
 1264 496 1264 496 1218 373.5 c 128,-1,2
 1172 251 1172 251 1086 163 c 0,3,4
 995 70 995 70 870 19 c 128,-1,5
 745 -32 745 -32 592 -32 c 0,6,7
 555 -32 555 -32 483 -24 c 128,-1,8
 411 -16 411 -16 354 4 c 0,9,10
 282 29 282 29 218.5 75 c 128,-1,11
 155 121 155 121 107 195 c 1,12,-1
 358 1273 l 2,13,14
 362 1290 362 1290 364 1305 c 128,-1,15
 366 1320 366 1320 366 1330 c 0,16,17
 366 1363 366 1363 353.5 1385 c 128,-1,18
 341 1407 341 1407 318 1420 c 0,19,20
 295 1432 295 1432 263.5 1438 c 128,-1,21
 232 1444 232 1444 191 1448 c 1,22,-1
 209 1522 l 1,23,-1
 736 1548 l 1,24,-1
 747 1532 l 1,25,-1
 596 884 l 1,26,-1
 603 884 l 1,27,28
 626 903 626 903 653 922.5 c 128,-1,29
 680 942 680 942 725 966 c 0,30,31
 759 984 759 984 814.5 999.5 c 128,-1,32
 870 1015 870 1015 915 1015 c 0,33,34
 1089 1015 1089 1015 1176.5 912.5 c 128,-1,35
 1264 810 1264 810 1264 632 c 0,0,1
906 636 m 0,36,37
 906 685 906 685 899 726.5 c 128,-1,38
 892 768 892 768 874 798 c 0,39,40
 856 829 856 829 825.5 846 c 128,-1,41
 795 863 795 863 749 863 c 0,42,43
 698 863 698 863 652 834.5 c 128,-1,44
 606 806 606 806 570 768 c 1,45,-1
 444 210 l 1,46,47
 444 186 444 186 451 161 c 128,-1,48
 458 136 458 136 478 109 c 0,49,50
 498 81 498 81 522 66 c 128,-1,51
 546 51 546 51 591 51 c 0,52,53
 659 51 659 51 718.5 101.5 c 128,-1,54
 778 152 778 152 818 234 c 0,55,56
 862 322 862 322 884 419.5 c 128,-1,57
 906 517 906 517 906 636 c 0,36,37
EndSplineSet
EndChar

StartChar: c
Encoding: 99 99 70
Width: 1097
Flags: W
LayerCount: 2
Fore
SplineSet
557 -33 m 0,0,1
 327 -33 327 -33 198.5 82 c 128,-1,2
 70 197 70 197 70 398 c 0,3,4
 70 519 70 519 111 627.5 c 128,-1,5
 152 736 152 736 237 825 c 0,6,7
 316 909 316 909 440 962 c 128,-1,8
 564 1015 564 1015 717 1015 c 0,9,10
 894 1015 894 1015 987.5 950 c 128,-1,11
 1081 885 1081 885 1081 771 c 0,12,13
 1081 740 1081 740 1071 702 c 128,-1,14
 1061 664 1061 664 1041 638 c 0,15,16
 1016 606 1016 606 986.5 589 c 128,-1,17
 957 572 957 572 898 572 c 0,18,19
 820 572 820 572 776.5 610.5 c 128,-1,20
 733 649 733 649 733 691 c 0,21,22
 733 741 733 741 754 790 c 128,-1,23
 775 839 775 839 807 893 c 1,24,25
 798 904 798 904 770.5 920 c 128,-1,26
 743 936 743 936 699 936 c 0,27,28
 582 936 582 936 505 794.5 c 128,-1,29
 428 653 428 653 428 444 c 0,30,31
 428 285 428 285 486.5 203 c 128,-1,32
 545 121 545 121 653 121 c 0,33,34
 763 121 763 121 836.5 163.5 c 128,-1,35
 910 206 910 206 987 309 c 1,36,-1
 1059 248 l 1,37,38
 977 121 977 121 842 44 c 128,-1,39
 707 -33 707 -33 557 -33 c 0,0,1
EndSplineSet
EndChar

StartChar: d
Encoding: 100 100 71
Width: 1357
Flags: W
LayerCount: 2
Fore
SplineSet
766 125 m 1,0,-1
 758 125 l 1,1,2
 723 95 723 95 691 70 c 128,-1,3
 659 45 659 45 609 20 c 0,4,5
 562 -4 562 -4 517.5 -17.5 c 128,-1,6
 473 -31 473 -31 415 -31 c 0,7,8
 241 -31 241 -31 153 71.5 c 128,-1,9
 65 174 65 174 65 352 c 0,10,11
 65 489 65 489 113 609 c 128,-1,12
 161 729 161 729 243 820 c 0,13,14
 324 910 324 910 435 962.5 c 128,-1,15
 546 1015 546 1015 668 1015 c 0,16,17
 760 1015 760 1015 822 995.5 c 128,-1,18
 884 976 884 976 925 944 c 1,19,-1
 999 1269 l 2,20,21
 1002 1283 1002 1283 1004.5 1299.5 c 128,-1,22
 1007 1316 1007 1316 1007 1326 c 0,23,24
 1007 1359 1007 1359 990 1382 c 128,-1,25
 973 1405 973 1405 943 1418 c 0,26,27
 915 1431 915 1431 879 1437 c 128,-1,28
 843 1443 843 1443 800 1448 c 1,29,-1
 818 1522 l 1,30,-1
 1379 1548 l 1,31,-1
 1390 1532 l 1,32,-1
 1121 369 l 2,33,34
 1114 340 1114 340 1104.5 292.5 c 128,-1,35
 1095 245 1095 245 1095 221 c 0,36,37
 1095 164 1095 164 1120.5 142.5 c 128,-1,38
 1146 121 1146 121 1210 121 c 0,39,40
 1238 121 1238 121 1277.5 132 c 128,-1,41
 1317 143 1317 143 1333 150 c 1,42,-1
 1311 60 l 1,43,44
 1212 21 1212 21 1153 0.5 c 128,-1,45
 1094 -20 1094 -20 1016 -20 c 0,46,47
 913 -20 913 -20 851.5 20.5 c 128,-1,48
 790 61 790 61 766 125 c 1,0,-1
884 765 m 1,49,50
 884 790 884 790 877.5 816.5 c 128,-1,51
 871 843 871 843 852 867 c 0,52,53
 833 892 833 892 805 906.5 c 128,-1,54
 777 921 777 921 729 921 c 0,55,56
 665 921 665 921 609.5 873.5 c 128,-1,57
 554 826 554 826 511 744 c 0,58,59
 471 668 471 668 447 563.5 c 128,-1,60
 423 459 423 459 423 348 c 0,61,62
 423 299 423 299 430.5 257 c 128,-1,63
 438 215 438 215 455 186 c 0,64,65
 473 155 473 155 503.5 138 c 128,-1,66
 534 121 534 121 580 121 c 0,67,68
 627 121 627 121 673.5 148.5 c 128,-1,69
 720 176 720 176 757 216 c 1,70,-1
 884 765 l 1,49,50
EndSplineSet
EndChar

StartChar: e
Encoding: 101 101 72
Width: 1141
Flags: W
LayerCount: 2
Fore
SplineSet
546 -33 m 0,0,1
 426 -33 426 -33 335.5 -0.5 c 128,-1,2
 245 32 245 32 186 90 c 0,3,4
 128 148 128 148 99 225 c 128,-1,5
 70 302 70 302 70 395 c 0,6,7
 70 513 70 513 114 624 c 128,-1,8
 158 735 158 735 245 824 c 0,9,10
 327 909 327 909 453 962 c 128,-1,11
 579 1015 579 1015 731 1015 c 0,12,13
 910 1015 910 1015 1003.5 958 c 128,-1,14
 1097 901 1097 901 1097 787 c 0,15,16
 1097 678 1097 678 1016 599.5 c 128,-1,17
 935 521 935 521 796 483 c 1,18,19
 686 450 686 450 608.5 436 c 128,-1,20
 531 422 531 422 419 410 c 1,21,22
 421 366 421 366 431 311 c 128,-1,23
 441 256 441 256 461 217 c 0,24,25
 485 172 485 172 529 145.5 c 128,-1,26
 573 119 573 119 641 119 c 0,27,28
 759 119 759 119 841.5 164.5 c 128,-1,29
 924 210 924 210 999 309 c 1,30,-1
 1072 248 l 1,31,32
 982 120 982 120 841.5 43.5 c 128,-1,33
 701 -33 701 -33 546 -33 c 0,0,1
772 759 m 0,34,35
 772 844 772 844 741 889.5 c 128,-1,36
 710 935 710 935 655 935 c 0,37,38
 578 935 578 935 509.5 809.5 c 128,-1,39
 441 684 441 684 422 492 c 1,40,41
 481 499 481 499 539 510 c 128,-1,42
 597 521 597 521 631 536 c 0,43,44
 706 569 706 569 739 621 c 128,-1,45
 772 673 772 673 772 759 c 0,34,35
EndSplineSet
EndChar

StartChar: f
Encoding: 102 102 73
Width: 780
Flags: W
LayerCount: 2
Fore
SplineSet
620 868 m 1,0,1
 570 621 570 621 533.5 439.5 c 128,-1,2
 497 258 497 258 446 60 c 0,3,4
 421 -37 421 -37 363.5 -130.5 c 128,-1,5
 306 -224 306 -224 228 -292 c 0,6,7
 146 -364 146 -364 50.5 -404 c 128,-1,8
 -45 -444 -45 -444 -146 -444 c 0,9,10
 -237 -444 -237 -444 -293.5 -426 c 128,-1,11
 -350 -408 -350 -408 -382 -380 c 0,12,13
 -413 -352 -413 -352 -424 -318 c 128,-1,14
 -435 -284 -435 -284 -435 -251 c 0,15,16
 -435 -193 -435 -193 -393.5 -148.5 c 128,-1,17
 -352 -104 -352 -104 -282 -104 c 0,18,19
 -228 -104 -228 -104 -188.5 -132.5 c 128,-1,20
 -149 -161 -149 -161 -121 -201 c 0,21,22
 -93 -240 -93 -240 -71.5 -288 c 128,-1,23
 -50 -336 -50 -336 -38 -363 c 1,24,25
 4 -317 4 -317 41 -224.5 c 128,-1,26
 78 -132 78 -132 110 22 c 2,27,-1
 289 868 l 1,28,-1
 95 868 l 1,29,-1
 119 971 l 1,30,-1
 311 971 l 1,31,-1
 328 1048 l 2,32,33
 349 1142 349 1142 404.5 1232.5 c 128,-1,34
 460 1323 460 1323 539 1394 c 1,35,36
 615 1464 615 1464 714.5 1508 c 128,-1,37
 814 1552 814 1552 914 1552 c 0,38,39
 1001 1552 1001 1552 1058.5 1535.5 c 128,-1,40
 1116 1519 1116 1519 1149 1490 c 0,41,42
 1179 1463 1179 1463 1189.5 1429.5 c 128,-1,43
 1200 1396 1200 1396 1200 1363 c 0,44,45
 1200 1341 1200 1341 1191.5 1314 c 128,-1,46
 1183 1287 1183 1287 1165 1265 c 1,47,48
 1143 1240 1143 1240 1118.5 1226 c 128,-1,49
 1094 1212 1094 1212 1047 1212 c 0,50,51
 993 1212 993 1212 954 1240.5 c 128,-1,52
 915 1269 915 1269 888 1308 c 0,53,54
 859 1349 859 1349 839 1396 c 128,-1,55
 819 1443 819 1443 806 1471 c 1,56,57
 765 1424 765 1424 732 1334 c 128,-1,58
 699 1244 699 1244 664 1086 c 2,59,-1
 639 971 l 1,60,-1
 892 971 l 1,61,-1
 868 868 l 1,62,-1
 620 868 l 1,0,1
EndSplineSet
EndChar

StartChar: g
Encoding: 103 103 74
Width: 1330
Flags: W
LayerCount: 2
Fore
SplineSet
750 105 m 1,0,-1
 742 105 l 1,1,2
 717 85 717 85 684 62 c 128,-1,3
 651 39 651 39 613 22 c 1,4,5
 567 0 567 0 527 -11.5 c 128,-1,6
 487 -23 487 -23 426 -23 c 0,7,8
 252 -23 252 -23 158.5 79 c 128,-1,9
 65 181 65 181 65 359 c 0,10,11
 65 494 65 494 113 612.5 c 128,-1,12
 161 731 161 731 243 822 c 0,13,14
 324 911 324 911 434.5 963 c 128,-1,15
 545 1015 545 1015 668 1015 c 0,16,17
 758 1015 758 1015 827 996 c 128,-1,18
 896 977 896 977 946 937 c 1,19,-1
 1251 1000 l 1,20,-1
 1265 984 l 1,21,-1
 1095 171 l 1,22,23
 1055 -11 1055 -11 984 -129.5 c 128,-1,24
 913 -248 913 -248 819 -318 c 0,25,26
 723 -389 723 -389 618.5 -416.5 c 128,-1,27
 514 -444 514 -444 399 -444 c 0,28,29
 276 -444 276 -444 198.5 -425.5 c 128,-1,30
 121 -407 121 -407 80 -378 c 0,31,32
 40 -350 40 -350 25.5 -315.5 c 128,-1,33
 11 -281 11 -281 11 -248 c 0,34,35
 11 -191 11 -191 51.5 -145.5 c 128,-1,36
 92 -100 92 -100 164 -100 c 0,37,38
 218 -100 218 -100 260.5 -129 c 128,-1,39
 303 -158 303 -158 335 -199 c 0,40,41
 364 -236 364 -236 389 -284.5 c 128,-1,42
 414 -333 414 -333 427 -363 c 1,43,44
 473 -355 473 -355 518.5 -337 c 128,-1,45
 564 -319 564 -319 606 -269 c 0,46,47
 646 -221 646 -221 682.5 -136 c 128,-1,48
 719 -51 719 -51 750 105 c 1,0,-1
884 760 m 1,49,50
 884 785 884 785 877.5 811.5 c 128,-1,51
 871 838 871 838 852 862 c 0,52,53
 833 887 833 887 805 901.5 c 128,-1,54
 777 916 777 916 729 916 c 0,55,56
 664 916 664 916 609 869.5 c 128,-1,57
 554 823 554 823 512 745 c 0,58,59
 471 668 471 668 447 565.5 c 128,-1,60
 423 463 423 463 423 354 c 0,61,62
 423 306 423 306 431.5 265.5 c 128,-1,63
 440 225 440 225 461 193 c 256,64,65
 482 161 482 161 515.5 145 c 128,-1,66
 549 129 549 129 591 129 c 0,67,68
 640 129 640 129 691.5 159 c 128,-1,69
 743 189 743 189 774 223 c 1,70,-1
 884 760 l 1,49,50
EndSplineSet
EndChar

StartChar: h
Encoding: 104 104 75
Width: 1383
Flags: W
LayerCount: 2
Fore
SplineSet
1354 151 m 1,0,-1
 1332 63 l 1,1,2
 1233 24 1233 24 1174 3.5 c 128,-1,3
 1115 -17 1115 -17 1037 -17 c 0,4,5
 918 -17 918 -17 851.5 42.5 c 128,-1,6
 785 102 785 102 785 190 c 0,7,8
 785 218 785 218 787.5 252 c 128,-1,9
 790 286 790 286 805 345 c 2,10,-1
 877 611 l 2,11,12
 888 654 888 654 893.5 688.5 c 128,-1,13
 899 723 899 723 899 745 c 0,14,15
 899 793 899 793 876 820 c 128,-1,16
 853 847 853 847 798 847 c 0,17,18
 764 847 764 847 701 820.5 c 128,-1,19
 638 794 638 794 560 722 c 1,20,-1
 395 0 l 1,21,-1
 64 0 l 1,22,-1
 358 1273 l 2,23,24
 362 1290 362 1290 364 1305 c 128,-1,25
 366 1320 366 1320 366 1330 c 0,26,27
 366 1366 366 1366 354 1387 c 128,-1,28
 342 1408 342 1408 318 1421 c 256,29,30
 294 1434 294 1434 263 1439 c 128,-1,31
 232 1444 232 1444 191 1448 c 1,32,-1
 209 1522 l 1,33,-1
 736 1548 l 1,34,-1
 747 1532 l 1,35,-1
 587 840 l 1,36,-1
 594 840 l 1,37,38
 687 922 687 922 787 968.5 c 128,-1,39
 887 1015 887 1015 1002 1015 c 0,40,41
 1113 1015 1113 1015 1175.5 954 c 128,-1,42
 1238 893 1238 893 1238 806 c 0,43,44
 1238 783 1238 783 1234.5 741.5 c 128,-1,45
 1231 700 1231 700 1218 653 c 2,46,-1
 1142 372 l 2,47,48
 1132 337 1132 337 1124 292 c 128,-1,49
 1116 247 1116 247 1116 224 c 0,50,51
 1116 166 1116 166 1141.5 144 c 128,-1,52
 1167 122 1167 122 1231 122 c 0,53,54
 1261 122 1261 122 1299 132.5 c 128,-1,55
 1337 143 1337 143 1354 151 c 1,0,-1
EndSplineSet
EndChar

StartChar: i
Encoding: 105 105 76
Width: 749
Flags: W
LayerCount: 2
Fore
SplineSet
713 143 m 1,0,-1
 691 53 l 1,1,2
 592 14 592 14 533 -6.5 c 128,-1,3
 474 -27 474 -27 396 -27 c 0,4,5
 276 -27 276 -27 209.5 31.5 c 128,-1,6
 143 90 143 90 143 180 c 0,7,8
 143 215 143 215 148 251.5 c 128,-1,9
 153 288 153 288 164 334 c 1,10,-1
 246 626 l 2,11,12
 257 668 257 668 264.5 705.5 c 128,-1,13
 272 743 272 743 272 774 c 0,14,15
 272 830 272 830 249 852 c 128,-1,16
 226 874 226 874 161 874 c 0,17,18
 129 874 129 874 95.5 864 c 128,-1,19
 62 854 62 854 38 845 c 1,20,-1
 60 935 l 1,21,22
 141 968 141 968 215 991.5 c 128,-1,23
 289 1015 289 1015 355 1015 c 0,24,25
 474 1015 474 1015 538.5 957.5 c 128,-1,26
 603 900 603 900 603 808 c 0,27,28
 603 789 603 789 598.5 741 c 128,-1,29
 594 693 594 693 582 653 c 2,30,-1
 500 362 l 2,31,32
 490 327 490 327 482 282 c 128,-1,33
 474 237 474 237 474 214 c 0,34,35
 474 156 474 156 500 135 c 128,-1,36
 526 114 526 114 590 114 c 0,37,38
 620 114 620 114 658 124.5 c 128,-1,39
 696 135 696 135 713 143 c 1,0,-1
734 1364 m 256,40,41
 734 1288 734 1288 676.5 1234.5 c 128,-1,42
 619 1181 619 1181 538 1181 c 256,43,44
 457 1181 457 1181 399 1234.5 c 128,-1,45
 341 1288 341 1288 341 1364 c 256,46,47
 341 1440 341 1440 399 1494 c 128,-1,48
 457 1548 457 1548 538 1548 c 256,49,50
 619 1548 619 1548 676.5 1494 c 128,-1,51
 734 1440 734 1440 734 1364 c 256,40,41
EndSplineSet
EndChar

StartChar: j
Encoding: 106 106 77
Width: 747
Flags: W
LayerCount: 2
Fore
SplineSet
627 808 m 0,0,1
 627 789 627 789 625 756 c 128,-1,2
 623 723 623 723 615 683 c 0,3,4
 571 453 571 453 553 359 c 128,-1,5
 535 265 535 265 482 60 c 0,6,7
 455 -42 455 -42 401 -131 c 128,-1,8
 347 -220 347 -220 267 -292 c 0,9,10
 184 -366 184 -366 98.5 -405 c 128,-1,11
 13 -444 13 -444 -93 -444 c 0,12,13
 -183 -444 -183 -444 -238.5 -426 c 128,-1,14
 -294 -408 -294 -408 -325 -380 c 256,15,16
 -356 -352 -356 -352 -367 -318 c 128,-1,17
 -378 -284 -378 -284 -378 -251 c 0,18,19
 -378 -192 -378 -192 -336 -148 c 128,-1,20
 -294 -104 -294 -104 -225 -104 c 0,21,22
 -171 -104 -171 -104 -131.5 -132.5 c 128,-1,23
 -92 -161 -92 -161 -64 -201 c 0,24,25
 -36 -240 -36 -240 -14.5 -288 c 128,-1,26
 7 -336 7 -336 19 -363 c 1,27,28
 52 -305 52 -305 83.5 -214.5 c 128,-1,29
 115 -124 115 -124 148 22 c 0,30,31
 189 203 189 203 220.5 359 c 128,-1,32
 252 515 252 515 279 659 c 0,33,34
 283 682 283 682 288.5 715 c 128,-1,35
 294 748 294 748 294 774 c 0,36,37
 294 824 294 824 269 849 c 128,-1,38
 244 874 244 874 180 874 c 0,39,40
 147 874 147 874 112 863.5 c 128,-1,41
 77 853 77 853 52 845 c 1,42,-1
 74 935 l 1,43,44
 155 968 155 968 233.5 991.5 c 128,-1,45
 312 1015 312 1015 378 1015 c 0,46,47
 497 1015 497 1015 562 957.5 c 128,-1,48
 627 900 627 900 627 808 c 0,0,1
742 1364 m 256,49,50
 742 1288 742 1288 684.5 1234.5 c 128,-1,51
 627 1181 627 1181 546 1181 c 256,52,53
 465 1181 465 1181 407 1234.5 c 128,-1,54
 349 1288 349 1288 349 1364 c 256,55,56
 349 1440 349 1440 407 1494 c 128,-1,57
 465 1548 465 1548 546 1548 c 256,58,59
 627 1548 627 1548 684.5 1494 c 128,-1,60
 742 1440 742 1440 742 1364 c 256,49,50
EndSplineSet
EndChar

StartChar: k
Encoding: 107 107 78
Width: 1313
Flags: W
LayerCount: 2
Fore
SplineSet
1297 858 m 0,0,1
 1297 787 1297 787 1245.5 732 c 128,-1,2
 1194 677 1194 677 1118 677 c 0,3,4
 1055 677 1055 677 1001 705.5 c 128,-1,5
 947 734 947 734 906 765 c 1,6,7
 886 752 886 752 867 739.5 c 128,-1,8
 848 727 848 727 788 675 c 1,9,10
 834 559 834 559 889 420 c 128,-1,11
 944 281 944 281 972 228 c 0,12,13
 1005 165 1005 165 1034.5 139 c 128,-1,14
 1064 113 1064 113 1138 113 c 0,15,16
 1164 113 1164 113 1203 123 c 128,-1,17
 1242 133 1242 133 1267 143 c 1,18,-1
 1245 53 l 1,19,20
 1146 11 1146 11 1072 -8 c 128,-1,21
 998 -27 998 -27 940 -27 c 0,22,23
 912 -27 912 -27 869.5 -23 c 128,-1,24
 827 -19 827 -19 796 -5 c 0,25,26
 757 13 757 13 724.5 45 c 128,-1,27
 692 77 692 77 661 147 c 0,28,29
 617 246 617 246 598.5 298.5 c 128,-1,30
 580 351 580 351 547 441 c 1,31,-1
 481 379 l 1,32,-1
 395 0 l 1,33,-1
 64 0 l 1,34,-1
 358 1273 l 2,35,36
 362 1290 362 1290 364 1305 c 128,-1,37
 366 1320 366 1320 366 1330 c 0,38,39
 366 1366 366 1366 354 1387 c 128,-1,40
 342 1408 342 1408 318 1421 c 256,41,42
 294 1434 294 1434 263 1439 c 128,-1,43
 232 1444 232 1444 191 1448 c 1,44,-1
 209 1522 l 1,45,-1
 736 1548 l 1,46,-1
 747 1532 l 1,47,-1
 507 492 l 1,48,-1
 515 492 l 1,49,50
 635 627 635 627 704.5 698.5 c 128,-1,51
 774 770 774 770 855 849 c 0,52,53
 953 944 953 944 1011.5 979.5 c 128,-1,54
 1070 1015 1070 1015 1141 1015 c 0,55,56
 1213 1015 1213 1015 1255 975 c 128,-1,57
 1297 935 1297 935 1297 858 c 0,0,1
EndSplineSet
EndChar

StartChar: l
Encoding: 108 108 79
Width: 726
Flags: W
LayerCount: 2
Fore
SplineSet
746 1532 m 1,0,-1
 477 362 l 2,1,2
 470 333 470 333 460.5 285 c 128,-1,3
 451 237 451 237 451 214 c 0,4,5
 451 156 451 156 480 135 c 128,-1,6
 509 114 509 114 576 114 c 0,7,8
 601 114 601 114 644 124.5 c 128,-1,9
 687 135 687 135 705 143 c 1,10,-1
 683 53 l 1,11,12
 584 14 584 14 521 -6.5 c 128,-1,13
 458 -27 458 -27 378 -27 c 0,14,15
 258 -27 258 -27 189 31.5 c 128,-1,16
 120 90 120 90 120 180 c 0,17,18
 120 217 120 217 126.5 257 c 128,-1,19
 133 297 133 297 141 334 c 2,20,-1
 357 1273 l 2,21,22
 361 1290 361 1290 363 1305 c 128,-1,23
 365 1320 365 1320 365 1330 c 0,24,25
 365 1366 365 1366 353 1387 c 128,-1,26
 341 1408 341 1408 317 1421 c 256,27,28
 293 1434 293 1434 262 1439 c 128,-1,29
 231 1444 231 1444 190 1448 c 1,30,-1
 208 1522 l 1,31,-1
 735 1548 l 1,32,-1
 746 1532 l 1,0,-1
EndSplineSet
EndChar

StartChar: m
Encoding: 109 109 80
Width: 2052
Flags: W
LayerCount: 2
Fore
SplineSet
2023 153 m 1,0,-1
 2001 63 l 1,1,2
 1902 24 1902 24 1843 3.5 c 128,-1,3
 1784 -17 1784 -17 1706 -17 c 0,4,5
 1587 -17 1587 -17 1521 42.5 c 128,-1,6
 1455 102 1455 102 1455 190 c 0,7,8
 1455 214 1455 214 1457.5 251.5 c 128,-1,9
 1460 289 1460 289 1474 345 c 1,10,-1
 1546 611 l 2,11,12
 1557 654 1557 654 1562.5 688.5 c 128,-1,13
 1568 723 1568 723 1568 745 c 0,14,15
 1568 793 1568 793 1544 820 c 128,-1,16
 1520 847 1520 847 1466 847 c 0,17,18
 1428 847 1428 847 1369.5 813 c 128,-1,19
 1311 779 1311 779 1251 722 c 1,20,-1
 1086 0 l 1,21,-1
 755 0 l 1,22,-1
 895 610 l 2,23,24
 906 660 906 660 911.5 691 c 128,-1,25
 917 722 917 722 917 745 c 0,26,27
 917 793 917 793 893 820 c 128,-1,28
 869 847 869 847 814 847 c 0,29,30
 783 847 783 847 728 822 c 128,-1,31
 673 797 673 797 590 722 c 1,32,-1
 425 0 l 1,33,-1
 94 0 l 1,34,-1
 236 615 l 2,35,36
 242 643 242 643 251.5 689 c 128,-1,37
 261 735 261 735 261 763 c 0,38,39
 261 820 261 820 239 841.5 c 128,-1,40
 217 863 217 863 152 863 c 0,41,42
 120 863 120 863 86.5 853 c 128,-1,43
 53 843 53 843 29 834 c 1,44,-1
 51 924 l 1,45,46
 132 957 132 957 206 980.5 c 128,-1,47
 280 1004 280 1004 346 1004 c 0,48,49
 468 1004 468 1004 522 954.5 c 128,-1,50
 576 905 576 905 598 827 c 1,51,-1
 605 827 l 1,52,53
 705 919 705 919 798 967 c 128,-1,54
 891 1015 891 1015 1012 1015 c 0,55,56
 1115 1015 1115 1015 1181 960 c 128,-1,57
 1247 905 1247 905 1254 824 c 1,58,-1
 1261 824 l 1,59,60
 1368 916 1368 916 1460 965.5 c 128,-1,61
 1552 1015 1552 1015 1670 1015 c 0,62,63
 1781 1015 1781 1015 1844 954 c 128,-1,64
 1907 893 1907 893 1907 806 c 0,65,66
 1907 783 1907 783 1903.5 741.5 c 128,-1,67
 1900 700 1900 700 1887 653 c 2,68,-1
 1811 372 l 2,69,70
 1801 337 1801 337 1793 292 c 128,-1,71
 1785 247 1785 247 1785 224 c 0,72,73
 1785 166 1785 166 1810.5 145 c 128,-1,74
 1836 124 1836 124 1900 124 c 0,75,76
 1930 124 1930 124 1968 134.5 c 128,-1,77
 2006 145 2006 145 2023 153 c 1,0,-1
EndSplineSet
EndChar

StartChar: n
Encoding: 110 110 81
Width: 1413
Flags: W
LayerCount: 2
Fore
SplineSet
1384 153 m 1,0,-1
 1362 63 l 1,1,2
 1263 24 1263 24 1204 3.5 c 128,-1,3
 1145 -17 1145 -17 1067 -17 c 0,4,5
 948 -17 948 -17 882 42.5 c 128,-1,6
 816 102 816 102 816 190 c 0,7,8
 816 214 816 214 818.5 251.5 c 128,-1,9
 821 289 821 289 835 345 c 1,10,-1
 907 611 l 2,11,12
 918 654 918 654 923.5 688.5 c 128,-1,13
 929 723 929 723 929 745 c 0,14,15
 929 793 929 793 906 820 c 128,-1,16
 883 847 883 847 828 847 c 0,17,18
 794 847 794 847 731 820.5 c 128,-1,19
 668 794 668 794 590 722 c 1,20,-1
 425 0 l 1,21,-1
 94 0 l 1,22,-1
 236 615 l 2,23,24
 242 643 242 643 251.5 688 c 128,-1,25
 261 733 261 733 261 763 c 0,26,27
 261 820 261 820 237.5 841.5 c 128,-1,28
 214 863 214 863 152 863 c 0,29,30
 120 863 120 863 86.5 853 c 128,-1,31
 53 843 53 843 29 834 c 1,32,-1
 51 924 l 1,33,34
 132 957 132 957 206 980.5 c 128,-1,35
 280 1004 280 1004 346 1004 c 0,36,37
 464 1004 464 1004 522.5 957.5 c 128,-1,38
 581 911 581 911 600 827 c 1,39,-1
 607 827 l 1,40,41
 705 916 705 916 809.5 965.5 c 128,-1,42
 914 1015 914 1015 1032 1015 c 0,43,44
 1143 1015 1143 1015 1205.5 954 c 128,-1,45
 1268 893 1268 893 1268 806 c 0,46,47
 1268 783 1268 783 1264.5 741.5 c 128,-1,48
 1261 700 1261 700 1248 653 c 2,49,-1
 1172 372 l 2,50,51
 1162 337 1162 337 1154 292 c 128,-1,52
 1146 247 1146 247 1146 224 c 0,53,54
 1146 166 1146 166 1171.5 145 c 128,-1,55
 1197 124 1197 124 1261 124 c 0,56,57
 1291 124 1291 124 1329 134.5 c 128,-1,58
 1367 145 1367 145 1384 153 c 1,0,-1
EndSplineSet
EndChar

StartChar: o
Encoding: 111 111 82
Width: 1302
Flags: W
LayerCount: 2
Fore
SplineSet
1235 599 m 0,0,1
 1235 473 1235 473 1187 358 c 128,-1,2
 1139 243 1139 243 1051 158 c 0,3,4
 956 67 956 67 828.5 17.5 c 128,-1,5
 701 -32 701 -32 542 -32 c 0,6,7
 329 -32 329 -32 198 81.5 c 128,-1,8
 67 195 67 195 67 391 c 0,9,10
 67 524 67 524 116.5 638 c 128,-1,11
 166 752 166 752 255 837 c 0,12,13
 343 920 343 920 471 968.5 c 128,-1,14
 599 1017 599 1017 748 1017 c 0,15,16
 974 1017 974 1017 1104.5 906.5 c 128,-1,17
 1235 796 1235 796 1235 599 c 0,0,1
883 712 m 0,18,19
 883 829 883 829 843.5 884 c 128,-1,20
 804 939 804 939 729 939 c 0,21,22
 652 939 652 939 588 877.5 c 128,-1,23
 524 816 524 816 484 697 c 1,24,25
 449 598 449 598 434 482.5 c 128,-1,26
 419 367 419 367 419 276 c 0,27,28
 419 155 419 155 459 100.5 c 128,-1,29
 499 46 499 46 575 46 c 0,30,31
 657 46 657 46 717 113 c 128,-1,32
 777 180 777 180 812 278 c 0,33,34
 847 374 847 374 865 490.5 c 128,-1,35
 883 607 883 607 883 712 c 0,18,19
EndSplineSet
EndChar

StartChar: p
Encoding: 112 112 83
Width: 1357
Flags: W
LayerCount: 2
Fore
SplineSet
1292 632 m 0,0,1
 1292 498 1292 498 1244.5 376.5 c 128,-1,2
 1197 255 1197 255 1115 166 c 0,3,4
 1030 74 1030 74 924 24 c 128,-1,5
 818 -26 818 -26 690 -26 c 0,6,7
 594 -26 594 -26 535.5 -7.5 c 128,-1,8
 477 11 477 11 434 45 c 1,9,-1
 373 -221 l 2,10,11
 370 -233 370 -233 367 -249.5 c 128,-1,12
 364 -266 364 -266 364 -273 c 0,13,14
 364 -296 364 -296 374 -315 c 128,-1,15
 384 -334 384 -334 404 -343 c 0,16,17
 426 -353 426 -353 475 -362.5 c 128,-1,18
 524 -372 524 -372 556 -374 c 1,19,-1
 540 -444 l 1,20,-1
 -182 -444 l 1,21,-1
 -166 -374 l 1,22,23
 -140 -372 -140 -372 -101 -366.5 c 128,-1,24
 -62 -361 -62 -361 -42 -355 c 0,25,26
 -8 -344 -8 -344 10 -320.5 c 128,-1,27
 28 -297 28 -297 36 -257 c 1,28,-1
 234 615 l 2,29,30
 240 644 240 644 249.5 689 c 128,-1,31
 259 734 259 734 259 763 c 0,32,33
 259 816 259 816 237 839.5 c 128,-1,34
 215 863 215 863 150 863 c 0,35,36
 120 863 120 863 85 853 c 128,-1,37
 50 843 50 843 27 834 c 1,38,-1
 49 924 l 1,39,40
 130 957 130 957 204 980.5 c 128,-1,41
 278 1004 278 1004 344 1004 c 0,42,43
 399 1004 399 1004 441 993.5 c 128,-1,44
 483 983 483 983 515 960 c 0,45,46
 542 941 542 941 559.5 914 c 128,-1,47
 577 887 577 887 589 859 c 1,48,-1
 597 859 l 1,49,50
 689 939 689 939 776 977 c 128,-1,51
 863 1015 863 1015 943 1015 c 0,52,53
 1117 1015 1117 1015 1204.5 912.5 c 128,-1,54
 1292 810 1292 810 1292 632 c 0,0,1
847 238 m 0,55,56
 890 325 890 325 912 421 c 128,-1,57
 934 517 934 517 934 636 c 0,58,59
 934 685 934 685 927 726.5 c 128,-1,60
 920 768 920 768 902 798 c 0,61,62
 884 829 884 829 853.5 846 c 128,-1,63
 823 863 823 863 777 863 c 0,64,65
 724 863 724 863 673 830 c 128,-1,66
 622 797 622 797 598 768 c 1,67,-1
 474 219 l 1,68,69
 474 150 474 150 514 104.5 c 128,-1,70
 554 59 554 59 629 59 c 0,71,72
 691 59 691 59 748.5 107 c 128,-1,73
 806 155 806 155 847 238 c 0,55,56
EndSplineSet
EndChar

StartChar: q
Encoding: 113 113 84
Width: 1331
Flags: W
LayerCount: 2
Fore
SplineSet
732 98 m 1,0,-1
 724 98 l 1,1,2
 705 84 705 84 669 58.5 c 128,-1,3
 633 33 633 33 600 17 c 0,4,5
 561 -3 561 -3 515 -17 c 128,-1,6
 469 -31 469 -31 415 -31 c 0,7,8
 241 -31 241 -31 153 71.5 c 128,-1,9
 65 174 65 174 65 352 c 0,10,11
 65 489 65 489 113 609 c 128,-1,12
 161 729 161 729 243 820 c 0,13,14
 324 910 324 910 435 962.5 c 128,-1,15
 546 1015 546 1015 668 1015 c 0,16,17
 763 1015 763 1015 828.5 996.5 c 128,-1,18
 894 978 894 978 945 937 c 1,19,-1
 1251 1000 l 1,20,-1
 1265 984 l 1,21,-1
 988 -221 l 2,22,23
 985 -234 985 -234 982 -250.5 c 128,-1,24
 979 -267 979 -267 979 -273 c 0,25,26
 979 -296 979 -296 989 -315 c 128,-1,27
 999 -334 999 -334 1019 -343 c 0,28,29
 1041 -353 1041 -353 1087.5 -362.5 c 128,-1,30
 1134 -372 1134 -372 1166 -374 c 1,31,-1
 1150 -444 l 1,32,-1
 428 -444 l 1,33,-1
 444 -374 l 1,34,35
 469 -372 469 -372 511 -366.5 c 128,-1,36
 553 -361 553 -361 572 -355 c 0,37,38
 607 -343 607 -343 625 -319.5 c 128,-1,39
 643 -296 643 -296 651 -257 c 2,40,-1
 732 98 l 1,0,-1
883 760 m 1,41,42
 883 785 883 785 876.5 811.5 c 128,-1,43
 870 838 870 838 851 862 c 0,44,45
 832 887 832 887 804 901.5 c 128,-1,46
 776 916 776 916 728 916 c 0,47,48
 662 916 662 916 607 869 c 128,-1,49
 552 822 552 822 510 742 c 0,50,51
 469 663 469 663 446 558 c 128,-1,52
 423 453 423 453 423 348 c 0,53,54
 423 299 423 299 430.5 257 c 128,-1,55
 438 215 438 215 455 186 c 0,56,57
 473 155 473 155 503.5 138 c 128,-1,58
 534 121 534 121 580 121 c 0,59,60
 630 121 630 121 679.5 152 c 128,-1,61
 729 183 729 183 758 216 c 1,62,-1
 883 760 l 1,41,42
EndSplineSet
EndChar

StartChar: r
Encoding: 114 114 85
Width: 1093
Flags: W
LayerCount: 2
Fore
SplineSet
1106 807 m 0,0,1
 1106 762 1106 762 1093 720 c 128,-1,2
 1080 678 1080 678 1054 648 c 0,3,4
 1025 614 1025 614 993 597.5 c 128,-1,5
 961 581 961 581 903 581 c 0,6,7
 828 581 828 581 785 618 c 128,-1,8
 742 655 742 655 742 701 c 0,9,10
 742 744 742 744 754.5 775 c 128,-1,11
 767 806 767 806 794 869 c 1,12,13
 727 841 727 841 679 800.5 c 128,-1,14
 631 760 631 760 587 708 c 1,15,-1
 429 0 l 1,16,-1
 98 0 l 1,17,-1
 236 615 l 2,18,19
 242 643 242 643 251.5 688 c 128,-1,20
 261 733 261 733 261 763 c 0,21,22
 261 821 261 821 238.5 842 c 128,-1,23
 216 863 216 863 152 863 c 0,24,25
 120 863 120 863 86.5 853 c 128,-1,26
 53 843 53 843 29 834 c 1,27,-1
 51 924 l 1,28,29
 132 957 132 957 206 980.5 c 128,-1,30
 280 1004 280 1004 346 1004 c 0,31,32
 464 1004 464 1004 522.5 957.5 c 128,-1,33
 581 911 581 911 600 827 c 1,34,-1
 607 827 l 1,35,36
 706 932 706 932 775 973.5 c 128,-1,37
 844 1015 844 1015 923 1015 c 0,38,39
 1008 1015 1008 1015 1057 961.5 c 128,-1,40
 1106 908 1106 908 1106 807 c 0,0,1
EndSplineSet
EndChar

StartChar: s
Encoding: 115 115 86
Width: 1059
Flags: W
LayerCount: 2
Fore
SplineSet
435 -33 m 0,0,1
 309 -33 309 -33 226.5 -12.5 c 128,-1,2
 144 8 144 8 96 40 c 0,3,4
 47 72 47 72 29 108.5 c 128,-1,5
 11 145 11 145 11 177 c 0,6,7
 11 235 11 235 54.5 278.5 c 128,-1,8
 98 322 98 322 170 322 c 0,9,10
 230 322 230 322 270.5 291 c 128,-1,11
 311 260 311 260 338 213 c 0,12,13
 363 170 363 170 380 118 c 128,-1,14
 397 66 397 66 404 41 c 1,15,16
 517 41 517 41 575 89.5 c 128,-1,17
 633 138 633 138 633 222 c 0,18,19
 633 259 633 259 615.5 284 c 128,-1,20
 598 309 598 309 569 328 c 0,21,22
 540 346 540 346 495 363 c 128,-1,23
 450 380 450 380 406 395 c 0,24,25
 285 436 285 436 214.5 508.5 c 128,-1,26
 144 581 144 581 144 689 c 0,27,28
 144 753 144 753 173.5 809.5 c 128,-1,29
 203 866 203 866 266 914 c 0,30,31
 328 960 328 960 423 987.5 c 128,-1,32
 518 1015 518 1015 645 1015 c 0,33,34
 721 1015 721 1015 786 1006 c 128,-1,35
 851 997 851 997 907 973 c 1,36,37
 960 949 960 949 989.5 910.5 c 128,-1,38
 1019 872 1019 872 1019 817 c 256,39,40
 1019 762 1019 762 977.5 722.5 c 128,-1,41
 936 683 936 683 869 683 c 0,42,43
 811 683 811 683 772.5 713 c 128,-1,44
 734 743 734 743 710 784 c 0,45,46
 686 826 686 826 672 870.5 c 128,-1,47
 658 915 658 915 649 945 c 1,48,49
 579 941 579 941 521.5 894.5 c 128,-1,50
 464 848 464 848 464 779 c 0,51,52
 464 737 464 737 477.5 713 c 128,-1,53
 491 689 491 689 514 673 c 0,54,55
 540 655 540 655 579.5 639.5 c 128,-1,56
 619 624 619 624 678 604 c 0,57,58
 814 556 814 556 883 489 c 128,-1,59
 952 422 952 422 952 312 c 0,60,61
 952 240 952 240 918.5 174 c 128,-1,62
 885 108 885 108 823 64 c 0,63,64
 754 16 754 16 664 -8.5 c 128,-1,65
 574 -33 574 -33 435 -33 c 0,0,1
EndSplineSet
EndChar

StartChar: t
Encoding: 116 116 87
Width: 854
Flags: W
LayerCount: 2
Fore
SplineSet
408 -26 m 0,0,1
 288 -26 288 -26 216 32.5 c 128,-1,2
 144 91 144 91 144 181 c 0,3,4
 144 218 144 218 149 251 c 128,-1,5
 154 284 154 284 165 336 c 1,6,-1
 289 868 l 1,7,-1
 106 868 l 1,8,-1
 130 971 l 1,9,-1
 317 971 l 1,10,-1
 389 1274 l 1,11,-1
 713 1274 l 1,12,-1
 643 971 l 1,13,-1
 914 971 l 1,14,-1
 890 868 l 1,15,-1
 620 868 l 1,16,-1
 498 336 l 2,17,18
 491 308 491 308 484.5 268 c 128,-1,19
 478 228 478 228 478 216 c 0,20,21
 478 159 478 159 509.5 137 c 128,-1,22
 541 115 541 115 606 115 c 0,23,24
 637 115 637 115 691.5 127 c 128,-1,25
 746 139 746 139 768 147 c 1,26,-1
 746 57 l 1,27,28
 658 18 658 18 569.5 -4 c 128,-1,29
 481 -26 481 -26 408 -26 c 0,0,1
EndSplineSet
EndChar

StartChar: u
Encoding: 117 117 88
Width: 1403
Flags: W
LayerCount: 2
Fore
SplineSet
803 159 m 1,0,-1
 796 159 l 1,1,2
 691 63 691 63 596 17 c 128,-1,3
 501 -29 501 -29 376 -29 c 0,4,5
 265 -29 265 -29 204.5 32 c 128,-1,6
 144 93 144 93 144 180 c 0,7,8
 144 211 144 211 147.5 243 c 128,-1,9
 151 275 151 275 166 333 c 2,10,-1
 241 614 l 2,11,12
 248 642 248 642 257.5 690.5 c 128,-1,13
 267 739 267 739 267 762 c 0,14,15
 267 817 267 817 244.5 839.5 c 128,-1,16
 222 862 222 862 157 862 c 0,17,18
 125 862 125 862 91.5 852 c 128,-1,19
 58 842 58 842 34 833 c 1,20,-1
 56 923 l 1,21,22
 137 956 137 956 211 979.5 c 128,-1,23
 285 1003 285 1003 351 1003 c 0,24,25
 470 1003 470 1003 534.5 943.5 c 128,-1,26
 599 884 599 884 599 796 c 0,27,28
 599 778 599 778 595 730 c 128,-1,29
 591 682 591 682 579 641 c 2,30,-1
 506 375 l 2,31,32
 496 340 496 340 490 299.5 c 128,-1,33
 484 259 484 259 484 241 c 0,34,35
 484 194 484 194 506 166.5 c 128,-1,36
 528 139 528 139 582 139 c 0,37,38
 621 139 621 139 685.5 171.5 c 128,-1,39
 750 204 750 204 813 264 c 1,40,-1
 978 986 l 1,41,-1
 1297 1000 l 1,42,-1
 1309 986 l 1,43,-1
 1167 371 l 2,44,45
 1160 342 1160 342 1150.5 294 c 128,-1,46
 1141 246 1141 246 1141 223 c 0,47,48
 1141 165 1141 165 1166.5 144 c 128,-1,49
 1192 123 1192 123 1256 123 c 0,50,51
 1286 123 1286 123 1324 133.5 c 128,-1,52
 1362 144 1362 144 1379 152 c 1,53,-1
 1357 62 l 1,54,55
 1258 23 1258 23 1199 2.5 c 128,-1,56
 1140 -18 1140 -18 1062 -18 c 0,57,58
 952 -18 952 -18 886 31.5 c 128,-1,59
 820 81 820 81 803 159 c 1,0,-1
EndSplineSet
EndChar

StartChar: v
Encoding: 118 118 89
Width: 1254
Flags: W
LayerCount: 2
Fore
SplineSet
1209 766 m 0,0,1
 1209 625 1209 625 1161.5 480 c 128,-1,2
 1114 335 1114 335 1028 223 c 0,3,4
 926 92 926 92 802 30 c 128,-1,5
 678 -32 678 -32 544 -32 c 0,6,7
 366 -32 366 -32 261 51 c 128,-1,8
 156 134 156 134 156 289 c 0,9,10
 156 337 156 337 172 392 c 128,-1,11
 188 447 188 447 212 521 c 0,12,13
 232 584 232 584 249.5 645.5 c 128,-1,14
 267 707 267 707 267 762 c 0,15,16
 267 816 267 816 243 839 c 128,-1,17
 219 862 219 862 157 862 c 0,18,19
 125 862 125 862 91.5 852 c 128,-1,20
 58 842 58 842 34 833 c 1,21,-1
 56 923 l 1,22,23
 137 956 137 956 211 979.5 c 128,-1,24
 285 1003 285 1003 351 1003 c 0,25,26
 470 1003 470 1003 534.5 943.5 c 128,-1,27
 599 884 599 884 599 796 c 0,28,29
 599 731 599 731 581.5 658 c 128,-1,30
 564 585 564 585 545 527 c 0,31,32
 528 475 528 475 509.5 407.5 c 128,-1,33
 491 340 491 340 491 300 c 0,34,35
 491 215 491 215 532 164 c 128,-1,36
 573 113 573 113 664 113 c 0,37,38
 800 113 800 113 900 214.5 c 128,-1,39
 1000 316 1000 316 1000 488 c 0,40,41
 1000 505 1000 505 998 525 c 128,-1,42
 996 545 996 545 990 570 c 1,43,44
 979 593 979 593 947 619 c 128,-1,45
 915 645 915 645 893 667 c 0,46,47
 864 696 864 696 842 735.5 c 128,-1,48
 820 775 820 775 820 838 c 0,49,50
 820 891 820 891 840.5 924 c 128,-1,51
 861 957 861 957 890 978 c 0,52,53
 914 995 914 995 947.5 1005 c 128,-1,54
 981 1015 981 1015 1010 1015 c 0,55,56
 1103 1015 1103 1015 1156 948.5 c 128,-1,57
 1209 882 1209 882 1209 766 c 0,0,1
EndSplineSet
EndChar

StartChar: w
Encoding: 119 119 90
Width: 1912
Flags: W
LayerCount: 2
Fore
SplineSet
1867 766 m 0,0,1
 1867 620 1867 620 1819 476.5 c 128,-1,2
 1771 333 1771 333 1685 223 c 0,3,4
 1596 109 1596 109 1473 38.5 c 128,-1,5
 1350 -32 1350 -32 1192 -32 c 0,6,7
 1046 -32 1046 -32 955.5 25 c 128,-1,8
 865 82 865 82 832 189 c 1,9,10
 725 72 725 72 622 21.5 c 128,-1,11
 519 -29 519 -29 396 -29 c 0,12,13
 280 -29 280 -29 213 43 c 128,-1,14
 146 115 146 115 146 224 c 0,15,16
 146 264 146 264 154 299.5 c 128,-1,17
 162 335 162 335 173 377 c 1,18,-1
 241 614 l 2,19,20
 248 642 248 642 257.5 690.5 c 128,-1,21
 267 739 267 739 267 762 c 0,22,23
 267 815 267 815 244.5 838.5 c 128,-1,24
 222 862 222 862 157 862 c 0,25,26
 125 862 125 862 91.5 852 c 128,-1,27
 58 842 58 842 34 833 c 1,28,-1
 56 923 l 1,29,30
 137 956 137 956 211 979.5 c 128,-1,31
 285 1003 285 1003 351 1003 c 0,32,33
 470 1003 470 1003 534.5 943.5 c 128,-1,34
 599 884 599 884 599 793 c 0,35,36
 599 760 599 760 589 698.5 c 128,-1,37
 579 637 579 637 567 599 c 2,38,-1
 509 405 l 2,39,40
 499 374 499 374 491.5 327.5 c 128,-1,41
 484 281 484 281 484 261 c 0,42,43
 484 204 484 204 515.5 171.5 c 128,-1,44
 547 139 547 139 589 139 c 0,45,46
 602 139 602 139 627 142.5 c 128,-1,47
 652 146 652 146 679 159 c 0,48,49
 707 172 707 172 747.5 200.5 c 128,-1,50
 788 229 788 229 826 272 c 1,51,52
 826 290 826 290 830.5 324.5 c 128,-1,53
 835 359 835 359 844 407 c 1,54,-1
 976 986 l 1,55,-1
 1295 1000 l 1,56,-1
 1307 986 l 1,57,-1
 1175 413 l 2,58,59
 1172 401 1172 401 1166.5 362.5 c 128,-1,60
 1161 324 1161 324 1161 283 c 0,61,62
 1161 197 1161 197 1202.5 156 c 128,-1,63
 1244 115 1244 115 1325 115 c 0,64,65
 1461 115 1461 115 1559.5 216.5 c 128,-1,66
 1658 318 1658 318 1658 488 c 0,67,68
 1658 505 1658 505 1656 525 c 128,-1,69
 1654 545 1654 545 1648 570 c 1,70,71
 1637 593 1637 593 1607 617 c 128,-1,72
 1577 641 1577 641 1551 666 c 0,73,74
 1522 695 1522 695 1500 736.5 c 128,-1,75
 1478 778 1478 778 1478 838 c 0,76,77
 1478 888 1478 888 1497.5 922 c 128,-1,78
 1517 956 1517 956 1548 978 c 0,79,80
 1571 995 1571 995 1606 1005 c 128,-1,81
 1641 1015 1641 1015 1668 1015 c 0,82,83
 1764 1015 1764 1015 1815.5 947 c 128,-1,84
 1867 879 1867 879 1867 766 c 0,0,1
EndSplineSet
EndChar

StartChar: x
Encoding: 120 120 91
Width: 1195
Flags: W
LayerCount: 2
Fore
SplineSet
1218 866 m 0,0,1
 1218 779 1218 779 1162.5 727.5 c 128,-1,2
 1107 676 1107 676 1027 676 c 0,3,4
 979 676 979 676 932.5 688 c 128,-1,5
 886 700 886 700 852 712 c 1,6,7
 836 701 836 701 805 664 c 128,-1,8
 774 627 774 627 735 574 c 1,9,10
 771 421 771 421 793 356.5 c 128,-1,11
 815 292 815 292 835 226 c 0,12,13
 852 173 852 173 885 143 c 128,-1,14
 918 113 918 113 989 113 c 0,15,16
 1015 113 1015 113 1054 123 c 128,-1,17
 1093 133 1093 133 1118 143 c 1,18,-1
 1096 53 l 1,19,20
 997 11 997 11 923 -8 c 128,-1,21
 849 -27 849 -27 791 -27 c 0,22,23
 749 -27 749 -27 708 -19 c 128,-1,24
 667 -11 667 -11 633 10 c 0,25,26
 596 32 596 32 570.5 65 c 128,-1,27
 545 98 545 98 527 157 c 0,28,29
 515 194 515 194 505 241 c 128,-1,30
 495 288 495 288 485 324 c 1,31,32
 456 281 456 281 443 260 c 128,-1,33
 430 239 430 239 405 201 c 0,34,35
 326 80 326 80 268 28.5 c 128,-1,36
 210 -23 210 -23 129 -23 c 0,37,38
 68 -23 68 -23 25 18 c 128,-1,39
 -18 59 -18 59 -18 125 c 0,40,41
 -18 214 -18 214 37.5 265.5 c 128,-1,42
 93 317 93 317 173 317 c 0,43,44
 221 317 221 317 265 305.5 c 128,-1,45
 309 294 309 294 348 280 c 1,46,47
 363 292 363 292 394.5 327 c 128,-1,48
 426 362 426 362 463 414 c 1,49,50
 430 548 430 548 409 616 c 128,-1,51
 388 684 388 684 366 751 c 0,52,53
 348 805 348 805 314 834.5 c 128,-1,54
 280 864 280 864 212 864 c 0,55,56
 182 864 182 864 145 853.5 c 128,-1,57
 108 843 108 843 83 834 c 1,58,-1
 105 924 l 1,59,60
 195 964 195 964 275.5 984 c 128,-1,61
 356 1004 356 1004 410 1004 c 0,62,63
 459 1004 459 1004 494 997 c 128,-1,64
 529 990 529 990 568 967 c 0,65,66
 604 945 604 945 630.5 911.5 c 128,-1,67
 657 878 657 878 674 820 c 0,68,69
 686 780 686 780 696 737 c 128,-1,70
 706 694 706 694 713 663 c 1,71,72
 734 695 734 695 756.5 729 c 128,-1,73
 779 763 779 763 795 789 c 0,74,75
 872 910 872 910 933 962.5 c 128,-1,76
 994 1015 994 1015 1071 1015 c 0,77,78
 1134 1015 1134 1015 1176 973.5 c 128,-1,79
 1218 932 1218 932 1218 866 c 0,0,1
EndSplineSet
EndChar

StartChar: y
Encoding: 121 121 92
Width: 1371
Flags: W
LayerCount: 2
Fore
SplineSet
803 160 m 1,0,-1
 796 160 l 1,1,2
 683 57 683 57 588 17 c 128,-1,3
 493 -23 493 -23 378 -23 c 0,4,5
 267 -23 267 -23 205.5 39 c 128,-1,6
 144 101 144 101 144 188 c 0,7,8
 144 219 144 219 147.5 251 c 128,-1,9
 151 283 151 283 166 341 c 2,10,-1
 241 614 l 2,11,12
 248 642 248 642 257.5 690.5 c 128,-1,13
 267 739 267 739 267 762 c 0,14,15
 267 819 267 819 244.5 840.5 c 128,-1,16
 222 862 222 862 157 862 c 0,17,18
 125 862 125 862 91.5 852 c 128,-1,19
 58 842 58 842 34 833 c 1,20,-1
 56 923 l 1,21,22
 137 956 137 956 211 979.5 c 128,-1,23
 285 1003 285 1003 351 1003 c 0,24,25
 470 1003 470 1003 534.5 943.5 c 128,-1,26
 599 884 599 884 599 796 c 0,27,28
 599 778 599 778 595 730 c 128,-1,29
 591 682 591 682 579 641 c 2,30,-1
 506 381 l 2,31,32
 496 346 496 346 490 306 c 128,-1,33
 484 266 484 266 484 248 c 0,34,35
 484 198 484 198 508.5 172 c 128,-1,36
 533 146 533 146 586 146 c 0,37,38
 630 146 630 146 697.5 179.5 c 128,-1,39
 765 213 765 213 822 269 c 1,40,-1
 974 986 l 1,41,-1
 1291 1000 l 1,42,-1
 1305 984 l 1,43,-1
 1130 171 l 2,44,45
 1090 -11 1090 -11 1018 -129.5 c 128,-1,46
 946 -248 946 -248 851 -318 c 0,47,48
 760 -385 760 -385 654 -414.5 c 128,-1,49
 548 -444 548 -444 439 -444 c 0,50,51
 320 -444 320 -444 241.5 -426.5 c 128,-1,52
 163 -409 163 -409 119 -378 c 0,53,54
 79 -350 79 -350 64.5 -315.5 c 128,-1,55
 50 -281 50 -281 50 -248 c 0,56,57
 50 -190 50 -190 91 -145 c 128,-1,58
 132 -100 132 -100 203 -100 c 0,59,60
 257 -100 257 -100 299.5 -129 c 128,-1,61
 342 -158 342 -158 374 -199 c 0,62,63
 405 -238 405 -238 429.5 -285.5 c 128,-1,64
 454 -333 454 -333 467 -363 c 1,65,66
 485 -360 485 -360 511.5 -350.5 c 128,-1,67
 538 -341 538 -341 556 -329 c 0,68,69
 582 -312 582 -312 602 -295 c 128,-1,70
 622 -278 622 -278 648 -243 c 0,71,72
 698 -176 698 -176 737 -77 c 128,-1,73
 776 22 776 22 803 160 c 1,0,-1
EndSplineSet
EndChar

StartChar: z
Encoding: 122 122 93
Width: 1059
Flags: W
LayerCount: 2
Fore
SplineSet
1084 986 m 1,0,-1
 1069 914 l 1,1,-1
 361 84 l 1,2,3
 397 83 397 83 433.5 82.5 c 128,-1,4
 470 82 470 82 518 82 c 0,5,6
 554 82 554 82 590.5 83 c 128,-1,7
 627 84 627 84 687 89 c 0,8,9
 726 93 726 93 755 117 c 128,-1,10
 784 141 784 141 802 174 c 0,11,12
 816 199 816 199 851.5 257.5 c 128,-1,13
 887 316 887 316 908 363 c 1,14,-1
 978 363 l 1,15,-1
 907 0 l 1,16,-1
 -27 0 l 1,17,-1
 -9 83 l 1,18,-1
 688 902 l 1,19,-1
 570 902 l 2,20,21
 483 902 483 902 445.5 899 c 128,-1,22
 408 896 408 896 359 878 c 0,23,24
 325 865 325 865 280 804 c 128,-1,25
 235 743 235 743 203 668 c 1,26,-1
 132 668 l 1,27,-1
 194 986 l 1,28,-1
 1084 986 l 1,0,-1
EndSplineSet
EndChar

StartChar: braceleft
Encoding: 123 123 94
Width: 1024
Flags: W
LayerCount: 2
Fore
SplineSet
777 -333 m 1,0,1
 667 -333 667 -333 562 -322.5 c 128,-1,2
 457 -312 457 -312 392 -285 c 1,3,4
 323 -255 323 -255 285 -199.5 c 128,-1,5
 247 -144 247 -144 247 -51 c 0,6,7
 247 -28 247 -28 250 -4.5 c 128,-1,8
 253 19 253 19 257 47 c 0,9,10
 265 96 265 96 285 171.5 c 128,-1,11
 305 247 305 247 314 301 c 0,12,13
 318 326 318 326 320 343.5 c 128,-1,14
 322 361 322 361 322 378 c 0,15,16
 322 454 322 454 273 490 c 128,-1,17
 224 526 224 526 72 537 c 1,18,-1
 106 687 l 1,19,20
 174 692 174 692 242 703 c 128,-1,21
 310 714 310 714 354 737 c 0,22,23
 402 762 402 762 435.5 805.5 c 128,-1,24
 469 849 469 849 481 923 c 0,25,26
 491 982 491 982 496 1037.5 c 128,-1,27
 501 1093 501 1093 511 1157 c 0,28,29
 531 1279 531 1279 586 1353.5 c 128,-1,30
 641 1428 641 1428 727 1470 c 256,31,32
 813 1512 813 1512 928 1524.5 c 128,-1,33
 1043 1537 1043 1537 1170 1537 c 1,34,-1
 1155 1454 l 1,35,36
 1099 1450 1099 1450 1059 1444 c 128,-1,37
 1019 1438 1019 1438 973 1412 c 0,38,39
 930 1388 930 1388 902.5 1346 c 128,-1,40
 875 1304 875 1304 859 1221 c 1,41,-1
 825 1031 l 2,42,43
 805 924 805 924 759 854.5 c 128,-1,44
 713 785 713 785 648 742 c 0,45,46
 584 700 584 700 508.5 676.5 c 128,-1,47
 433 653 433 653 358 640 c 1,48,-1
 340 564 l 1,49,50
 487 533 487 533 553 463 c 128,-1,51
 619 393 619 393 619 281 c 0,52,53
 619 258 619 258 616.5 229 c 128,-1,54
 614 200 614 200 608 173 c 2,55,-1
 568 -17 l 2,56,57
 565 -31 565 -31 564 -47.5 c 128,-1,58
 563 -64 563 -64 563 -77 c 0,59,60
 563 -134 563 -134 583.5 -166.5 c 128,-1,61
 604 -199 604 -199 636 -217 c 0,62,63
 668 -234 668 -234 712 -241 c 128,-1,64
 756 -248 756 -248 792 -250 c 1,65,-1
 777 -333 l 1,0,1
EndSplineSet
EndChar

StartChar: bar
Encoding: 124 124 95
Width: 794
Flags: W
LayerCount: 2
Fore
SplineSet
505 -424 m 1,0,-1
 334 -424 l 1,1,-1
 334 1523 l 1,2,-1
 505 1523 l 1,3,-1
 505 -424 l 1,0,-1
EndSplineSet
EndChar

StartChar: braceright
Encoding: 125 125 96
Width: 1024
Flags: W
LayerCount: 2
Fore
SplineSet
976 666 m 1,0,-1
 942 516 l 1,1,2
 857 510 857 510 804 502 c 128,-1,3
 751 494 751 494 694 466 c 0,4,5
 644 441 644 441 612.5 397 c 128,-1,6
 581 353 581 353 567 280 c 0,7,8
 556 221 556 221 552 166 c 128,-1,9
 548 111 548 111 537 46 c 0,10,11
 518 -73 518 -73 464 -149.5 c 128,-1,12
 410 -226 410 -226 322 -267 c 256,13,14
 234 -308 234 -308 125.5 -321 c 128,-1,15
 17 -334 17 -334 -122 -334 c 1,16,-1
 -107 -251 l 1,17,18
 -59 -248 -59 -248 -11 -240 c 128,-1,19
 37 -232 37 -232 76 -209 c 256,20,21
 115 -186 115 -186 145.5 -141 c 128,-1,22
 176 -96 176 -96 189 -18 c 2,23,-1
 223 172 l 2,24,25
 242 280 242 280 288.5 348 c 128,-1,26
 335 416 335 416 400 461 c 0,27,28
 460 502 460 502 539 525 c 128,-1,29
 618 548 618 548 690 563 c 1,30,-1
 708 639 l 1,31,32
 647 652 647 652 596.5 673.5 c 128,-1,33
 546 695 546 695 509 727 c 0,34,35
 470 762 470 762 449.5 809.5 c 128,-1,36
 429 857 429 857 429 922 c 0,37,38
 429 952 429 952 432 978 c 128,-1,39
 435 1004 435 1004 440 1030 c 2,40,-1
 480 1220 l 2,41,42
 483 1235 483 1235 484 1250.5 c 128,-1,43
 485 1266 485 1266 485 1280 c 0,44,45
 485 1336 485 1336 465 1369 c 128,-1,46
 445 1402 445 1402 412 1420 c 0,47,48
 382 1436 382 1436 338.5 1443 c 128,-1,49
 295 1450 295 1450 256 1453 c 1,50,-1
 271 1536 l 1,51,52
 394 1536 394 1536 490 1526.5 c 128,-1,53
 586 1517 586 1517 656 1488 c 1,54,55
 725 1458 725 1458 763 1402.5 c 128,-1,56
 801 1347 801 1347 801 1254 c 0,57,58
 801 1235 801 1235 798.5 1207.5 c 128,-1,59
 796 1180 796 1180 791 1156 c 0,60,61
 781 1100 781 1100 764 1036 c 128,-1,62
 747 972 747 972 734 902 c 0,63,64
 730 879 730 879 728 859.5 c 128,-1,65
 726 840 726 840 726 825 c 0,66,67
 726 737 726 737 788 704.5 c 128,-1,68
 850 672 850 672 976 666 c 1,0,-1
EndSplineSet
EndChar

StartChar: asciitilde
Encoding: 126 126 97
Width: 1440
Flags: W
LayerCount: 2
Fore
SplineSet
1317 735 m 1,0,1
 1297 680 1297 680 1263.5 622 c 128,-1,2
 1230 564 1230 564 1189 519 c 0,3,4
 1138 463 1138 463 1078.5 429.5 c 128,-1,5
 1019 396 1019 396 952 396 c 0,6,7
 876 396 876 396 813.5 422.5 c 128,-1,8
 751 449 751 449 693 483 c 0,9,10
 647 510 647 510 587 540.5 c 128,-1,11
 527 571 527 571 480 571 c 0,12,13
 414 571 414 571 365 523.5 c 128,-1,14
 316 476 316 476 271 372 c 1,15,-1
 167 414 l 1,16,17
 182 458 182 458 214.5 517 c 128,-1,18
 247 576 247 576 295 630 c 0,19,20
 340 681 340 681 401.5 717 c 128,-1,21
 463 753 463 753 532 753 c 0,22,23
 614 753 614 753 677.5 724.5 c 128,-1,24
 741 696 741 696 793 665 c 0,25,26
 846 633 846 633 897.5 605.5 c 128,-1,27
 949 578 949 578 1004 578 c 0,28,29
 1074 578 1074 578 1123 630.5 c 128,-1,30
 1172 683 1172 683 1213 777 c 1,31,-1
 1317 735 l 1,0,1
EndSplineSet
EndChar

StartChar: Aring
Encoding: 197 197 99
Width: 1553
Flags: W
LayerCount: 2
Fore
SplineSet
892 571 m 1,0,-1
 805 1088 l 1,1,-1
 481 571 l 1,2,-1
 892 571 l 1,0,-1
732 0 m 1,3,-1
 749 73 l 1,4,5
 852 81 852 81 909.5 98.5 c 128,-1,6
 967 116 967 116 967 137 c 0,7,8
 967 155 967 155 965 168 c 128,-1,9
 963 181 963 181 960 198 c 2,10,-1
 910 477 l 1,11,-1
 421 477 l 1,12,13
 397 440 397 440 360.5 379.5 c 128,-1,14
 324 319 324 319 299 276 c 0,15,16
 261 208 261 208 254.5 183 c 128,-1,17
 248 158 248 158 248 151 c 0,18,19
 248 121 248 121 295 101.5 c 128,-1,20
 342 82 342 82 439 73 c 1,21,-1
 422 0 l 1,22,-1
 -174 0 l 1,23,-1
 -157 73 l 1,24,25
 -128 75 -128 75 -84 83 c 128,-1,26
 -40 91 -40 91 -10 107 c 0,27,28
 32 129 32 129 69 164 c 128,-1,29
 106 199 106 199 138 249 c 0,30,31
 341 561 341 561 502 811.5 c 128,-1,32
 663 1062 663 1062 887 1411 c 1,33,34
 804 1426 804 1426 757 1475 c 128,-1,35
 710 1524 710 1524 710 1598 c 0,36,37
 710 1718 710 1718 807 1793 c 128,-1,38
 904 1868 904 1868 1038 1868 c 0,39,40
 1146 1868 1146 1868 1216 1816 c 128,-1,41
 1286 1764 1286 1764 1286 1676 c 0,42,43
 1286 1592 1286 1592 1238 1527.5 c 128,-1,44
 1190 1463 1190 1463 1104 1431 c 1,45,46
 1182 981 1182 981 1231.5 693 c 128,-1,47
 1281 405 1281 405 1319 208 c 0,48,49
 1324 178 1324 178 1338.5 153.5 c 128,-1,50
 1353 129 1353 129 1385 107 c 0,51,52
 1409 91 1409 91 1443.5 83 c 128,-1,53
 1478 75 1478 75 1508 73 c 1,54,-1
 1491 0 l 1,55,-1
 732 0 l 1,3,-1
1134 1678 m 0,56,57
 1134 1730 1134 1730 1106 1764 c 128,-1,58
 1078 1798 1078 1798 1024 1798 c 0,59,60
 951 1798 951 1798 906.5 1742.5 c 128,-1,61
 862 1687 862 1687 862 1599 c 0,62,63
 862 1543 862 1543 889.5 1509 c 128,-1,64
 917 1475 917 1475 973 1475 c 0,65,66
 1048 1475 1048 1475 1091 1532.5 c 128,-1,67
 1134 1590 1134 1590 1134 1678 c 0,56,57
EndSplineSet
EndChar

StartChar: Ccedilla
Encoding: 199 199 100
Width: 1465
Flags: W
LayerCount: 2
Fore
SplineSet
644 -34 m 1,0,1
 520 -21 520 -21 428 17.5 c 128,-1,2
 336 56 336 56 265 119 c 0,3,4
 181 195 181 195 134 304.5 c 128,-1,5
 87 414 87 414 87 552 c 0,6,7
 87 735 87 735 154.5 897 c 128,-1,8
 222 1059 222 1059 345 1186 c 0,9,10
 463 1308 463 1308 633.5 1382.5 c 128,-1,11
 804 1457 804 1457 996 1457 c 0,12,13
 1112 1457 1112 1457 1231 1429 c 128,-1,14
 1350 1401 1350 1401 1409 1364 c 1,15,-1
 1484 1419 l 1,16,-1
 1571 1419 l 1,17,-1
 1460 901 l 1,18,-1
 1372 901 l 1,19,20
 1352 1128 1352 1128 1251.5 1246.5 c 128,-1,21
 1151 1365 1151 1365 993 1365 c 0,22,23
 877 1365 877 1365 779 1296 c 128,-1,24
 681 1227 681 1227 605 1084 c 0,25,26
 543 966 543 966 510.5 810.5 c 128,-1,27
 478 655 478 655 478 519 c 0,28,29
 478 319 478 319 575 208 c 128,-1,30
 672 97 672 97 835 97 c 0,31,32
 978 97 978 97 1100 177 c 128,-1,33
 1222 257 1222 257 1335 408 c 1,34,-1
 1412 356 l 1,35,36
 1363 280 1363 280 1295 206.5 c 128,-1,37
 1227 133 1227 133 1140 79 c 0,38,39
 1052 24 1052 24 959.5 -6.5 c 128,-1,40
 867 -37 867 -37 730 -37 c 1,41,-1
 717 -96 l 1,42,43
 815 -96 815 -96 874 -128.5 c 128,-1,44
 933 -161 933 -161 933 -225 c 0,45,46
 933 -290 933 -290 900 -333 c 128,-1,47
 867 -376 867 -376 805 -400 c 0,48,49
 742 -424 742 -424 654.5 -434 c 128,-1,50
 567 -444 567 -444 440 -444 c 1,51,-1
 458 -366 l 1,52,53
 506 -366 506 -366 560 -365 c 128,-1,54
 614 -364 614 -364 647 -356 c 1,55,56
 686 -348 686 -348 706.5 -329 c 128,-1,57
 727 -310 727 -310 727 -276 c 0,58,59
 727 -244 727 -244 691.5 -233 c 128,-1,60
 656 -222 656 -222 602 -222 c 1,61,-1
 644 -34 l 1,0,1
EndSplineSet
EndChar

StartChar: ccedilla
Encoding: 231 231 111
Width: 1097
Flags: W
LayerCount: 2
Fore
SplineSet
468 -27 m 1,0,1
 276 -7 276 -7 173 107 c 128,-1,2
 70 221 70 221 70 398 c 0,3,4
 70 519 70 519 111 627.5 c 128,-1,5
 152 736 152 736 237 825 c 0,6,7
 316 909 316 909 440 962 c 128,-1,8
 564 1015 564 1015 717 1015 c 0,9,10
 894 1015 894 1015 987.5 950 c 128,-1,11
 1081 885 1081 885 1081 771 c 0,12,13
 1081 740 1081 740 1071 702 c 128,-1,14
 1061 664 1061 664 1041 638 c 0,15,16
 1016 606 1016 606 986.5 589 c 128,-1,17
 957 572 957 572 898 572 c 0,18,19
 820 572 820 572 776.5 610.5 c 128,-1,20
 733 649 733 649 733 691 c 0,21,22
 733 741 733 741 754 790 c 128,-1,23
 775 839 775 839 807 893 c 1,24,25
 798 904 798 904 770.5 920 c 128,-1,26
 743 936 743 936 699 936 c 0,27,28
 582 936 582 936 505 794.5 c 128,-1,29
 428 653 428 653 428 444 c 0,30,31
 428 285 428 285 486.5 203 c 128,-1,32
 545 121 545 121 653 121 c 0,33,34
 763 121 763 121 836.5 163.5 c 128,-1,35
 910 206 910 206 987 309 c 1,36,-1
 1059 248 l 1,37,38
 977 121 977 121 844.5 44.5 c 128,-1,39
 712 -32 712 -32 553 -32 c 1,40,-1
 540 -96 l 1,41,42
 638 -96 638 -96 697 -128.5 c 128,-1,43
 756 -161 756 -161 756 -225 c 0,44,45
 756 -290 756 -290 723 -333 c 128,-1,46
 690 -376 690 -376 628 -400 c 0,47,48
 565 -424 565 -424 477.5 -434 c 128,-1,49
 390 -444 390 -444 263 -444 c 1,50,-1
 281 -366 l 1,51,52
 329 -366 329 -366 383 -365 c 128,-1,53
 437 -364 437 -364 470 -356 c 1,54,55
 509 -348 509 -348 529.5 -329 c 128,-1,56
 550 -310 550 -310 550 -276 c 0,57,58
 550 -244 550 -244 514.5 -233 c 128,-1,59
 479 -222 479 -222 425 -222 c 1,60,-1
 468 -27 l 1,0,1
EndSplineSet
EndChar

StartChar: icircumflex
Encoding: 238 238 118
Width: 749
Flags: W
LayerCount: 2
Fore
SplineSet
713 143 m 1,0,-1
 691 53 l 1,1,2
 592 14 592 14 533 -6.5 c 128,-1,3
 474 -27 474 -27 396 -27 c 0,4,5
 276 -27 276 -27 209.5 31.5 c 128,-1,6
 143 90 143 90 143 180 c 0,7,8
 143 215 143 215 148 251.5 c 128,-1,9
 153 288 153 288 164 334 c 1,10,-1
 246 626 l 2,11,12
 257 668 257 668 264.5 705.5 c 128,-1,13
 272 743 272 743 272 774 c 0,14,15
 272 830 272 830 249 852 c 128,-1,16
 226 874 226 874 161 874 c 0,17,18
 129 874 129 874 95.5 864 c 128,-1,19
 62 854 62 854 38 845 c 1,20,-1
 60 935 l 1,21,22
 141 968 141 968 215 991.5 c 128,-1,23
 289 1015 289 1015 355 1015 c 0,24,25
 474 1015 474 1015 538.5 957.5 c 128,-1,26
 603 900 603 900 603 808 c 0,27,28
 603 789 603 789 598.5 741 c 128,-1,29
 594 693 594 693 582 653 c 2,30,-1
 500 362 l 2,31,32
 490 327 490 327 482 282 c 128,-1,33
 474 237 474 237 474 214 c 0,34,35
 474 156 474 156 500 135 c 128,-1,36
 526 114 526 114 590 114 c 0,37,38
 620 114 620 114 658 124.5 c 128,-1,39
 696 135 696 135 713 143 c 1,0,-1
746 1132 m 1,40,-1
 692 1103 l 1,41,-1
 447 1357 l 1,42,-1
 106 1103 l 1,43,-1
 55 1132 l 1,44,45
 145 1250 145 1250 213.5 1340 c 128,-1,46
 282 1430 282 1430 323 1487 c 0,47,48
 347 1521 347 1521 382.5 1534.5 c 128,-1,49
 418 1548 418 1548 472 1548 c 0,50,51
 530 1548 530 1548 555.5 1533 c 128,-1,52
 581 1518 581 1518 596 1488 c 0,53,54
 624 1431 624 1431 659 1344.5 c 128,-1,55
 694 1258 694 1258 746 1132 c 1,40,-1
EndSplineSet
EndChar

StartChar: idieresis
Encoding: 239 239 119
Width: 749
Flags: W
LayerCount: 2
Fore
SplineSet
713 143 m 1,0,-1
 691 53 l 1,1,2
 592 14 592 14 533 -6.5 c 128,-1,3
 474 -27 474 -27 396 -27 c 0,4,5
 276 -27 276 -27 209.5 31.5 c 128,-1,6
 143 90 143 90 143 180 c 0,7,8
 143 215 143 215 148 251.5 c 128,-1,9
 153 288 153 288 164 334 c 1,10,-1
 246 626 l 2,11,12
 257 668 257 668 264.5 705.5 c 128,-1,13
 272 743 272 743 272 774 c 0,14,15
 272 830 272 830 249 852 c 128,-1,16
 226 874 226 874 161 874 c 0,17,18
 129 874 129 874 95.5 864 c 128,-1,19
 62 854 62 854 38 845 c 1,20,-1
 60 935 l 1,21,22
 141 968 141 968 215 991.5 c 128,-1,23
 289 1015 289 1015 355 1015 c 0,24,25
 474 1015 474 1015 538.5 957.5 c 128,-1,26
 603 900 603 900 603 808 c 0,27,28
 603 789 603 789 598.5 741 c 128,-1,29
 594 693 594 693 582 653 c 2,30,-1
 500 362 l 2,31,32
 490 327 490 327 482 282 c 128,-1,33
 474 237 474 237 474 214 c 0,34,35
 474 156 474 156 500 135 c 128,-1,36
 526 114 526 114 590 114 c 0,37,38
 620 114 620 114 658 124.5 c 128,-1,39
 696 135 696 135 713 143 c 1,0,-1
842 1349 m 256,40,41
 842 1282 842 1282 795.5 1232.5 c 128,-1,42
 749 1183 749 1183 685 1183 c 0,43,44
 619 1183 619 1183 573 1233 c 128,-1,45
 527 1283 527 1283 527 1349 c 0,46,47
 527 1416 527 1416 573 1465.5 c 128,-1,48
 619 1515 619 1515 685 1515 c 0,49,50
 749 1515 749 1515 795.5 1465.5 c 128,-1,51
 842 1416 842 1416 842 1349 c 256,40,41
383 1349 m 256,52,53
 383 1282 383 1282 336 1232.5 c 128,-1,54
 289 1183 289 1183 225 1183 c 0,55,56
 160 1183 160 1183 114 1232 c 128,-1,57
 68 1281 68 1281 68 1349 c 0,58,59
 68 1416 68 1416 113.5 1465.5 c 128,-1,60
 159 1515 159 1515 225 1515 c 0,61,62
 289 1515 289 1515 336 1465.5 c 128,-1,63
 383 1416 383 1416 383 1349 c 256,52,53
EndSplineSet
EndChar

StartChar: dagger
Encoding: 8224 8224 130
Width: 987
Flags: W
LayerCount: 2
Fore
SplineSet
987 991.5 m 128,-1,1
 953 966 953 966 908 966 c 0,2,3
 881 966 881 966 817.5 985.5 c 128,-1,4
 754 1005 754 1005 652 1018 c 1,5,6
 607 753 607 753 574 528.5 c 128,-1,7
 541 304 541 304 535 279 c 0,8,9
 525 238 525 238 504 213.5 c 128,-1,10
 483 189 483 189 435 189 c 0,11,12
 400 189 400 189 376 207.5 c 128,-1,13
 352 226 352 226 352 256 c 0,14,15
 352 265 352 265 357 283.5 c 128,-1,16
 362 302 362 302 376 351 c 0,17,18
 409 461 409 461 458.5 620 c 128,-1,19
 508 779 508 779 576 1018 c 1,20,21
 494 1009 494 1009 405 987.5 c 128,-1,22
 316 966 316 966 296 966 c 0,23,24
 263 966 263 966 243 987.5 c 128,-1,25
 223 1009 223 1009 223 1039 c 0,26,27
 223 1093 223 1093 257.5 1116.5 c 128,-1,28
 292 1140 292 1140 337 1140 c 0,29,30
 357 1140 357 1140 427.5 1118.5 c 128,-1,31
 498 1097 498 1097 590 1084 c 1,32,33
 601 1186 601 1186 600 1262.5 c 128,-1,34
 599 1339 599 1339 604 1365 c 0,35,36
 612 1403 612 1403 640 1429 c 128,-1,37
 668 1455 668 1455 708 1455 c 0,38,39
 746 1455 746 1455 768.5 1437.5 c 128,-1,40
 791 1420 791 1420 791 1390 c 0,41,42
 791 1372 791 1372 782 1347.5 c 128,-1,43
 773 1323 773 1323 755 1287 c 0,44,45
 737 1249 737 1249 713 1196.5 c 128,-1,46
 689 1144 689 1144 668 1084 c 1,47,48
 776 1097 776 1097 848.5 1118.5 c 128,-1,49
 921 1140 921 1140 949 1140 c 0,50,51
 982 1140 982 1140 1001.5 1120.5 c 128,-1,52
 1021 1101 1021 1101 1021 1068 c 0,53,0
 1021 1017 1021 1017 987 991.5 c 128,-1,1
EndSplineSet
EndChar

StartChar: degree
Encoding: 176 176 131
Width: 860
Flags: W
LayerCount: 2
Fore
SplineSet
855 1129 m 256,0,1
 855 989 855 989 759.5 893.5 c 128,-1,2
 664 798 664 798 511 798 c 256,3,4
 358 798 358 798 263 894.5 c 128,-1,5
 168 991 168 991 168 1129 c 0,6,7
 168 1272 168 1272 265.5 1366 c 128,-1,8
 363 1460 363 1460 511 1460 c 0,9,10
 663 1460 663 1460 759 1364.5 c 128,-1,11
 855 1269 855 1269 855 1129 c 256,0,1
675 1121 m 0,12,13
 675 1243 675 1243 630 1306 c 128,-1,14
 585 1369 585 1369 510 1369 c 0,15,16
 433 1369 433 1369 390.5 1303.5 c 128,-1,17
 348 1238 348 1238 348 1132 c 0,18,19
 348 1017 348 1017 391 952.5 c 128,-1,20
 434 888 434 888 514 888 c 0,21,22
 582 888 582 888 628.5 949.5 c 128,-1,23
 675 1011 675 1011 675 1121 c 0,12,13
EndSplineSet
EndChar

StartChar: cent
Encoding: 162 162 132
Width: 1240
Flags: W
LayerCount: 2
Fore
SplineSet
1124 262 m 1,0,1
 1089 214 1089 214 1046.5 166.5 c 128,-1,2
 1004 119 1004 119 951 82 c 0,3,4
 900 47 900 47 835 20 c 128,-1,5
 770 -7 770 -7 682 -19 c 1,6,-1
 621 -299 l 1,7,-1
 522 -299 l 1,8,-1
 583 -21 l 1,9,10
 360 -18 360 -18 237 88 c 128,-1,11
 114 194 114 194 114 386 c 0,12,13
 114 634 114 634 306.5 820.5 c 128,-1,14
 499 1007 499 1007 812 1021 c 1,15,-1
 869 1276 l 1,16,-1
 968 1276 l 1,17,-1
 911 1020 l 1,18,19
 986 1013 986 1013 1038.5 992 c 128,-1,20
 1091 971 1091 971 1124 945 c 0,21,22
 1154 921 1154 921 1171 890 c 128,-1,23
 1188 859 1188 859 1188 829 c 0,24,25
 1188 761 1188 761 1136 710.5 c 128,-1,26
 1084 660 1084 660 989 660 c 0,27,28
 947 660 947 660 906.5 694.5 c 128,-1,29
 866 729 866 729 862 796 c 1,30,-1
 713 118 l 1,31,32
 823 118 823 118 903 166.5 c 128,-1,33
 983 215 983 215 1059 314 c 1,34,-1
 1124 262 l 1,0,1
618 135 m 1,35,-1
 794 938 l 1,36,37
 743 932 743 932 687.5 899 c 128,-1,38
 632 866 632 866 581 801 c 0,39,40
 532 737 532 737 500 639.5 c 128,-1,41
 468 542 468 542 468 413 c 0,42,43
 468 300 468 300 509.5 231 c 128,-1,44
 551 162 551 162 618 135 c 1,35,-1
EndSplineSet
EndChar

StartChar: sterling
Encoding: 163 163 133
Width: 1413
Flags: W
LayerCount: 2
Fore
SplineSet
1021 1372 m 0,0,1
 1000 1372 1000 1372 972.5 1365 c 128,-1,2
 945 1358 945 1358 906 1325 c 0,3,4
 872 1295 872 1295 841.5 1239.5 c 128,-1,5
 811 1184 811 1184 790 1085 c 0,6,7
 776 1018 776 1018 761 913 c 128,-1,8
 746 808 746 808 731 739 c 1,9,-1
 1125 739 l 1,10,-1
 1100 628 l 1,11,-1
 716 628 l 1,12,13
 668 481 668 481 597.5 410.5 c 128,-1,14
 527 340 527 340 406 281 c 1,15,-1
 406 265 l 1,16,-1
 1241 265 l 1,17,-1
 1180 0 l 1,18,-1
 9 0 l 1,19,-1
 53 188 l 1,20,21
 152 219 152 219 212 265 c 128,-1,22
 272 311 272 311 305 370 c 0,23,24
 338 428 338 428 353 493.5 c 128,-1,25
 368 559 368 559 374 628 c 1,26,-1
 174 628 l 1,27,-1
 199 739 l 1,28,-1
 389 739 l 1,29,30
 394 778 394 778 404 852 c 128,-1,31
 414 926 414 926 423 983 c 0,32,33
 455 1186 455 1186 635 1323 c 128,-1,34
 815 1460 815 1460 1064 1460 c 0,35,36
 1214 1460 1214 1460 1312.5 1387 c 128,-1,37
 1411 1314 1411 1314 1411 1203 c 0,38,39
 1411 1117 1411 1117 1365 1063.5 c 128,-1,40
 1319 1010 1319 1010 1243 1010 c 0,41,42
 1164 1010 1164 1010 1115.5 1053.5 c 128,-1,43
 1067 1097 1067 1097 1067 1168 c 0,44,45
 1067 1210 1067 1210 1082.5 1261 c 128,-1,46
 1098 1312 1098 1312 1115 1359 c 1,47,48
 1096 1367 1096 1367 1071 1369.5 c 128,-1,49
 1046 1372 1046 1372 1021 1372 c 0,0,1
EndSplineSet
EndChar

StartChar: section
Encoding: 167 167 134
Width: 1154
Flags: W
LayerCount: 2
Fore
SplineSet
798 604 m 0,0,1
 798 645 798 645 778.5 677.5 c 128,-1,2
 759 710 759 710 724 737 c 0,3,4
 689 763 689 763 640 788 c 128,-1,5
 591 813 591 813 534 840 c 1,6,7
 475 801 475 801 438 741 c 128,-1,8
 401 681 401 681 401 622 c 0,9,10
 401 578 401 578 422 544 c 128,-1,11
 443 510 443 510 477 484 c 0,12,13
 512 457 512 457 561 432 c 128,-1,14
 610 407 610 407 664 382 c 1,15,16
 736 431 736 431 767 484.5 c 128,-1,17
 798 538 798 538 798 604 c 0,0,1
105 -163 m 1,18,19
 67 -133 67 -133 53 -97 c 128,-1,20
 39 -61 39 -61 39 -31 c 0,21,22
 39 23 39 23 73.5 59 c 128,-1,23
 108 95 108 95 168 95 c 0,24,25
 212 95 212 95 243.5 71.5 c 128,-1,26
 275 48 275 48 297 11 c 1,27,28
 316 -23 316 -23 331 -65.5 c 128,-1,29
 346 -108 346 -108 360 -149 c 1,30,31
 365 -149 365 -149 369 -149.5 c 128,-1,32
 373 -150 373 -150 377 -150 c 0,33,34
 496 -150 496 -150 560 -105 c 128,-1,35
 624 -60 624 -60 624 31 c 0,36,37
 624 68 624 68 606.5 96 c 128,-1,38
 589 124 589 124 553 149 c 0,39,40
 519 173 519 173 467.5 197.5 c 128,-1,41
 416 222 416 222 360 247 c 0,42,43
 244 300 244 300 187.5 368 c 128,-1,44
 131 436 131 436 131 527 c 0,45,46
 131 648 131 648 205.5 730 c 128,-1,47
 280 812 280 812 458 873 c 1,48,49
 366 915 366 915 327.5 976 c 128,-1,50
 289 1037 289 1037 289 1106 c 0,51,52
 289 1256 289 1256 439 1355 c 128,-1,53
 589 1454 589 1454 816 1454 c 0,54,55
 913 1454 913 1454 979 1435.5 c 128,-1,56
 1045 1417 1045 1417 1084 1385 c 0,57,58
 1119 1356 1119 1356 1133.5 1321.5 c 128,-1,59
 1148 1287 1148 1287 1148 1253 c 0,60,61
 1148 1202 1148 1202 1116 1164.5 c 128,-1,62
 1084 1127 1084 1127 1019 1127 c 0,63,64
 973 1127 973 1127 943 1150.5 c 128,-1,65
 913 1174 913 1174 890 1211 c 1,66,67
 866 1253 866 1253 854.5 1290 c 128,-1,68
 843 1327 843 1327 827 1371 c 1,69,70
 824 1372 824 1372 819 1372 c 128,-1,71
 814 1372 814 1372 811 1372 c 0,72,73
 707 1372 707 1372 636.5 1326 c 128,-1,74
 566 1280 566 1280 566 1193 c 0,75,76
 566 1154 566 1154 585.5 1125 c 128,-1,77
 605 1096 605 1096 640 1073 c 256,78,79
 675 1050 675 1050 731.5 1023.5 c 128,-1,80
 788 997 788 997 838 975 c 0,81,82
 953 923 953 923 1010 855.5 c 128,-1,83
 1067 788 1067 788 1067 696 c 0,84,85
 1067 578 1067 578 992.5 494 c 128,-1,86
 918 410 918 410 740 349 c 1,87,88
 815 316 815 316 858.5 257.5 c 128,-1,89
 902 199 902 199 902 124 c 0,90,91
 902 -27 902 -27 758 -129.5 c 128,-1,92
 614 -232 614 -232 372 -232 c 0,93,94
 272 -232 272 -232 206.5 -212.5 c 128,-1,95
 141 -193 141 -193 105 -163 c 1,18,19
EndSplineSet
EndChar

StartChar: bullet
Encoding: 8226 8226 135
Width: 896
Flags: W
LayerCount: 2
Fore
SplineSet
767 609 m 256,0,1
 767 477 767 477 673.5 383.5 c 128,-1,2
 580 290 580 290 448 290 c 256,3,4
 316 290 316 290 222.5 383.5 c 128,-1,5
 129 477 129 477 129 609 c 256,6,7
 129 741 129 741 222.5 834.5 c 128,-1,8
 316 928 316 928 448 928 c 256,9,10
 580 928 580 928 673.5 834.5 c 128,-1,11
 767 741 767 741 767 609 c 256,0,1
EndSplineSet
EndChar

StartChar: paragraph
Encoding: 182 182 136
Width: 1274
Flags: W
LayerCount: 2
Fore
SplineSet
1413 1419 m 1,0,-1
 1390 1323 l 1,1,-1
 1169 1323 l 1,2,-1
 804 -236 l 1,3,-1
 694 -236 l 1,4,-1
 1060 1323 l 1,5,-1
 887 1323 l 1,6,-1
 522 -236 l 1,7,-1
 412 -236 l 1,8,-1
 626 664 l 1,9,-1
 588 664 l 2,10,11
 470 664 470 664 392.5 696.5 c 128,-1,12
 315 729 315 729 272 779 c 0,13,14
 228 830 228 830 212 888.5 c 128,-1,15
 196 947 196 947 196 1002 c 0,16,17
 196 1085 196 1085 229.5 1157.5 c 128,-1,18
 263 1230 263 1230 328 1291 c 1,19,20
 391 1348 391 1348 485.5 1383.5 c 128,-1,21
 580 1419 580 1419 695 1419 c 2,22,-1
 1413 1419 l 1,0,-1
EndSplineSet
EndChar

StartChar: germandbls
Encoding: 223 223 137
Width: 1343
Flags: W
LayerCount: 2
Fore
SplineSet
294 1017 m 2,0,1
 320 1144 320 1144 374.5 1248 c 128,-1,2
 429 1352 429 1352 545 1431 c 0,3,4
 641 1496 641 1496 735.5 1523 c 128,-1,5
 830 1550 830 1550 935 1550 c 0,6,7
 1012 1550 1012 1550 1088 1533.5 c 128,-1,8
 1164 1517 1164 1517 1220 1485 c 0,9,10
 1279 1451 1279 1451 1313 1402 c 128,-1,11
 1347 1353 1347 1353 1347 1283 c 0,12,13
 1347 1208 1347 1208 1314 1146.5 c 128,-1,14
 1281 1085 1281 1085 1230 1043 c 0,15,16
 1178 1000 1178 1000 1115.5 972 c 128,-1,17
 1053 944 1053 944 992 934 c 1,18,-1
 992 922 l 1,19,20
 1046 911 1046 911 1094.5 888 c 128,-1,21
 1143 865 1143 865 1186 823 c 0,22,23
 1227 782 1227 782 1252.5 725 c 128,-1,24
 1278 668 1278 668 1278 586 c 0,25,26
 1278 340 1278 340 1108.5 164.5 c 128,-1,27
 939 -11 939 -11 709 -11 c 0,28,29
 643 -11 643 -11 576.5 -4 c 128,-1,30
 510 3 510 3 485 9 c 1,31,-1
 503 95 l 1,32,33
 513 93 513 93 537.5 88 c 128,-1,34
 562 83 562 83 591 83 c 0,35,36
 669 83 669 83 731.5 132 c 128,-1,37
 794 181 794 181 836 258 c 1,38,39
 880 341 880 341 902 438 c 128,-1,40
 924 535 924 535 924 644 c 0,41,42
 924 755 924 755 880 819.5 c 128,-1,43
 836 884 836 884 739 884 c 2,44,-1
 711 884 l 1,45,-1
 732 973 l 1,46,-1
 769 973 l 2,47,48
 818 973 818 973 865.5 993 c 128,-1,49
 913 1013 913 1013 950 1055 c 0,50,51
 989 1098 989 1098 1011.5 1156 c 128,-1,52
 1034 1214 1034 1214 1034 1305 c 0,53,54
 1034 1384 1034 1384 1000 1425.5 c 128,-1,55
 966 1467 966 1467 903 1467 c 0,56,57
 801 1467 801 1467 741 1380.5 c 128,-1,58
 681 1294 681 1294 637 1086 c 2,59,-1
 419 60 l 1,60,61
 373 -149 373 -149 200 -296.5 c 128,-1,62
 27 -444 27 -444 -173 -444 c 0,63,64
 -264 -444 -264 -444 -320.5 -426 c 128,-1,65
 -377 -408 -377 -408 -409 -380 c 0,66,67
 -440 -352 -440 -352 -451 -318 c 128,-1,68
 -462 -284 -462 -284 -462 -251 c 0,69,70
 -462 -197 -462 -197 -421.5 -150.5 c 128,-1,71
 -381 -104 -381 -104 -309 -104 c 0,72,73
 -255 -104 -255 -104 -215.5 -132.5 c 128,-1,74
 -176 -161 -176 -161 -148 -201 c 0,75,76
 -120 -240 -120 -240 -98.5 -288 c 128,-1,77
 -77 -336 -77 -336 -65 -363 c 1,78,79
 -20 -313 -20 -313 15.5 -222 c 128,-1,80
 51 -131 51 -131 83 22 c 2,81,-1
 294 1017 l 2,0,1
EndSplineSet
EndChar

StartChar: registered
Encoding: 174 174 138
Width: 1929
Flags: W
LayerCount: 2
Fore
SplineSet
1869 602 m 256,0,1
 1869 236 1869 236 1610 -22.5 c 128,-1,2
 1351 -281 1351 -281 985 -281 c 256,3,4
 619 -281 619 -281 360 -22.5 c 128,-1,5
 101 236 101 236 101 602 c 256,6,7
 101 968 101 968 360 1226.5 c 128,-1,8
 619 1485 619 1485 985 1485 c 256,9,10
 1351 1485 1351 1485 1610 1226.5 c 128,-1,11
 1869 968 1869 968 1869 602 c 256,0,1
1771 602 m 256,12,13
 1771 932 1771 932 1543 1165 c 128,-1,14
 1315 1398 1315 1398 985 1398 c 256,15,16
 655 1398 655 1398 427 1165 c 128,-1,17
 199 932 199 932 199 602 c 256,18,19
 199 272 199 272 427 39 c 128,-1,20
 655 -194 655 -194 985 -194 c 256,21,22
 1315 -194 1315 -194 1543 39 c 128,-1,23
 1771 272 1771 272 1771 602 c 256,12,13
1594 145 m 1,24,-1
 1232 145 l 1,25,26
 1136 292 1136 292 1074.5 375.5 c 128,-1,27
 1013 459 1013 459 928 561 c 1,28,-1
 894 561 l 1,29,-1
 894 292 l 2,30,31
 894 267 894 267 901.5 251.5 c 128,-1,32
 909 236 909 236 937 224 c 0,33,34
 949 219 949 219 972.5 211.5 c 128,-1,35
 996 204 996 204 1014 203 c 1,36,-1
 1014 145 l 1,37,-1
 532 145 l 1,38,-1
 532 203 l 1,39,40
 551 205 551 205 577.5 209.5 c 128,-1,41
 604 214 604 214 619 220 c 0,42,43
 645 231 645 231 653 247.5 c 128,-1,44
 661 264 661 264 661 288 c 2,45,-1
 661 924 l 2,46,47
 661 949 661 949 655 963.5 c 128,-1,48
 649 978 649 978 619 991 c 0,49,50
 600 999 600 999 573.5 1006.5 c 128,-1,51
 547 1014 547 1014 532 1017 c 1,52,-1
 532 1075 l 1,53,-1
 1047 1075 l 2,54,55
 1221 1075 1221 1075 1312 1020.5 c 128,-1,56
 1403 966 1403 966 1403 855 c 0,57,58
 1403 751 1403 751 1342.5 693 c 128,-1,59
 1282 635 1282 635 1178 605 c 1,60,61
 1216 557 1216 557 1270 486.5 c 128,-1,62
 1324 416 1324 416 1405 316 c 0,63,64
 1425 291 1425 291 1460 259 c 128,-1,65
 1495 227 1495 227 1522 217 c 0,66,67
 1534 213 1534 213 1559 208 c 128,-1,68
 1584 203 1584 203 1594 203 c 1,69,-1
 1594 145 l 1,24,-1
1144 836 m 0,70,71
 1144 929 1144 929 1092 967 c 128,-1,72
 1040 1005 1040 1005 944 1005 c 2,73,-1
 894 1005 l 1,74,-1
 894 629 l 1,75,-1
 942 629 l 2,76,77
 1041 629 1041 629 1092.5 679 c 128,-1,78
 1144 729 1144 729 1144 836 c 0,70,71
EndSplineSet
EndChar

StartChar: copyright
Encoding: 169 169 139
Width: 1929
Flags: W
LayerCount: 2
Fore
SplineSet
1869 602 m 256,0,1
 1869 236 1869 236 1610 -22.5 c 128,-1,2
 1351 -281 1351 -281 985 -281 c 256,3,4
 619 -281 619 -281 360 -22.5 c 128,-1,5
 101 236 101 236 101 602 c 256,6,7
 101 968 101 968 360 1226.5 c 128,-1,8
 619 1485 619 1485 985 1485 c 256,9,10
 1351 1485 1351 1485 1610 1226.5 c 128,-1,11
 1869 968 1869 968 1869 602 c 256,0,1
1771 602 m 256,12,13
 1771 932 1771 932 1543 1165 c 128,-1,14
 1315 1398 1315 1398 985 1398 c 256,15,16
 655 1398 655 1398 427 1165 c 128,-1,17
 199 932 199 932 199 602 c 256,18,19
 199 272 199 272 427 39 c 128,-1,20
 655 -194 655 -194 985 -194 c 256,21,22
 1315 -194 1315 -194 1543 39 c 128,-1,23
 1771 272 1771 272 1771 602 c 256,12,13
1413 381 m 1,24,25
 1389 325 1389 325 1352 275.5 c 128,-1,26
 1315 226 1315 226 1261 191 c 0,27,28
 1205 154 1205 154 1144 134.5 c 128,-1,29
 1083 115 1083 115 997 115 c 0,30,31
 896 115 896 115 803 147.5 c 128,-1,32
 710 180 710 180 643 241 c 0,33,34
 575 303 575 303 536 390.5 c 128,-1,35
 497 478 497 478 497 592 c 0,36,37
 497 814 497 814 645.5 955 c 128,-1,38
 794 1096 794 1096 1019 1096 c 0,39,40
 1098 1096 1098 1096 1160.5 1076 c 128,-1,41
 1223 1056 1223 1056 1265 1034 c 1,42,-1
 1300 1085 l 1,43,-1
 1365 1085 l 1,44,-1
 1369 715 l 1,45,-1
 1300 715 l 1,46,47
 1249 871 1249 871 1188 944 c 128,-1,48
 1127 1017 1127 1017 1028 1017 c 0,49,50
 910 1017 910 1017 847 909.5 c 128,-1,51
 784 802 784 802 784 616 c 0,52,53
 784 429 784 429 852 327 c 128,-1,54
 920 225 920 225 1051 225 c 0,55,56
 1151 225 1151 225 1221.5 273 c 128,-1,57
 1292 321 1292 321 1347 417 c 1,58,-1
 1413 381 l 1,24,25
EndSplineSet
EndChar

StartChar: trademark
Encoding: 8482 8482 140
Width: 1940
Flags: W
LayerCount: 2
Fore
SplineSet
2006 733 m 1,0,-1
 1630 733 l 1,1,-1
 1630 789 l 1,2,3
 1652 790 1652 790 1674 793 c 128,-1,4
 1696 796 1696 796 1705 801 c 0,5,6
 1721 810 1721 810 1727 820 c 128,-1,7
 1733 830 1733 830 1733 846 c 2,8,-1
 1733 1286 l 1,9,-1
 1711 1286 l 1,10,-1
 1494 755 l 1,11,-1
 1432 755 l 1,12,-1
 1222 1296 l 1,13,-1
 1200 1296 l 1,14,-1
 1200 939 l 2,15,16
 1200 886 1200 886 1206.5 859 c 128,-1,17
 1213 832 1213 832 1229 817 c 0,18,19
 1237 810 1237 810 1269 800.5 c 128,-1,20
 1301 791 1301 791 1327 789 c 1,21,-1
 1327 733 l 1,22,-1
 1002 733 l 1,23,-1
 1002 789 l 1,24,25
 1018 791 1018 791 1050 796 c 128,-1,26
 1082 801 1082 801 1097 813 c 0,27,28
 1114 826 1114 826 1120 849 c 128,-1,29
 1126 872 1126 872 1126 935 c 2,30,-1
 1126 1270 l 2,31,32
 1126 1294 1126 1294 1118 1310.5 c 128,-1,33
 1110 1327 1110 1327 1097 1338 c 0,34,35
 1082 1350 1082 1350 1059.5 1355.5 c 128,-1,36
 1037 1361 1037 1361 1008 1363 c 1,37,-1
 1008 1419 l 1,38,-1
 1346 1419 l 1,39,-1
 1518 968 l 1,40,-1
 1658 1334 l 2,41,42
 1666 1355 1666 1355 1673 1379.5 c 128,-1,43
 1680 1404 1680 1404 1683 1419 c 1,44,-1
 2006 1419 l 1,45,-1
 2006 1363 l 1,46,47
 1984 1362 1984 1362 1961.5 1359 c 128,-1,48
 1939 1356 1939 1356 1925 1350 c 0,49,50
 1913 1345 1913 1345 1907.5 1334 c 128,-1,51
 1902 1323 1902 1323 1902 1309 c 2,52,-1
 1902 846 l 2,53,54
 1902 833 1902 833 1906 821 c 128,-1,55
 1910 809 1910 809 1925 803 c 0,56,57
 1933 800 1933 800 1960 795 c 128,-1,58
 1987 790 1987 790 2006 789 c 1,59,-1
 2006 733 l 1,0,-1
906 1216 m 1,60,-1
 858 1216 l 1,61,62
 848 1249 848 1249 817.5 1298.5 c 128,-1,63
 787 1348 787 1348 758 1354 c 0,64,65
 748 1356 748 1356 729.5 1357 c 128,-1,66
 711 1358 711 1358 690 1358 c 2,67,-1
 651 1358 l 1,68,-1
 651 850 l 2,69,70
 651 837 651 837 655.5 824 c 128,-1,71
 660 811 660 811 676 805 c 0,72,73
 684 802 684 802 709 795.5 c 128,-1,74
 734 789 734 789 753 789 c 1,75,-1
 753 733 l 1,76,-1
 380 733 l 1,77,-1
 380 789 l 1,78,79
 401 790 401 790 425 794 c 128,-1,80
 449 798 449 798 457 801 c 0,81,82
 473 807 473 807 477.5 819.5 c 128,-1,83
 482 832 482 832 482 844 c 2,84,-1
 482 1358 l 1,85,-1
 453 1358 l 2,86,87
 438 1358 438 1358 414 1357.5 c 128,-1,88
 390 1357 390 1357 375 1354 c 0,89,90
 346 1349 346 1349 315.5 1299 c 128,-1,91
 285 1249 285 1249 275 1216 c 1,92,-1
 227 1216 l 1,93,-1
 227 1419 l 1,94,-1
 906 1419 l 1,95,-1
 906 1216 l 1,60,-1
EndSplineSet
EndChar

StartChar: acute
Encoding: 180 180 141
Width: 1024
Flags: W
LayerCount: 2
Fore
SplineSet
943 1460 m 0,0,1
 943 1415 943 1415 922.5 1387.5 c 128,-1,2
 902 1360 902 1360 857 1331 c 0,3,4
 808 1299 808 1299 702 1240.5 c 128,-1,5
 596 1182 596 1182 462 1101 c 1,6,-1
 420 1139 l 1,7,8
 508 1256 508 1256 556 1325.5 c 128,-1,9
 604 1395 604 1395 639 1444 c 0,10,11
 682 1505 682 1505 721 1526.5 c 128,-1,12
 760 1548 760 1548 818 1548 c 0,13,14
 866 1548 866 1548 904.5 1522 c 128,-1,15
 943 1496 943 1496 943 1460 c 0,0,1
EndSplineSet
EndChar

StartChar: dieresis
Encoding: 168 168 142
Width: 1024
Flags: W
LayerCount: 2
Fore
SplineSet
1056 1349 m 256,0,1
 1056 1282 1056 1282 1009.5 1232.5 c 128,-1,2
 963 1183 963 1183 899 1183 c 0,3,4
 833 1183 833 1183 787 1233 c 128,-1,5
 741 1283 741 1283 741 1349 c 0,6,7
 741 1416 741 1416 787 1465.5 c 128,-1,8
 833 1515 833 1515 899 1515 c 0,9,10
 963 1515 963 1515 1009.5 1465.5 c 128,-1,11
 1056 1416 1056 1416 1056 1349 c 256,0,1
561 1349 m 256,12,13
 561 1282 561 1282 514 1232.5 c 128,-1,14
 467 1183 467 1183 403 1183 c 0,15,16
 338 1183 338 1183 292 1232 c 128,-1,17
 246 1281 246 1281 246 1349 c 0,18,19
 246 1416 246 1416 291.5 1465.5 c 128,-1,20
 337 1515 337 1515 403 1515 c 0,21,22
 467 1515 467 1515 514 1465.5 c 128,-1,23
 561 1416 561 1416 561 1349 c 256,12,13
EndSplineSet
EndChar

StartChar: notequal
Encoding: 8800 8800 143
Width: 1440
Flags: W
LayerCount: 2
Fore
SplineSet
1277 286 m 1,0,-1
 739 286 l 1,1,-1
 652 0 l 1,2,-1
 483 0 l 1,3,-1
 570 286 l 1,4,-1
 207 286 l 1,5,-1
 207 449 l 1,6,-1
 619 449 l 1,7,-1
 696 700 l 1,8,-1
 207 700 l 1,9,-1
 207 863 l 1,10,-1
 745 863 l 1,11,-1
 835 1159 l 1,12,-1
 1004 1159 l 1,13,-1
 914 863 l 1,14,-1
 1277 863 l 1,15,-1
 1277 700 l 1,16,-1
 864 700 l 1,17,-1
 787 449 l 1,18,-1
 1277 449 l 1,19,-1
 1277 286 l 1,0,-1
EndSplineSet
EndChar

StartChar: AE
Encoding: 198 198 144
Width: 2201
Flags: W
LayerCount: 2
Fore
SplineSet
2119 442 m 1,0,-1
 1990 0 l 1,1,-1
 680 0 l 1,2,-1
 697 73 l 1,3,4
 725 75 725 75 775 81 c 128,-1,5
 825 87 825 87 846 95 c 0,6,7
 888 111 888 111 907.5 137.5 c 128,-1,8
 927 164 927 164 934 198 c 2,9,-1
 1025 594 l 1,10,-1
 536 594 l 1,11,12
 436 469 436 469 368.5 382 c 128,-1,13
 301 295 301 295 285 274 c 0,14,15
 232 204 232 204 220.5 178.5 c 128,-1,16
 209 153 209 153 209 145 c 0,17,18
 209 126 209 126 228 113 c 128,-1,19
 247 100 247 100 275 92 c 0,20,21
 301 85 301 85 333 80 c 128,-1,22
 365 75 365 75 388 73 c 1,23,-1
 371 0 l 1,24,-1
 -218 0 l 1,25,-1
 -201 73 l 1,26,27
 -163 76 -163 76 -124 85 c 128,-1,28
 -85 94 -85 94 -60 107 c 0,29,30
 -9 132 -9 132 31 165.5 c 128,-1,31
 71 199 71 199 111 249 c 0,32,33
 342 531 342 531 545 781.5 c 128,-1,34
 748 1032 748 1032 967 1302 c 1,35,36
 938 1321 938 1321 881.5 1332 c 128,-1,37
 825 1343 825 1343 782 1346 c 1,38,-1
 799 1419 l 1,39,-1
 2245 1419 l 1,40,-1
 2161 1057 l 1,41,-1
 2085 1057 l 1,42,43
 2078 1130 2078 1130 2027 1219 c 128,-1,44
 1976 1308 1976 1308 1905 1324 c 0,45,46
 1877 1331 1877 1331 1824 1332.5 c 128,-1,47
 1771 1334 1771 1334 1736 1334 c 2,48,-1
 1550 1334 l 1,49,-1
 1421 779 l 1,50,-1
 1547 779 l 2,51,52
 1608 779 1608 779 1654.5 793.5 c 128,-1,53
 1701 808 1701 808 1745 843 c 0,54,55
 1773 866 1773 866 1810.5 925 c 128,-1,56
 1848 984 1848 984 1864 1026 c 1,57,-1
 1940 1026 l 1,58,-1
 1803 434 l 1,59,-1
 1727 434 l 1,60,61
 1731 482 1731 482 1721 543 c 128,-1,62
 1711 604 1711 604 1695 628 c 1,63,64
 1664 669 1664 669 1621.5 681 c 128,-1,65
 1579 693 1579 693 1528 693 c 2,66,-1
 1402 693 l 1,67,-1
 1306 276 l 2,68,69
 1298 243 1298 243 1294 216.5 c 128,-1,70
 1290 190 1290 190 1290 173 c 0,71,72
 1290 118 1290 118 1332.5 102 c 128,-1,73
 1375 86 1375 86 1484 86 c 0,74,75
 1633 86 1633 86 1695.5 101.5 c 128,-1,76
 1758 117 1758 117 1790 142 c 1,77,78
 1851 193 1851 193 1933.5 294 c 128,-1,79
 2016 395 2016 395 2046 442 c 1,80,-1
 2119 442 l 1,0,-1
1047 688 m 1,81,-1
 1196 1334 l 1,82,-1
 1128 1334 l 1,83,-1
 612 688 l 1,84,-1
 1047 688 l 1,81,-1
EndSplineSet
EndChar

StartChar: Oslash
Encoding: 216 216 145
Width: 1679
Flags: W
LayerCount: 2
Fore
SplineSet
1274 1058 m 1,0,-1
 498 251 l 1,1,2
 528 157 528 157 593.5 105.5 c 128,-1,3
 659 54 659 54 756 54 c 0,4,5
 877 54 877 54 976 136.5 c 128,-1,6
 1075 219 1075 219 1140 347 c 256,7,8
 1205 475 1205 475 1241 639 c 128,-1,9
 1277 803 1277 803 1277 972 c 0,10,11
 1277 989 1277 989 1276 1013.5 c 128,-1,12
 1275 1038 1275 1038 1274 1058 c 1,0,-1
473 366 m 1,13,-1
 1249 1172 l 1,14,15
 1214 1273 1214 1273 1149 1319 c 128,-1,16
 1084 1365 1084 1365 993 1365 c 0,17,18
 872 1365 872 1365 775 1285 c 128,-1,19
 678 1205 678 1205 609 1073 c 0,20,21
 542 943 542 943 506.5 777.5 c 128,-1,22
 471 612 471 612 471 446 c 0,23,24
 471 423 471 423 472 401.5 c 128,-1,25
 473 380 473 380 473 366 c 1,13,-1
251 140 m 1,26,27
 174 215 174 215 130.5 318.5 c 128,-1,28
 87 422 87 422 87 545 c 0,29,30
 87 735 87 735 160 902.5 c 128,-1,31
 233 1070 233 1070 362 1195 c 0,32,33
 488 1318 488 1318 657.5 1388 c 128,-1,34
 827 1458 827 1458 1015 1458 c 0,35,36
 1130 1458 1130 1458 1230.5 1429 c 128,-1,37
 1331 1400 1331 1400 1415 1344 c 1,38,-1
 1575 1509 l 1,39,-1
 1649 1441 l 1,40,-1
 1493 1281 l 1,41,42
 1573 1204 1573 1204 1617 1100.5 c 128,-1,43
 1661 997 1661 997 1661 875 c 0,44,45
 1661 695 1661 695 1593.5 527.5 c 128,-1,46
 1526 360 1526 360 1404 236 c 0,47,48
 1279 109 1279 109 1110 35 c 128,-1,49
 941 -39 941 -39 727 -39 c 0,50,51
 615 -39 615 -39 511.5 -9 c 128,-1,52
 408 21 408 21 328 76 c 1,53,-1
 163 -95 l 1,54,-1
 89 -27 l 1,55,-1
 251 140 l 1,26,27
EndSplineSet
EndChar

StartChar: infinity
Encoding: 8734 8734 146
Width: 1636
Flags: W
LayerCount: 2
Fore
SplineSet
1583 576 m 0,0,1
 1583 368 1583 368 1466.5 226 c 128,-1,2
 1350 84 1350 84 1186 84 c 0,3,4
 1070 84 1070 84 970.5 152 c 128,-1,5
 871 220 871 220 804 357 c 1,6,7
 748 221 748 221 668.5 153 c 128,-1,8
 589 85 589 85 482 85 c 0,9,10
 313 85 313 85 205 220 c 128,-1,11
 97 355 97 355 97 575 c 0,12,13
 97 784 97 784 214 925.5 c 128,-1,14
 331 1067 331 1067 494 1067 c 0,15,16
 615 1067 615 1067 710 1000.5 c 128,-1,17
 805 934 805 934 876 794 c 1,18,19
 928 930 928 930 1011 998 c 128,-1,20
 1094 1066 1094 1066 1200 1066 c 0,21,22
 1370 1066 1370 1066 1476.5 930.5 c 128,-1,23
 1583 795 1583 795 1583 576 c 0,0,1
1464 575 m 0,24,25
 1464 695 1464 695 1391 763.5 c 128,-1,26
 1318 832 1318 832 1213 832 c 0,27,28
 1115 832 1115 832 1041.5 800.5 c 128,-1,29
 968 769 968 769 917 718 c 1,30,31
 995 519 995 519 1067.5 422 c 128,-1,32
 1140 325 1140 325 1244 325 c 0,33,34
 1345 325 1345 325 1404.5 395 c 128,-1,35
 1464 465 1464 465 1464 575 c 0,24,25
764 433 m 1,36,37
 677 646 677 646 606 736 c 128,-1,38
 535 826 535 826 436 826 c 0,39,40
 335 826 335 826 275.5 755.5 c 128,-1,41
 216 685 216 685 216 579 c 0,42,43
 216 457 216 457 290.5 388 c 128,-1,44
 365 319 365 319 469 319 c 0,45,46
 566 319 566 319 641.5 350.5 c 128,-1,47
 717 382 717 382 764 433 c 1,36,37
EndSplineSet
EndChar

StartChar: plusminus
Encoding: 177 177 147
Width: 1440
Flags: W
LayerCount: 2
Fore
SplineSet
1297 0 m 1,0,-1
 186 0 l 1,1,-1
 186 163 l 1,2,-1
 659 163 l 1,3,-1
 659 558 l 1,4,-1
 186 558 l 1,5,-1
 186 721 l 1,6,-1
 659 721 l 1,7,-1
 659 1194 l 1,8,-1
 824 1194 l 1,9,-1
 824 721 l 1,10,-1
 1297 721 l 1,11,-1
 1297 558 l 1,12,-1
 824 558 l 1,13,-1
 824 163 l 1,14,-1
 1297 163 l 1,15,-1
 1297 0 l 1,0,-1
EndSplineSet
EndChar

StartChar: lessequal
Encoding: 8804 8804 148
Width: 1440
Flags: W
LayerCount: 2
Fore
SplineSet
1261 274 m 1,0,-1
 231 694 l 1,1,-1
 231 837 l 1,2,-1
 1261 1257 l 1,3,-1
 1261 1070 l 1,4,-1
 470 765 l 1,5,-1
 1261 461 l 1,6,-1
 1261 274 l 1,0,-1
1261 0 m 1,7,-1
 231 0 l 1,8,-1
 231 163 l 1,9,-1
 1261 163 l 1,10,-1
 1261 0 l 1,7,-1
EndSplineSet
EndChar

StartChar: greaterequal
Encoding: 8805 8805 149
Width: 1440
Flags: W
LayerCount: 2
Fore
SplineSet
1253 694 m 1,0,-1
 223 274 l 1,1,-1
 223 461 l 1,2,-1
 1014 765 l 1,3,-1
 223 1070 l 1,4,-1
 223 1257 l 1,5,-1
 1253 837 l 1,6,-1
 1253 694 l 1,0,-1
1253 0 m 1,7,-1
 223 0 l 1,8,-1
 223 163 l 1,9,-1
 1253 163 l 1,10,-1
 1253 0 l 1,7,-1
EndSplineSet
EndChar

StartChar: yen
Encoding: 165 165 150
Width: 1500
Flags: W
LayerCount: 2
Fore
SplineSet
1701 1419 m 1,0,-1
 1684 1347 l 1,1,2
 1654 1344 1654 1344 1626 1334.5 c 128,-1,3
 1598 1325 1598 1325 1567 1309 c 0,4,5
 1519 1285 1519 1285 1480 1251.5 c 128,-1,6
 1441 1218 1441 1218 1391 1164 c 0,7,8
 1303 1068 1303 1068 1165 908.5 c 128,-1,9
 1027 749 1027 749 912 615 c 1,10,-1
 903 581 l 1,11,-1
 1337 581 l 1,12,-1
 1311 469 l 1,13,-1
 880 469 l 1,14,-1
 826 233 l 2,15,16
 823 221 823 221 820 204.5 c 128,-1,17
 817 188 817 188 817 174 c 0,18,19
 817 147 817 147 829.5 130 c 128,-1,20
 842 113 842 113 861 104 c 256,21,22
 880 95 880 95 927.5 85 c 128,-1,23
 975 75 975 75 1007 72 c 1,24,-1
 990 0 l 1,25,-1
 211 0 l 1,26,-1
 228 72 l 1,27,28
 256 74 256 74 310.5 80 c 128,-1,29
 365 86 365 86 387 94 c 0,30,31
 428 110 428 110 448.5 138.5 c 128,-1,32
 469 167 469 167 476 201 c 2,33,-1
 537 469 l 1,34,-1
 106 469 l 1,35,-1
 132 581 l 1,36,-1
 565 581 l 1,37,-1
 570 603 l 1,38,39
 528 726 528 726 466 899 c 128,-1,40
 404 1072 404 1072 366 1171 c 0,41,42
 345 1225 345 1225 319.5 1259.5 c 128,-1,43
 294 1294 294 1294 260 1314 c 0,44,45
 236 1328 236 1328 204 1336.5 c 128,-1,46
 172 1345 172 1345 146 1347 c 1,47,-1
 163 1419 l 1,48,-1
 926 1419 l 1,49,-1
 909 1347 l 1,50,51
 889 1346 889 1346 855 1344.5 c 128,-1,52
 821 1343 821 1343 788 1338 c 0,53,54
 758 1333 758 1333 735 1320.5 c 128,-1,55
 712 1308 712 1308 712 1287 c 0,56,57
 712 1272 712 1272 717.5 1244.5 c 128,-1,58
 723 1217 723 1217 745 1148 c 0,59,60
 764 1088 764 1088 799.5 990 c 128,-1,61
 835 892 835 892 888 747 c 1,62,63
 1024 905 1024 905 1098 991 c 128,-1,64
 1172 1077 1172 1077 1223 1139 c 0,65,66
 1288 1219 1288 1219 1303.5 1243.5 c 128,-1,67
 1319 1268 1319 1268 1319 1284 c 0,68,69
 1319 1312 1319 1312 1285 1326.5 c 128,-1,70
 1251 1341 1251 1341 1164 1347 c 1,71,-1
 1181 1419 l 1,72,-1
 1701 1419 l 1,0,-1
EndSplineSet
EndChar

StartChar: mu1
Encoding: 181 181 151
Width: 1386
Flags: W
LayerCount: 2
Fore
SplineSet
796 264 m 1,0,-1
 961 986 l 1,1,-1
 1280 1000 l 1,2,-1
 1292 986 l 1,3,-1
 1150 371 l 2,4,5
 1143 342 1143 342 1133.5 294 c 128,-1,6
 1124 246 1124 246 1124 223 c 0,7,8
 1124 165 1124 165 1149.5 144 c 128,-1,9
 1175 123 1175 123 1239 123 c 0,10,11
 1269 123 1269 123 1307 133.5 c 128,-1,12
 1345 144 1345 144 1362 152 c 1,13,-1
 1340 62 l 1,14,15
 1241 23 1241 23 1182 2.5 c 128,-1,16
 1123 -18 1123 -18 1045 -18 c 0,17,18
 935 -18 935 -18 869 31.5 c 128,-1,19
 803 81 803 81 786 159 c 1,20,-1
 779 159 l 1,21,22
 716 71 716 71 628.5 22.5 c 128,-1,23
 541 -26 541 -26 472 -26 c 0,24,25
 401 -26 401 -26 356.5 -11 c 128,-1,26
 312 4 312 4 278 43 c 1,27,-1
 267 43 l 1,28,29
 264 28 264 28 261.5 -8.5 c 128,-1,30
 259 -45 259 -45 259 -67 c 0,31,32
 259 -98 259 -98 267 -147.5 c 128,-1,33
 275 -197 275 -197 275 -234 c 0,34,35
 275 -332 275 -332 220 -388 c 128,-1,36
 165 -444 165 -444 71 -444 c 0,37,38
 12 -444 12 -444 -27 -411 c 128,-1,39
 -66 -378 -66 -378 -66 -315 c 0,40,41
 -66 -266 -66 -266 -21.5 -171 c 128,-1,42
 23 -76 23 -76 36 -44 c 0,43,44
 60 14 60 14 74 57 c 128,-1,45
 88 100 88 100 98 146 c 2,46,-1
 292 986 l 1,47,-1
 609 1000 l 1,48,-1
 621 986 l 1,49,-1
 472 343 l 2,50,51
 467 323 467 323 463.5 295 c 128,-1,52
 460 267 460 267 460 252 c 0,53,54
 460 192 460 192 485.5 164 c 128,-1,55
 511 136 511 136 568 136 c 0,56,57
 624 136 624 136 669.5 157 c 128,-1,58
 715 178 715 178 796 264 c 1,0,-1
EndSplineSet
EndChar

StartChar: partialdiff
Encoding: 8706 8706 152
Width: 1325
Flags: W
LayerCount: 2
Fore
SplineSet
1118 1276 m 0,0,1
 1185 1195 1185 1195 1218.5 1087.5 c 128,-1,2
 1252 980 1252 980 1252 864 c 0,3,4
 1252 728 1252 728 1220 582 c 128,-1,5
 1188 436 1188 436 1104 296 c 0,6,7
 1007 134 1007 134 874 49.5 c 128,-1,8
 741 -35 741 -35 576 -35 c 0,9,10
 363 -35 363 -35 236.5 84 c 128,-1,11
 110 203 110 203 110 404 c 0,12,13
 110 511 110 511 149 606 c 128,-1,14
 188 701 188 701 254 772 c 0,15,16
 317 840 317 840 401 877.5 c 128,-1,17
 485 915 485 915 570 915 c 0,18,19
 705 915 705 915 787 867.5 c 128,-1,20
 869 820 869 820 912 740 c 1,21,22
 914 768 914 768 916 805 c 128,-1,23
 918 842 918 842 918 878 c 0,24,25
 918 971 918 971 904.5 1063.5 c 128,-1,26
 891 1156 891 1156 856 1226 c 0,27,28
 821 1295 821 1295 763.5 1335 c 128,-1,29
 706 1375 706 1375 620 1375 c 0,30,31
 609 1375 609 1375 592.5 1373.5 c 128,-1,32
 576 1372 576 1372 556 1368 c 1,33,34
 572 1322 572 1322 581 1280.5 c 128,-1,35
 590 1239 590 1239 590 1180 c 0,36,37
 590 1109 590 1109 542.5 1068.5 c 128,-1,38
 495 1028 495 1028 416 1028 c 0,39,40
 341 1028 341 1028 297 1075 c 128,-1,41
 253 1122 253 1122 253 1193 c 0,42,43
 253 1309 253 1309 379 1384.5 c 128,-1,44
 505 1460 505 1460 687 1460 c 0,45,46
 835 1460 835 1460 942.5 1409.5 c 128,-1,47
 1050 1359 1050 1359 1118 1276 c 0,0,1
799 239 m 0,48,49
 834 323 834 323 854.5 410 c 128,-1,50
 875 497 875 497 883 569 c 1,51,52
 875 671 875 671 826 731 c 128,-1,53
 777 791 777 791 696 791 c 0,54,55
 597 791 597 791 520.5 657.5 c 128,-1,56
 444 524 444 524 444 341 c 0,57,58
 444 276 444 276 450.5 231 c 128,-1,59
 457 186 457 186 478 140 c 0,60,61
 496 100 496 100 527.5 75 c 128,-1,62
 559 50 559 50 604 50 c 0,63,64
 664 50 664 50 715.5 105.5 c 128,-1,65
 767 161 767 161 799 239 c 0,48,49
EndSplineSet
EndChar

StartChar: summation
Encoding: 8721 8721 153
Width: 1494
Flags: W
LayerCount: 2
Fore
SplineSet
1481 142 m 1,0,-1
 1329 -414 l 1,1,-1
 46 -414 l 1,2,-1
 46 -321 l 1,3,-1
 742 465 l 1,4,-1
 60 1318 l 1,5,-1
 60 1419 l 1,6,-1
 1324 1419 l 1,7,-1
 1368 986 l 1,8,-1
 1287 986 l 1,9,10
 1207 1134 1207 1134 1151 1207.5 c 128,-1,11
 1095 1281 1095 1281 1051 1299 c 0,12,13
 1019 1312 1019 1312 965 1319.5 c 128,-1,14
 911 1327 911 1327 835 1327 c 2,15,-1
 476 1327 l 1,16,-1
 1014 661 l 1,17,-1
 1014 629 l 1,18,-1
 349 -121 l 1,19,-1
 1108 -121 l 2,20,21
 1164 -121 1164 -121 1210.5 -94.5 c 128,-1,22
 1257 -68 1257 -68 1291 -28 c 0,23,24
 1324 11 1324 11 1353.5 61 c 128,-1,25
 1383 111 1383 111 1405 165 c 1,26,-1
 1481 142 l 1,0,-1
EndSplineSet
EndChar

StartChar: product
Encoding: 8719 8719 154
Width: 1910
Flags: W
LayerCount: 2
Fore
SplineSet
1853 -414 m 1,0,-1
 1086 -414 l 1,1,-1
 1086 -336 l 1,2,3
 1111 -334 1111 -334 1159 -329.5 c 128,-1,4
 1207 -325 1207 -325 1225 -318 c 0,5,6
 1262 -303 1262 -303 1276 -278.5 c 128,-1,7
 1290 -254 1290 -254 1290 -216 c 2,8,-1
 1290 1318 l 1,9,-1
 664 1318 l 1,10,-1
 664 -205 l 2,11,12
 664 -239 664 -239 678.5 -266 c 128,-1,13
 693 -293 693 -293 728 -308 c 0,14,15
 746 -316 746 -316 792.5 -325 c 128,-1,16
 839 -334 839 -334 868 -336 c 1,17,-1
 868 -414 l 1,18,-1
 101 -414 l 1,19,-1
 101 -336 l 1,20,21
 126 -335 126 -335 174.5 -329.5 c 128,-1,22
 223 -324 223 -324 245 -316 c 0,23,24
 281 -303 281 -303 295 -276.5 c 128,-1,25
 309 -250 309 -250 309 -214 c 2,26,-1
 309 1318 l 1,27,-1
 101 1318 l 1,28,-1
 101 1419 l 1,29,-1
 1853 1419 l 1,30,-1
 1853 1318 l 1,31,-1
 1645 1318 l 1,32,-1
 1645 -205 l 2,33,34
 1645 -241 1645 -241 1658 -266 c 128,-1,35
 1671 -291 1671 -291 1709 -308 c 0,36,37
 1733 -319 1733 -319 1778.5 -326.5 c 128,-1,38
 1824 -334 1824 -334 1853 -336 c 1,39,-1
 1853 -414 l 1,0,-1
EndSplineSet
EndChar

StartChar: pi1
Encoding: 65539 -1 155
Width: 1382
Flags: W
LayerCount: 2
Fore
SplineSet
1461 1044 m 1,0,1
 1404 945 1404 945 1331.5 842.5 c 128,-1,2
 1259 740 1259 740 1219 727 c 1,3,-1
 1046 727 l 1,4,5
 1016 639 1016 639 985.5 509.5 c 128,-1,6
 955 380 955 380 955 304 c 0,7,8
 955 239 955 239 975 204.5 c 128,-1,9
 995 170 995 170 1034 170 c 0,10,11
 1085 170 1085 170 1119.5 205.5 c 128,-1,12
 1154 241 1154 241 1175 328 c 1,13,-1
 1252 328 l 1,14,15
 1214 148 1214 148 1130 60.5 c 128,-1,16
 1046 -27 1046 -27 935 -27 c 0,17,18
 872 -27 872 -27 829.5 -7 c 128,-1,19
 787 13 787 13 761 46 c 256,20,21
 735 79 735 79 724 123.5 c 128,-1,22
 713 168 713 168 713 212 c 0,23,24
 713 302 713 302 754.5 449 c 128,-1,25
 796 596 796 596 844 727 c 1,26,-1
 623 727 l 1,27,28
 599 641 599 641 564.5 531 c 128,-1,29
 530 421 530 421 502 354 c 0,30,31
 409 127 409 127 339.5 50 c 128,-1,32
 270 -27 270 -27 194 -27 c 0,33,34
 149 -27 149 -27 123.5 -4.5 c 128,-1,35
 98 18 98 18 98 61 c 0,36,37
 98 107 98 107 117.5 136 c 128,-1,38
 137 165 137 165 167 186 c 0,39,40
 195 206 195 206 228.5 217 c 128,-1,41
 262 228 262 228 281 235 c 1,42,43
 353 296 353 296 414.5 422 c 128,-1,44
 476 548 476 548 525 727 c 1,45,46
 423 727 423 727 364 709.5 c 128,-1,47
 305 692 305 692 268 661 c 1,48,49
 234 631 234 631 218 589 c 128,-1,50
 202 547 202 547 190 507 c 1,51,-1
 119 507 l 1,52,53
 117 521 117 521 115.5 547.5 c 128,-1,54
 114 574 114 574 114 601 c 0,55,56
 114 680 114 680 142 749 c 128,-1,57
 170 818 170 818 233 872 c 0,58,59
 293 924 293 924 392 955 c 128,-1,60
 491 986 491 986 627 986 c 2,61,-1
 1132 986 l 2,62,63
 1243 986 1243 986 1300 1002 c 128,-1,64
 1357 1018 1357 1018 1406 1077 c 1,65,-1
 1461 1044 l 1,0,1
EndSplineSet
EndChar

StartChar: integral
Encoding: 8747 8747 156
Width: 1286
Flags: W
LayerCount: 2
Fore
SplineSet
1248 1476 m 0,0,1
 1285 1443 1285 1443 1296.5 1405.5 c 128,-1,2
 1308 1368 1308 1368 1308 1332 c 0,3,4
 1308 1271 1308 1271 1262 1224.5 c 128,-1,5
 1216 1178 1216 1178 1149 1178 c 0,6,7
 1058 1178 1058 1178 1012.5 1249.5 c 128,-1,8
 967 1321 967 1321 967 1468 c 1,9,10
 962 1470 962 1470 958.5 1469.5 c 128,-1,11
 955 1469 955 1469 951 1469 c 0,12,13
 889 1469 889 1469 855.5 1367.5 c 128,-1,14
 822 1266 822 1266 822 1078 c 2,15,-1
 822 168 l 2,16,17
 822 34 822 34 785 -95.5 c 128,-1,18
 748 -225 748 -225 673 -301 c 0,19,20
 603 -372 603 -372 517.5 -408 c 128,-1,21
 432 -444 432 -444 361 -444 c 0,22,23
 248 -444 248 -444 178.5 -424 c 128,-1,24
 109 -404 109 -404 72 -372 c 256,25,26
 35 -340 35 -340 23.5 -302 c 128,-1,27
 12 -264 12 -264 12 -228 c 0,28,29
 12 -172 12 -172 56 -123 c 128,-1,30
 100 -74 100 -74 172 -74 c 0,31,32
 265 -74 265 -74 309 -146 c 128,-1,33
 353 -218 353 -218 353 -364 c 1,34,35
 358 -365 358 -365 361.5 -365 c 128,-1,36
 365 -365 365 -365 369 -365 c 0,37,38
 428 -365 428 -365 463.5 -269.5 c 128,-1,39
 499 -174 499 -174 499 32 c 2,40,-1
 499 937 l 2,41,42
 499 1088 499 1088 534.5 1206.5 c 128,-1,43
 570 1325 570 1325 647 1405 c 0,44,45
 716 1476 716 1476 803 1512 c 128,-1,46
 890 1548 890 1548 959 1548 c 0,47,48
 1073 1548 1073 1548 1143 1528 c 128,-1,49
 1213 1508 1213 1508 1248 1476 c 0,0,1
EndSplineSet
EndChar

StartChar: ordfeminine
Encoding: 170 170 157
Width: 1130
Flags: W
LayerCount: 2
Fore
SplineSet
1209 761 m 1,0,-1
 1189 683 l 1,1,2
 1107 652 1107 652 1056.5 635 c 128,-1,3
 1006 618 1006 618 941 618 c 0,4,5
 854 618 854 618 801.5 652.5 c 128,-1,6
 749 687 749 687 731 735 c 1,7,-1
 724 735 l 1,8,9
 666 682 666 682 598.5 645.5 c 128,-1,10
 531 609 531 609 448 609 c 0,11,12
 301 609 301 609 230 692.5 c 128,-1,13
 159 776 159 776 159 920 c 0,14,15
 159 1142 159 1142 307.5 1299.5 c 128,-1,16
 456 1457 456 1457 661 1457 c 0,17,18
 734 1457 734 1457 787.5 1440.5 c 128,-1,19
 841 1424 841 1424 879 1394 c 1,20,-1
 1137 1445 l 1,21,-1
 1148 1432 l 1,22,-1
 1030 938 l 1,23,24
 1023 914 1023 914 1015.5 876 c 128,-1,25
 1008 838 1008 838 1008 818 c 0,26,27
 1008 772 1008 772 1029 754.5 c 128,-1,28
 1050 737 1050 737 1105 737 c 0,29,30
 1126 737 1126 737 1157 744.5 c 128,-1,31
 1188 752 1188 752 1209 761 c 1,0,-1
826 1245 m 1,32,33
 826 1264 826 1264 822 1287 c 128,-1,34
 818 1310 818 1310 806 1328 c 0,35,36
 794 1347 794 1347 771 1359 c 128,-1,37
 748 1371 748 1371 710 1371 c 0,38,39
 604 1371 604 1371 532.5 1237 c 128,-1,40
 461 1103 461 1103 461 921 c 0,41,42
 461 824 461 824 491 780.5 c 128,-1,43
 521 737 521 737 587 737 c 0,44,45
 629 737 629 737 665 764 c 128,-1,46
 701 791 701 791 725 818 c 1,47,-1
 826 1245 l 1,32,33
EndSplineSet
EndChar

StartChar: ordmasculine
Encoding: 186 186 158
Width: 1130
Flags: W
LayerCount: 2
Fore
SplineSet
1131 1118 m 0,0,1
 1131 903 1131 903 972 754.5 c 128,-1,2
 813 606 813 606 558 606 c 0,3,4
 381 606 381 606 273.5 698.5 c 128,-1,5
 166 791 166 791 166 949 c 0,6,7
 166 1166 166 1166 323 1311.5 c 128,-1,8
 480 1457 480 1457 729 1457 c 0,9,10
 930 1457 930 1457 1030.5 1362.5 c 128,-1,11
 1131 1268 1131 1268 1131 1118 c 0,0,1
782 861 m 0,12,13
 811 939 811 939 824.5 1029 c 128,-1,14
 838 1119 838 1119 838 1205 c 256,15,16
 838 1291 838 1291 808 1336.5 c 128,-1,17
 778 1382 778 1382 712 1382 c 256,18,19
 646 1382 646 1382 594 1331.5 c 128,-1,20
 542 1281 542 1281 511 1194 c 1,21,22
 484 1122 484 1122 472 1024.5 c 128,-1,23
 460 927 460 927 460 861 c 0,24,25
 460 763 460 763 492 722 c 128,-1,26
 524 681 524 681 587 681 c 0,27,28
 656 681 656 681 705 733.5 c 128,-1,29
 754 786 754 786 782 861 c 0,12,13
EndSplineSet
EndChar

StartChar: Ohm
Encoding: 8486 8486 159
Width: 1797
Flags: W
LayerCount: 2
Fore
SplineSet
1781 437 m 1,0,-1
 1565 0 l 1,1,-1
 862 0 l 1,2,-1
 885 98 l 1,3,4
 978 192 978 192 1061.5 286.5 c 128,-1,5
 1145 381 1145 381 1207 487 c 256,6,7
 1269 593 1269 593 1302.5 710 c 128,-1,8
 1336 827 1336 827 1336 990 c 0,9,10
 1336 1063 1336 1063 1323.5 1129 c 128,-1,11
 1311 1195 1311 1195 1277 1249 c 0,12,13
 1244 1302 1244 1302 1191 1333.5 c 128,-1,14
 1138 1365 1138 1365 1056 1365 c 0,15,16
 983 1365 983 1365 930 1342 c 128,-1,17
 877 1319 877 1319 827 1275 c 0,18,19
 781 1235 781 1235 745 1178.5 c 128,-1,20
 709 1122 709 1122 681 1062 c 1,21,22
 629 945 629 945 605.5 816.5 c 128,-1,23
 582 688 582 688 582 610 c 0,24,25
 582 434 582 434 617.5 329.5 c 128,-1,26
 653 225 653 225 710 98 c 1,27,-1
 687 0 l 1,28,-1
 34 0 l 1,29,-1
 -16 447 l 1,30,-1
 56 467 l 1,31,32
 65 434 65 434 81 394.5 c 128,-1,33
 97 355 97 355 120 323 c 1,34,35
 142 290 142 290 175.5 267.5 c 128,-1,36
 209 245 209 245 253 245 c 2,37,-1
 513 245 l 1,38,-1
 513 265 l 1,39,40
 453 320 453 320 393.5 379.5 c 128,-1,41
 334 439 334 439 296 493 c 0,42,43
 256 550 256 550 233 620 c 128,-1,44
 210 690 210 690 210 774 c 0,45,46
 210 907 210 907 269 1028.5 c 128,-1,47
 328 1150 328 1150 441 1248 c 0,48,49
 549 1342 549 1342 711 1400 c 128,-1,50
 873 1458 873 1458 1064 1458 c 0,51,52
 1224 1458 1224 1458 1347.5 1419 c 128,-1,53
 1471 1380 1471 1380 1554 1313 c 0,54,55
 1635 1248 1635 1248 1679 1158 c 128,-1,56
 1723 1068 1723 1068 1723 965 c 0,57,58
 1723 847 1723 847 1687 751 c 128,-1,59
 1651 655 1651 655 1579 572 c 0,60,61
 1512 494 1512 494 1406 416 c 128,-1,62
 1300 338 1300 338 1176 265 c 1,63,-1
 1176 245 l 1,64,-1
 1422 245 l 2,65,66
 1495 245 1495 245 1568 303.5 c 128,-1,67
 1641 362 1641 362 1714 459 c 1,68,-1
 1781 437 l 1,0,-1
EndSplineSet
EndChar

StartChar: ae
Encoding: 230 230 160
Width: 1754
Flags: W
LayerCount: 2
Fore
SplineSet
1251 935 m 0,0,1
 1168 935 1168 935 1104.5 810 c 128,-1,2
 1041 685 1041 685 1020 491 c 1,3,4
 1079 498 1079 498 1136 509.5 c 128,-1,5
 1193 521 1193 521 1227 536 c 0,6,7
 1309 572 1309 572 1338.5 627 c 128,-1,8
 1368 682 1368 682 1368 759 c 0,9,10
 1368 844 1368 844 1337 889.5 c 128,-1,11
 1306 935 1306 935 1251 935 c 0,0,1
1327 1015 m 0,12,13
 1504 1015 1504 1015 1598.5 958.5 c 128,-1,14
 1693 902 1693 902 1693 787 c 0,15,16
 1693 678 1693 678 1614 601 c 128,-1,17
 1535 524 1535 524 1392 483 c 1,18,19
 1282 450 1282 450 1205.5 435.5 c 128,-1,20
 1129 421 1129 421 1017 409 c 1,21,22
 1017 365 1017 365 1026.5 310 c 128,-1,23
 1036 255 1036 255 1057 217 c 0,24,25
 1081 172 1081 172 1125 145.5 c 128,-1,26
 1169 119 1169 119 1237 119 c 0,27,28
 1355 119 1355 119 1437.5 164.5 c 128,-1,29
 1520 210 1520 210 1595 309 c 1,30,-1
 1668 248 l 1,31,32
 1578 120 1578 120 1437.5 43.5 c 128,-1,33
 1297 -33 1297 -33 1142 -33 c 0,34,35
 982 -33 982 -33 877.5 21 c 128,-1,36
 773 75 773 75 724 163 c 1,37,-1
 717 163 l 1,38,39
 687 132 687 132 642 95 c 128,-1,40
 597 58 597 58 548 32 c 0,41,42
 490 2 490 2 428.5 -15 c 128,-1,43
 367 -32 367 -32 280 -32 c 0,44,45
 167 -32 167 -32 95 27 c 128,-1,46
 23 86 23 86 23 184 c 0,47,48
 23 258 23 258 46.5 310.5 c 128,-1,49
 70 363 70 363 110 402 c 0,50,51
 147 439 147 439 197.5 464 c 128,-1,52
 248 489 248 489 298 507 c 0,53,54
 415 548 415 548 536.5 574 c 128,-1,55
 658 600 658 600 720 610 c 1,56,-1
 746 724 l 2,57,58
 749 739 749 739 753 761.5 c 128,-1,59
 757 784 757 784 757 808 c 0,60,61
 757 870 757 870 728 902.5 c 128,-1,62
 699 935 699 935 641 935 c 0,63,64
 592 935 592 935 558 922 c 128,-1,65
 524 909 524 909 511 901 c 1,66,67
 512 885 512 885 516 861 c 128,-1,68
 520 837 520 837 520 804 c 0,69,70
 520 786 520 786 512.5 753 c 128,-1,71
 505 720 505 720 488 699 c 0,72,73
 466 672 466 672 429.5 654 c 128,-1,74
 393 636 393 636 322 636 c 0,75,76
 249 636 249 636 211 667.5 c 128,-1,77
 173 699 173 699 173 756 c 0,78,79
 173 818 173 818 222.5 866.5 c 128,-1,80
 272 915 272 915 346 948 c 256,81,82
 420 981 420 981 508 998 c 128,-1,83
 596 1015 596 1015 672 1015 c 0,84,85
 772 1015 772 1015 857.5 994.5 c 128,-1,86
 943 974 943 974 999 927 c 1,87,88
 1068 964 1068 964 1152 989.5 c 128,-1,89
 1236 1015 1236 1015 1327 1015 c 0,12,13
694 254 m 1,90,91
 689 274 689 274 686.5 310.5 c 128,-1,92
 684 347 684 347 684 374 c 0,93,94
 684 421 684 421 688.5 453.5 c 128,-1,95
 693 486 693 486 701 521 c 1,96,97
 636 510 636 510 573 490.5 c 128,-1,98
 510 471 510 471 464 440 c 1,99,100
 416 409 416 409 388 359 c 128,-1,101
 360 309 360 309 360 241 c 0,102,103
 360 178 360 178 394.5 150 c 128,-1,104
 429 122 429 122 474 122 c 0,105,106
 525 122 525 122 585 154 c 128,-1,107
 645 186 645 186 694 254 c 1,90,91
EndSplineSet
EndChar

StartChar: oslash
Encoding: 248 248 161
Width: 1302
Flags: W
LayerCount: 2
Fore
SplineSet
805 250 m 1,0,1
 841 335 841 335 862.5 445 c 128,-1,2
 884 555 884 555 887 664 c 1,3,-1
 419 209 l 1,4,5
 428 136 428 136 466 91 c 128,-1,6
 504 46 504 46 575 46 c 0,7,8
 654 46 654 46 711.5 104 c 128,-1,9
 769 162 769 162 805 250 c 1,0,1
491 731 m 1,10,11
 455 643 455 643 437 534.5 c 128,-1,12
 419 426 419 426 415 327 c 1,13,-1
 882 781 l 1,14,15
 872 850 872 850 836 894.5 c 128,-1,16
 800 939 800 939 729 939 c 0,17,18
 661 939 661 939 599 889.5 c 128,-1,19
 537 840 537 840 491 731 c 1,10,11
181 104 m 1,20,21
 126 160 126 160 96.5 233.5 c 128,-1,22
 67 307 67 307 67 391 c 0,23,24
 67 524 67 524 116.5 638 c 128,-1,25
 166 752 166 752 255 837 c 0,26,27
 343 920 343 920 471 968.5 c 128,-1,28
 599 1017 599 1017 748 1017 c 0,29,30
 846 1017 846 1017 921 996 c 128,-1,31
 996 975 996 975 1049 943 c 1,32,-1
 1210 1098 l 1,33,-1
 1276 1037 l 1,34,-1
 1121 887 l 1,35,36
 1178 830 1178 830 1206.5 758 c 128,-1,37
 1235 686 1235 686 1235 599 c 0,38,39
 1235 473 1235 473 1187 358 c 128,-1,40
 1139 243 1139 243 1051 158 c 0,41,42
 956 67 956 67 828.5 17.5 c 128,-1,43
 701 -32 701 -32 542 -32 c 0,44,45
 459 -32 459 -32 384.5 -11 c 128,-1,46
 310 10 310 10 252 47 c 1,47,-1
 78 -121 l 1,48,-1
 12 -60 l 1,49,-1
 181 104 l 1,20,21
EndSplineSet
EndChar

StartChar: questiondown
Encoding: 191 191 162
Width: 1123
Flags: W
LayerCount: 2
Fore
SplineSet
992 1267 m 256,0,1
 992 1191 992 1191 934.5 1135.5 c 128,-1,2
 877 1080 877 1080 799 1080 c 0,3,4
 722 1080 722 1080 664.5 1135.5 c 128,-1,5
 607 1191 607 1191 607 1267 c 256,6,7
 607 1343 607 1343 664.5 1397.5 c 128,-1,8
 722 1452 722 1452 799 1452 c 0,9,10
 877 1452 877 1452 934.5 1397.5 c 128,-1,11
 992 1343 992 1343 992 1267 c 256,0,1
967 259 m 0,12,13
 967 139 967 139 825.5 55 c 128,-1,14
 684 -29 684 -29 484 -29 c 0,15,16
 299 -29 299 -29 175.5 68.5 c 128,-1,17
 52 166 52 166 52 329 c 0,18,19
 52 553 52 553 224 694 c 128,-1,20
 396 835 396 835 680 855 c 1,21,-1
 709 991 l 1,22,-1
 795 991 l 1,23,-1
 718 602 l 1,24,25
 543 589 543 589 436 503.5 c 128,-1,26
 329 418 329 418 329 259 c 0,27,28
 329 162 329 162 380.5 109 c 128,-1,29
 432 56 432 56 524 56 c 0,30,31
 562 56 562 56 597 67 c 128,-1,32
 632 78 632 78 666 99 c 1,33,34
 656 131 656 131 645.5 175 c 128,-1,35
 635 219 635 219 635 257 c 0,36,37
 635 328 635 328 681.5 369.5 c 128,-1,38
 728 411 728 411 807 411 c 0,39,40
 879 411 879 411 923 368 c 128,-1,41
 967 325 967 325 967 259 c 0,12,13
EndSplineSet
EndChar

StartChar: exclamdown
Encoding: 161 161 163
Width: 771
Flags: W
LayerCount: 2
Fore
SplineSet
754 1262 m 256,0,1
 754 1186 754 1186 696.5 1130.5 c 128,-1,2
 639 1075 639 1075 561 1075 c 0,3,4
 484 1075 484 1075 426.5 1130.5 c 128,-1,5
 369 1186 369 1186 369 1262 c 256,6,7
 369 1338 369 1338 426.5 1392.5 c 128,-1,8
 484 1447 484 1447 561 1447 c 0,9,10
 639 1447 639 1447 696.5 1392.5 c 128,-1,11
 754 1338 754 1338 754 1262 c 256,0,1
535 956 m 1,12,13
 523 721 523 721 523.5 554 c 128,-1,14
 524 387 524 387 524 317 c 0,15,16
 524 267 524 267 521.5 223.5 c 128,-1,17
 519 180 519 180 512 154 c 0,18,19
 490 64 490 64 424 17.5 c 128,-1,20
 358 -29 358 -29 277 -29 c 0,21,22
 209 -29 209 -29 164.5 12 c 128,-1,23
 120 53 120 53 120 114 c 0,24,25
 120 153 120 153 133.5 194.5 c 128,-1,26
 147 236 147 236 181 312 c 0,27,28
 219 395 219 395 301.5 578 c 128,-1,29
 384 761 384 761 458 956 c 1,30,-1
 535 956 l 1,12,13
EndSplineSet
EndChar

StartChar: logicalnot
Encoding: 172 172 164
Width: 1440
Flags: W
LayerCount: 2
Fore
SplineSet
1288 50 m 1,0,-1
 1118 50 l 1,1,-1
 1118 523 l 1,2,-1
 186 523 l 1,3,-1
 186 686 l 1,4,-1
 1288 686 l 1,5,-1
 1288 50 l 1,0,-1
EndSplineSet
EndChar

StartChar: radical
Encoding: 8730 8730 165
Width: 1440
Flags: W
LayerCount: 2
Fore
SplineSet
1745 1724 m 1,0,-1
 748 -126 l 1,1,-1
 620 -126 l 1,2,-1
 315 820 l 1,3,-1
 117 820 l 1,4,-1
 117 943 l 1,5,-1
 533 943 l 1,6,-1
 775 204 l 1,7,-1
 1593 1724 l 1,8,-1
 1745 1724 l 1,0,-1
EndSplineSet
EndChar

StartChar: florin
Encoding: 402 402 166
Width: 1186
Flags: W
LayerCount: 2
Fore
SplineSet
713 639 m 1,0,1
 701 575 701 575 679.5 456 c 128,-1,2
 658 337 658 337 627 206 c 0,3,4
 601 93 601 93 551.5 -13 c 128,-1,5
 502 -119 502 -119 423 -200 c 0,6,7
 344 -280 344 -280 245 -324.5 c 128,-1,8
 146 -369 146 -369 9 -369 c 0,9,10
 -106 -369 -106 -369 -169 -322.5 c 128,-1,11
 -232 -276 -232 -276 -232 -195 c 0,12,13
 -232 -132 -232 -132 -188 -87 c 128,-1,14
 -144 -42 -144 -42 -68 -42 c 0,15,16
 12 -42 12 -42 55 -97.5 c 128,-1,17
 98 -153 98 -153 140 -276 c 1,18,19
 197 -245 197 -245 228.5 -111.5 c 128,-1,20
 260 22 260 22 278 113 c 0,21,22
 306 250 306 250 335 404 c 128,-1,23
 364 558 364 558 378 639 c 1,24,-1
 159 639 l 1,25,-1
 184 750 l 1,26,-1
 396 750 l 1,27,28
 416 854 416 854 465 954 c 128,-1,29
 514 1054 514 1054 590 1134 c 0,30,31
 665 1212 665 1212 772.5 1261 c 128,-1,32
 880 1310 880 1310 1010 1310 c 0,33,34
 1127 1310 1127 1310 1189 1263.5 c 128,-1,35
 1251 1217 1251 1217 1251 1141 c 0,36,37
 1251 1116 1251 1116 1242 1086 c 128,-1,38
 1233 1056 1233 1056 1214 1035 c 0,39,40
 1192 1010 1192 1010 1164.5 996.5 c 128,-1,41
 1137 983 1137 983 1085 983 c 0,42,43
 1039 983 1039 983 1010 999 c 128,-1,44
 981 1015 981 1015 960 1043 c 0,45,46
 936 1074 936 1074 917 1118 c 128,-1,47
 898 1162 898 1162 877 1217 c 1,48,49
 827 1187 827 1187 796 1085.5 c 128,-1,50
 765 984 765 984 741 828 c 2,51,-1
 729 750 l 1,52,-1
 1015 750 l 1,53,-1
 990 639 l 1,54,-1
 713 639 l 1,0,1
EndSplineSet
EndChar

StartChar: approxequal
Encoding: 8776 8776 167
Width: 1440
Flags: W
LayerCount: 2
Fore
SplineSet
1297 946 m 1,0,1
 1281 901 1281 901 1249 846.5 c 128,-1,2
 1217 792 1217 792 1170 745 c 0,3,4
 1120 695 1120 695 1065 665 c 128,-1,5
 1010 635 1010 635 936 635 c 256,6,7
 862 635 862 635 802 656 c 128,-1,8
 742 677 742 677 689 704 c 0,9,10
 646 726 646 726 589 750 c 128,-1,11
 532 774 532 774 487 774 c 0,12,13
 417 774 417 774 372.5 732 c 128,-1,14
 328 690 328 690 286 599 c 1,15,-1
 187 643 l 1,16,17
 203 688 203 688 235.5 741.5 c 128,-1,18
 268 795 268 795 314 841 c 0,19,20
 358 885 358 885 419 917 c 128,-1,21
 480 949 480 949 547 949 c 0,22,23
 625 949 625 949 685.5 926.5 c 128,-1,24
 746 904 746 904 796 879 c 0,25,26
 850 852 850 852 894.5 831 c 128,-1,27
 939 810 939 810 997 810 c 0,28,29
 1074 810 1074 810 1116 859 c 128,-1,30
 1158 908 1158 908 1198 990 c 1,31,-1
 1297 946 l 1,0,1
1297 526 m 1,32,33
 1281 481 1281 481 1249 426.5 c 128,-1,34
 1217 372 1217 372 1170 325 c 0,35,36
 1120 275 1120 275 1065 245 c 128,-1,37
 1010 215 1010 215 936 215 c 256,38,39
 862 215 862 215 802 236 c 128,-1,40
 742 257 742 257 689 284 c 0,41,42
 646 306 646 306 589 330 c 128,-1,43
 532 354 532 354 487 354 c 0,44,45
 417 354 417 354 372.5 312 c 128,-1,46
 328 270 328 270 286 179 c 1,47,-1
 187 223 l 1,48,49
 203 268 203 268 235.5 321.5 c 128,-1,50
 268 375 268 375 314 421 c 0,51,52
 358 465 358 465 419 497 c 128,-1,53
 480 529 480 529 547 529 c 0,54,55
 625 529 625 529 685.5 506.5 c 128,-1,56
 746 484 746 484 796 459 c 0,57,58
 850 432 850 432 894.5 411 c 128,-1,59
 939 390 939 390 997 390 c 0,60,61
 1074 390 1074 390 1116 439 c 128,-1,62
 1158 488 1158 488 1198 570 c 1,63,-1
 1297 526 l 1,32,33
EndSplineSet
EndChar

StartChar: increment
Encoding: 8710 8710 168
Width: 1523
Flags: W
LayerCount: 2
Fore
SplineSet
1380 0 m 1,0,-1
 -105 0 l 1,1,-1
 -92 57 l 1,2,-1
 891 1439 l 1,3,-1
 1084 1439 l 1,4,-1
 1393 57 l 1,5,-1
 1380 0 l 1,0,-1
1002 194 m 1,6,-1
 795 1122 l 1,7,-1
 142 194 l 1,8,-1
 1002 194 l 1,6,-1
EndSplineSet
EndChar

StartChar: guillemotleft
Encoding: 171 171 169
Width: 1250
Flags: W
LayerCount: 2
Fore
SplineSet
619 139 m 1,0,-1
 558 96 l 1,1,2
 437 197 437 197 343 275 c 128,-1,3
 249 353 249 353 199 401 c 0,4,5
 177 422 177 422 165.5 447 c 128,-1,6
 154 472 154 472 154 501 c 0,7,8
 154 563 154 563 180 606.5 c 128,-1,9
 206 650 206 650 265 690 c 0,10,11
 357 751 357 751 454.5 814 c 128,-1,12
 552 877 552 877 746 995 c 1,13,-1
 787 952 l 1,14,-1
 396 533 l 1,15,-1
 619 139 l 1,0,-1
1058 139 m 1,16,-1
 997 96 l 1,17,18
 876 197 876 197 782 275 c 128,-1,19
 688 353 688 353 638 401 c 0,20,21
 616 422 616 422 604.5 447 c 128,-1,22
 593 472 593 472 593 501 c 0,23,24
 593 563 593 563 619 606.5 c 128,-1,25
 645 650 645 650 704 690 c 0,26,27
 796 751 796 751 893.5 814 c 128,-1,28
 991 877 991 877 1185 995 c 1,29,-1
 1226 952 l 1,30,-1
 835 533 l 1,31,-1
 1058 139 l 1,16,-1
EndSplineSet
EndChar

StartChar: guillemotright
Encoding: 187 187 170
Width: 1250
Flags: W
LayerCount: 2
Fore
SplineSet
1119 590 m 0,0,1
 1119 532 1119 532 1091.5 485 c 128,-1,2
 1064 438 1064 438 1008 401 c 0,3,4
 940 357 940 357 803.5 268.5 c 128,-1,5
 667 180 667 180 527 96 c 1,6,-1
 486 139 l 1,7,-1
 877 558 l 1,8,-1
 654 952 l 1,9,-1
 715 995 l 1,10,11
 835 895 835 895 930 816 c 128,-1,12
 1025 737 1025 737 1074 690 c 0,13,14
 1096 669 1096 669 1107.5 644 c 128,-1,15
 1119 619 1119 619 1119 590 c 0,0,1
680 590 m 0,16,17
 680 532 680 532 652.5 485 c 128,-1,18
 625 438 625 438 569 401 c 0,19,20
 501 357 501 357 364.5 268.5 c 128,-1,21
 228 180 228 180 88 96 c 1,22,-1
 47 139 l 1,23,-1
 438 558 l 1,24,-1
 215 952 l 1,25,-1
 276 995 l 1,26,27
 396 895 396 895 491 816 c 128,-1,28
 586 737 586 737 635 690 c 0,29,30
 657 669 657 669 668.5 644 c 128,-1,31
 680 619 680 619 680 590 c 0,16,17
EndSplineSet
EndChar

StartChar: ellipsis
Encoding: 8230 8230 171
Width: 1929
Flags: W
LayerCount: 2
Fore
SplineSet
1784 158 m 256,0,1
 1784 81 1784 81 1727.5 26 c 128,-1,2
 1671 -29 1671 -29 1593 -29 c 0,3,4
 1514 -29 1514 -29 1457.5 26 c 128,-1,5
 1401 81 1401 81 1401 158 c 256,6,7
 1401 235 1401 235 1457.5 290.5 c 128,-1,8
 1514 346 1514 346 1593 346 c 0,9,10
 1671 346 1671 346 1727.5 290.5 c 128,-1,11
 1784 235 1784 235 1784 158 c 256,0,1
1141 158 m 256,12,13
 1141 81 1141 81 1084.5 26 c 128,-1,14
 1028 -29 1028 -29 950 -29 c 0,15,16
 871 -29 871 -29 814.5 26 c 128,-1,17
 758 81 758 81 758 158 c 256,18,19
 758 235 758 235 814.5 290.5 c 128,-1,20
 871 346 871 346 950 346 c 0,21,22
 1028 346 1028 346 1084.5 290.5 c 128,-1,23
 1141 235 1141 235 1141 158 c 256,12,13
498 158 m 256,24,25
 498 81 498 81 441.5 26 c 128,-1,26
 385 -29 385 -29 307 -29 c 0,27,28
 228 -29 228 -29 171.5 26 c 128,-1,29
 115 81 115 81 115 158 c 256,30,31
 115 235 115 235 171.5 290.5 c 128,-1,32
 228 346 228 346 307 346 c 0,33,34
 385 346 385 346 441.5 290.5 c 128,-1,35
 498 235 498 235 498 158 c 256,24,25
EndSplineSet
EndChar

StartChar: OE
Encoding: 338 338 175
Width: 2264
Flags: W
LayerCount: 2
Fore
SplineSet
2308 1419 m 1,0,-1
 2224 1057 l 1,1,-1
 2148 1057 l 1,2,3
 2134 1152 2134 1152 2082 1231 c 128,-1,4
 2030 1310 2030 1310 1969 1324 c 0,5,6
 1941 1331 1941 1331 1887.5 1332.5 c 128,-1,7
 1834 1334 1834 1334 1799 1334 c 2,8,-1
 1613 1334 l 1,9,-1
 1484 779 l 1,10,-1
 1610 779 l 2,11,12
 1670 779 1670 779 1718 793.5 c 128,-1,13
 1766 808 1766 808 1807 842 c 0,14,15
 1835 865 1835 865 1873 924.5 c 128,-1,16
 1911 984 1911 984 1927 1026 c 1,17,-1
 2003 1026 l 1,18,-1
 1866 434 l 1,19,-1
 1790 434 l 1,20,21
 1794 482 1794 482 1784 543 c 128,-1,22
 1774 604 1774 604 1758 628 c 1,23,24
 1730 666 1730 666 1689.5 679.5 c 128,-1,25
 1649 693 1649 693 1591 693 c 2,26,-1
 1465 693 l 1,27,-1
 1369 276 l 2,28,29
 1361 243 1361 243 1357 216.5 c 128,-1,30
 1353 190 1353 190 1353 173 c 0,31,32
 1353 118 1353 118 1396 102 c 128,-1,33
 1439 86 1439 86 1547 86 c 0,34,35
 1675 86 1675 86 1746 100.5 c 128,-1,36
 1817 115 1817 115 1853 142 c 1,37,38
 1914 193 1914 193 1997 293.5 c 128,-1,39
 2080 394 2080 394 2109 442 c 1,40,-1
 2182 442 l 1,41,-1
 2053 0 l 1,42,-1
 755 0 l 2,43,44
 651 0 651 0 533 26 c 128,-1,45
 415 52 415 52 316 115 c 0,46,47
 208 183 208 183 147.5 290.5 c 128,-1,48
 87 398 87 398 87 543 c 0,49,50
 87 747 87 747 164.5 913.5 c 128,-1,51
 242 1080 242 1080 393 1200 c 0,52,53
 524 1304 524 1304 706 1361.5 c 128,-1,54
 888 1419 888 1419 1083 1419 c 2,55,-1
 2308 1419 l 1,0,-1
1255 1330 m 1,56,57
 1221 1332 1221 1332 1164 1332.5 c 128,-1,58
 1107 1333 1107 1333 1074 1333 c 0,59,60
 927 1333 927 1333 814 1262.5 c 128,-1,61
 701 1192 701 1192 621 1060 c 1,62,63
 550 945 550 945 514.5 791 c 128,-1,64
 479 637 479 637 479 499 c 0,65,66
 479 303 479 303 572.5 194.5 c 128,-1,67
 666 86 666 86 836 86 c 0,68,69
 859 86 859 86 897 86.5 c 128,-1,70
 935 87 935 87 969 89 c 1,71,-1
 1255 1330 l 1,56,57
EndSplineSet
EndChar

StartChar: oe
Encoding: 339 339 176
Width: 1910
Flags: W
LayerCount: 2
Fore
SplineSet
1866 787 m 0,0,1
 1866 678 1866 678 1785 599.5 c 128,-1,2
 1704 521 1704 521 1565 483 c 0,3,4
 1455 453 1455 453 1377.5 437.5 c 128,-1,5
 1300 422 1300 422 1188 410 c 1,6,7
 1190 366 1190 366 1200 310 c 128,-1,8
 1210 254 1210 254 1230 217 c 0,9,10
 1254 172 1254 172 1298 145.5 c 128,-1,11
 1342 119 1342 119 1410 119 c 0,12,13
 1528 119 1528 119 1610.5 164.5 c 128,-1,14
 1693 210 1693 210 1768 309 c 1,15,-1
 1841 248 l 1,16,17
 1751 120 1751 120 1610.5 43.5 c 128,-1,18
 1470 -33 1470 -33 1315 -33 c 0,19,20
 1197 -33 1197 -33 1107 4 c 128,-1,21
 1017 41 1017 41 959 97 c 1,22,23
 871 38 871 38 767.5 3 c 128,-1,24
 664 -32 664 -32 542 -32 c 0,25,26
 329 -32 329 -32 198 81.5 c 128,-1,27
 67 195 67 195 67 391 c 0,28,29
 67 524 67 524 116.5 638 c 128,-1,30
 166 752 166 752 255 837 c 0,31,32
 343 920 343 920 471 968.5 c 128,-1,33
 599 1017 599 1017 748 1017 c 0,34,35
 869 1017 869 1017 959.5 981 c 128,-1,36
 1050 945 1050 945 1110 891 c 1,37,38
 1186 943 1186 943 1287 979 c 128,-1,39
 1388 1015 1388 1015 1500 1015 c 0,40,41
 1679 1015 1679 1015 1772.5 958 c 128,-1,42
 1866 901 1866 901 1866 787 c 0,0,1
1541 759 m 0,43,44
 1541 844 1541 844 1510 889.5 c 128,-1,45
 1479 935 1479 935 1424 935 c 0,46,47
 1350 935 1350 935 1282.5 817.5 c 128,-1,48
 1215 700 1215 700 1191 492 c 1,49,50
 1250 499 1250 499 1308 510 c 128,-1,51
 1366 521 1366 521 1400 536 c 0,52,53
 1475 569 1475 569 1508 621 c 128,-1,54
 1541 673 1541 673 1541 759 c 0,43,44
883 712 m 0,55,56
 883 829 883 829 843.5 884 c 128,-1,57
 804 939 804 939 729 939 c 0,58,59
 656 939 656 939 593 882.5 c 128,-1,60
 530 826 530 826 484 697 c 0,61,62
 449 598 449 598 434 482.5 c 128,-1,63
 419 367 419 367 419 276 c 0,64,65
 419 155 419 155 458.5 100.5 c 128,-1,66
 498 46 498 46 575 46 c 0,67,68
 657 46 657 46 717 113 c 128,-1,69
 777 180 777 180 812 278 c 0,70,71
 847 374 847 374 865 490.5 c 128,-1,72
 883 607 883 607 883 712 c 0,55,56
EndSplineSet
EndChar

StartChar: endash
Encoding: 8211 8211 177
Width: 1440
Flags: W
LayerCount: 2
Fore
SplineSet
1329 493 m 1,0,-1
 98 493 l 1,1,-1
 135 654 l 1,2,-1
 1366 654 l 1,3,-1
 1329 493 l 1,0,-1
EndSplineSet
EndChar

StartChar: emdash
Encoding: 8212 8212 178
Width: 1900
Flags: W
LayerCount: 2
Fore
SplineSet
1789 493 m 1,0,-1
 98 493 l 1,1,-1
 135 654 l 1,2,-1
 1826 654 l 1,3,-1
 1789 493 l 1,0,-1
EndSplineSet
EndChar

StartChar: quotedblleft
Encoding: 8220 8220 179
Width: 1063
Flags: W
LayerCount: 2
Fore
SplineSet
683 1455 m 1,0,1
 637 1435 637 1435 578.5 1400.5 c 128,-1,2
 520 1366 520 1366 485 1334 c 0,3,4
 445 1298 445 1298 412.5 1253 c 128,-1,5
 380 1208 380 1208 362 1150 c 1,6,-1
 418 1150 l 2,7,8
 505 1150 505 1150 548 1117 c 128,-1,9
 591 1084 591 1084 591 1025 c 0,10,11
 591 949 591 949 527 886.5 c 128,-1,12
 463 824 463 824 375 824 c 0,13,14
 282 824 282 824 240.5 874.5 c 128,-1,15
 199 925 199 925 199 1005 c 0,16,17
 199 1162 199 1162 331.5 1306 c 128,-1,18
 464 1450 464 1450 655 1526 c 1,19,-1
 683 1455 l 1,0,1
1176 1455 m 1,20,21
 1130 1435 1130 1435 1071.5 1400.5 c 128,-1,22
 1013 1366 1013 1366 978 1334 c 0,23,24
 938 1298 938 1298 905.5 1253 c 128,-1,25
 873 1208 873 1208 855 1150 c 1,26,-1
 911 1150 l 2,27,28
 998 1150 998 1150 1041 1117 c 128,-1,29
 1084 1084 1084 1084 1084 1025 c 0,30,31
 1084 949 1084 949 1020 886.5 c 128,-1,32
 956 824 956 824 868 824 c 0,33,34
 775 824 775 824 733.5 874.5 c 128,-1,35
 692 925 692 925 692 1005 c 0,36,37
 692 1162 692 1162 824.5 1306 c 128,-1,38
 957 1450 957 1450 1148 1526 c 1,39,-1
 1176 1455 l 1,20,21
EndSplineSet
EndChar

StartChar: quotedblright
Encoding: 8221 8221 180
Width: 1063
Flags: W
LayerCount: 2
Fore
SplineSet
686 1349 m 0,0,1
 686 1192 686 1192 553.5 1048 c 128,-1,2
 421 904 421 904 230 828 c 1,3,-1
 202 899 l 1,4,5
 248 919 248 919 306.5 953.5 c 128,-1,6
 365 988 365 988 400 1020 c 0,7,8
 440 1056 440 1056 472.5 1101 c 128,-1,9
 505 1146 505 1146 523 1204 c 1,10,-1
 467 1204 l 2,11,12
 380 1204 380 1204 337 1237 c 128,-1,13
 294 1270 294 1270 294 1329 c 0,14,15
 294 1405 294 1405 358 1467.5 c 128,-1,16
 422 1530 422 1530 510 1530 c 0,17,18
 603 1530 603 1530 644.5 1479.5 c 128,-1,19
 686 1429 686 1429 686 1349 c 0,0,1
1179 1349 m 0,20,21
 1179 1192 1179 1192 1046.5 1048 c 128,-1,22
 914 904 914 904 723 828 c 1,23,-1
 695 899 l 1,24,25
 741 919 741 919 799.5 953.5 c 128,-1,26
 858 988 858 988 893 1020 c 0,27,28
 933 1056 933 1056 965.5 1101 c 128,-1,29
 998 1146 998 1146 1016 1204 c 1,30,-1
 960 1204 l 2,31,32
 873 1204 873 1204 830 1237 c 128,-1,33
 787 1270 787 1270 787 1329 c 0,34,35
 787 1405 787 1405 851 1467.5 c 128,-1,36
 915 1530 915 1530 1003 1530 c 0,37,38
 1096 1530 1096 1530 1137.5 1479.5 c 128,-1,39
 1179 1429 1179 1429 1179 1349 c 0,20,21
EndSplineSet
EndChar

StartChar: quoteleft
Encoding: 8216 8216 181
Width: 550
Flags: W
LayerCount: 2
Fore
SplineSet
673 1455 m 1,0,1
 627 1435 627 1435 568.5 1400.5 c 128,-1,2
 510 1366 510 1366 475 1334 c 0,3,4
 435 1298 435 1298 402.5 1253 c 128,-1,5
 370 1208 370 1208 352 1150 c 1,6,-1
 408 1150 l 2,7,8
 495 1150 495 1150 538 1117 c 128,-1,9
 581 1084 581 1084 581 1025 c 0,10,11
 581 949 581 949 517 886.5 c 128,-1,12
 453 824 453 824 365 824 c 0,13,14
 272 824 272 824 230.5 874.5 c 128,-1,15
 189 925 189 925 189 1005 c 0,16,17
 189 1162 189 1162 321.5 1306 c 128,-1,18
 454 1450 454 1450 645 1526 c 1,19,-1
 673 1455 l 1,0,1
EndSplineSet
EndChar

StartChar: quoteright
Encoding: 8217 8217 182
Width: 550
Flags: W
LayerCount: 2
Fore
SplineSet
675 1349 m 0,0,1
 675 1192 675 1192 542.5 1048 c 128,-1,2
 410 904 410 904 219 828 c 1,3,-1
 191 899 l 1,4,5
 237 919 237 919 295.5 953.5 c 128,-1,6
 354 988 354 988 389 1020 c 0,7,8
 429 1056 429 1056 461.5 1101 c 128,-1,9
 494 1146 494 1146 512 1204 c 1,10,-1
 456 1204 l 2,11,12
 369 1204 369 1204 326 1237 c 128,-1,13
 283 1270 283 1270 283 1329 c 0,14,15
 283 1405 283 1405 347 1467.5 c 128,-1,16
 411 1530 411 1530 499 1530 c 0,17,18
 592 1530 592 1530 633.5 1479.5 c 128,-1,19
 675 1429 675 1429 675 1349 c 0,0,1
EndSplineSet
EndChar

StartChar: divide
Encoding: 247 247 183
Width: 1440
Flags: W
LayerCount: 2
Fore
SplineSet
904 982 m 256,0,1
 904 913 904 913 856 864.5 c 128,-1,2
 808 816 808 816 742 816 c 0,3,4
 675 816 675 816 627 864.5 c 128,-1,5
 579 913 579 913 579 982 c 256,6,7
 579 1051 579 1051 627 1100 c 128,-1,8
 675 1149 675 1149 742 1149 c 0,9,10
 808 1149 808 1149 856 1100 c 128,-1,11
 904 1051 904 1051 904 982 c 256,0,1
1297 493 m 1,12,-1
 186 493 l 1,13,-1
 186 656 l 1,14,-1
 1297 656 l 1,15,-1
 1297 493 l 1,12,-1
904 166 m 256,16,17
 904 97 904 97 856 48.5 c 128,-1,18
 808 0 808 0 742 0 c 0,19,20
 675 0 675 0 627 48.5 c 128,-1,21
 579 97 579 97 579 166 c 256,22,23
 579 235 579 235 627 284 c 128,-1,24
 675 333 675 333 742 333 c 0,25,26
 808 333 808 333 856 284 c 128,-1,27
 904 235 904 235 904 166 c 256,16,17
EndSplineSet
EndChar

StartChar: lozenge
Encoding: 9674 9674 184
Width: 1470
Flags: W
LayerCount: 2
Fore
SplineSet
1374 654 m 1,0,-1
 757 -40 l 1,1,-1
 140 654 l 1,2,-1
 757 1349 l 1,3,-1
 1374 654 l 1,0,-1
1157 654 m 1,4,-1
 757 1107 l 1,5,-1
 357 654 l 1,6,-1
 757 202 l 1,7,-1
 1157 654 l 1,4,-1
EndSplineSet
EndChar

StartChar: fraction
Encoding: 8260 8260 187
AltUni2: 002215.ffffffff.0
Width: 194
Flags: W
LayerCount: 2
Fore
SplineSet
750 1429 m 1,0,-1
 -340 0 l 1,1,-1
 -496 0 l 1,2,-1
 592 1429 l 1,3,-1
 750 1429 l 1,0,-1
EndSplineSet
EndChar

StartChar: Euro
Encoding: 8364 8364 188
Width: 1465
Flags: W
LayerCount: 2
Fore
SplineSet
1571 1419 m 1,0,-1
 1460 901 l 1,1,-1
 1372 901 l 1,2,3
 1352 1128 1352 1128 1261.5 1246.5 c 128,-1,4
 1171 1365 1171 1365 1013 1365 c 0,5,6
 951 1365 951 1365 871.5 1318 c 128,-1,7
 792 1271 792 1271 730 1190 c 0,8,9
 690 1137 690 1137 654 1064 c 128,-1,10
 618 991 618 991 592 906 c 1,11,-1
 961 906 l 1,12,-1
 890 790 l 1,13,-1
 559 790 l 1,14,15
 550 751 550 751 541.5 711.5 c 128,-1,16
 533 672 533 672 528 636 c 1,17,-1
 797 636 l 1,18,-1
 726 520 l 1,19,-1
 518 520 l 1,20,-1
 518 509 l 2,21,22
 518 295 518 295 601 196 c 128,-1,23
 684 97 684 97 835 97 c 0,24,25
 972 97 972 97 1097 177 c 128,-1,26
 1222 257 1222 257 1335 408 c 1,27,-1
 1412 356 l 1,28,29
 1363 280 1363 280 1295 206.5 c 128,-1,30
 1227 133 1227 133 1140 79 c 0,31,32
 1049 22 1049 22 952.5 -8 c 128,-1,33
 856 -38 856 -38 721 -38 c 0,34,35
 450 -38 450 -38 291.5 108.5 c 128,-1,36
 133 255 133 255 127 520 c 1,37,-1
 -5 520 l 1,38,-1
 66 636 l 1,39,-1
 135 636 l 1,40,41
 141 674 141 674 151 712.5 c 128,-1,42
 161 751 161 751 174 790 c 1,43,-1
 57 790 l 1,44,-1
 128 906 l 1,45,-1
 221 906 l 1,46,47
 261 994 261 994 309.5 1064.5 c 128,-1,48
 358 1135 358 1135 414 1190 c 0,49,50
 539 1314 539 1314 697.5 1385.5 c 128,-1,51
 856 1457 856 1457 1016 1457 c 0,52,53
 1132 1457 1132 1457 1241 1429 c 128,-1,54
 1350 1401 1350 1401 1409 1364 c 1,55,-1
 1484 1419 l 1,56,-1
 1571 1419 l 1,0,-1
EndSplineSet
EndChar

StartChar: guilsinglleft
Encoding: 8249 8249 189
Width: 811
Flags: W
LayerCount: 2
Fore
SplineSet
627 139 m 1,0,-1
 566 96 l 1,1,2
 465 178 465 178 356.5 265 c 128,-1,3
 248 352 248 352 197 401 c 0,4,5
 175 422 175 422 163.5 447 c 128,-1,6
 152 472 152 472 152 501 c 0,7,8
 152 563 152 563 178 606.5 c 128,-1,9
 204 650 204 650 263 690 c 0,10,11
 337 739 337 739 469 821 c 128,-1,12
 601 903 601 903 754 995 c 1,13,-1
 795 952 l 1,14,-1
 414 533 l 1,15,-1
 627 139 l 1,0,-1
EndSplineSet
EndChar

StartChar: guilsinglright
Encoding: 8250 8250 190
Width: 811
Flags: W
LayerCount: 2
Fore
SplineSet
682 590 m 0,0,1
 682 532 682 532 654.5 485 c 128,-1,2
 627 438 627 438 571 401 c 0,3,4
 503 357 503 357 361.5 268 c 128,-1,5
 220 179 220 179 80 96 c 1,6,-1
 39 139 l 1,7,-1
 420 558 l 1,8,-1
 207 952 l 1,9,-1
 268 995 l 1,10,11
 368 914 368 914 477.5 826 c 128,-1,12
 587 738 587 738 637 690 c 0,13,14
 659 669 659 669 670.5 644 c 128,-1,15
 682 619 682 619 682 590 c 0,0,1
EndSplineSet
EndChar

StartChar: fi
Encoding: 61441 61441 191
AltUni2: 00fb01.ffffffff.0
Width: 1437
Flags: W
LayerCount: 2
Fore
SplineSet
620 868 m 1,0,1
 570 621 570 621 533.5 439.5 c 128,-1,2
 497 258 497 258 446 60 c 0,3,4
 421 -37 421 -37 363.5 -130.5 c 128,-1,5
 306 -224 306 -224 228 -292 c 0,6,7
 146 -364 146 -364 50.5 -404 c 128,-1,8
 -45 -444 -45 -444 -146 -444 c 0,9,10
 -237 -444 -237 -444 -293.5 -426 c 128,-1,11
 -350 -408 -350 -408 -382 -380 c 0,12,13
 -413 -352 -413 -352 -424 -318 c 128,-1,14
 -435 -284 -435 -284 -435 -251 c 0,15,16
 -435 -193 -435 -193 -393.5 -148.5 c 128,-1,17
 -352 -104 -352 -104 -282 -104 c 0,18,19
 -228 -104 -228 -104 -188.5 -132.5 c 128,-1,20
 -149 -161 -149 -161 -121 -201 c 0,21,22
 -93 -240 -93 -240 -71.5 -288 c 128,-1,23
 -50 -336 -50 -336 -38 -363 c 1,24,25
 4 -317 4 -317 40.5 -224.5 c 128,-1,26
 77 -132 77 -132 110 22 c 2,27,-1
 289 868 l 1,28,-1
 95 868 l 1,29,-1
 119 971 l 1,30,-1
 311 971 l 1,31,-1
 321 1005 l 1,32,33
 351 1135 351 1135 416 1235.5 c 128,-1,34
 481 1336 481 1336 595 1417 c 1,35,36
 667 1471 667 1471 771.5 1509.5 c 128,-1,37
 876 1548 876 1548 1016 1548 c 0,38,39
 1125 1548 1125 1548 1190 1529 c 128,-1,40
 1255 1510 1255 1510 1292 1483 c 0,41,42
 1331 1454 1331 1454 1347 1416.5 c 128,-1,43
 1363 1379 1363 1379 1363 1340 c 0,44,45
 1363 1266 1363 1266 1314 1218.5 c 128,-1,46
 1265 1171 1265 1171 1182 1171 c 0,47,48
 1090 1171 1090 1171 1037 1237.5 c 128,-1,49
 984 1304 984 1304 977 1457 c 1,50,51
 934 1452 934 1452 891.5 1435 c 128,-1,52
 849 1418 849 1418 802 1372 c 0,53,54
 759 1330 759 1330 721.5 1253.5 c 128,-1,55
 684 1177 684 1177 659 1061 c 2,56,-1
 640 971 l 1,57,-1
 1071 971 l 1,58,-1
 1326 1000 l 1,59,-1
 1337 985 l 1,60,-1
 1194 362 l 2,61,62
 1187 333 1187 333 1177.5 285.5 c 128,-1,63
 1168 238 1168 238 1168 214 c 0,64,65
 1168 156 1168 156 1194 135 c 128,-1,66
 1220 114 1220 114 1284 114 c 0,67,68
 1314 114 1314 114 1352 124.5 c 128,-1,69
 1390 135 1390 135 1407 143 c 1,70,-1
 1385 53 l 1,71,72
 1286 14 1286 14 1227 -6.5 c 128,-1,73
 1168 -27 1168 -27 1090 -27 c 0,74,75
 970 -27 970 -27 903.5 31.5 c 128,-1,76
 837 90 837 90 837 180 c 0,77,78
 837 214 837 214 843 253.5 c 128,-1,79
 849 293 849 293 858 334 c 2,80,-1
 956 760 l 2,81,82
 957 766 957 766 959 777.5 c 128,-1,83
 961 789 961 789 961 803 c 0,84,85
 961 823 961 823 953 841 c 128,-1,86
 945 859 945 859 926 868 c 1,87,-1
 620 868 l 1,0,1
EndSplineSet
EndChar

StartChar: fl
Encoding: 61442 61442 192
AltUni2: 00fb02.ffffffff.0
Width: 1475
Flags: W
LayerCount: 2
Fore
SplineSet
620 868 m 1,0,1
 570 621 570 621 533.5 439.5 c 128,-1,2
 497 258 497 258 446 60 c 0,3,4
 421 -37 421 -37 363.5 -130.5 c 128,-1,5
 306 -224 306 -224 228 -292 c 0,6,7
 146 -364 146 -364 50.5 -404 c 128,-1,8
 -45 -444 -45 -444 -146 -444 c 0,9,10
 -237 -444 -237 -444 -293.5 -426 c 128,-1,11
 -350 -408 -350 -408 -382 -380 c 0,12,13
 -413 -352 -413 -352 -424 -318 c 128,-1,14
 -435 -284 -435 -284 -435 -251 c 0,15,16
 -435 -193 -435 -193 -393.5 -148.5 c 128,-1,17
 -352 -104 -352 -104 -282 -104 c 0,18,19
 -228 -104 -228 -104 -188.5 -132.5 c 128,-1,20
 -149 -161 -149 -161 -121 -201 c 0,21,22
 -93 -240 -93 -240 -71.5 -288 c 128,-1,23
 -50 -336 -50 -336 -38 -363 c 1,24,25
 4 -317 4 -317 40.5 -224.5 c 128,-1,26
 77 -132 77 -132 110 22 c 2,27,-1
 289 868 l 1,28,-1
 95 868 l 1,29,-1
 119 971 l 1,30,-1
 311 971 l 1,31,-1
 319 1004 l 2,32,33
 347 1123 347 1123 411 1229 c 128,-1,34
 475 1335 475 1335 592 1417 c 1,35,36
 664 1469 664 1469 773 1508.5 c 128,-1,37
 882 1548 882 1548 1023 1548 c 0,38,39
 1121 1548 1121 1548 1205 1532 c 128,-1,40
 1289 1516 1289 1516 1327 1505 c 1,41,-1
 1484 1548 l 1,42,-1
 1495 1532 l 1,43,-1
 1226 362 l 2,44,45
 1219 333 1219 333 1209.5 285 c 128,-1,46
 1200 237 1200 237 1200 214 c 0,47,48
 1200 156 1200 156 1229 135 c 128,-1,49
 1258 114 1258 114 1325 114 c 0,50,51
 1350 114 1350 114 1393 124.5 c 128,-1,52
 1436 135 1436 135 1454 143 c 1,53,-1
 1432 53 l 1,54,55
 1333 14 1333 14 1270 -6.5 c 128,-1,56
 1207 -27 1207 -27 1127 -27 c 0,57,58
 1007 -27 1007 -27 938.5 31.5 c 128,-1,59
 870 90 870 90 870 180 c 0,60,61
 870 217 870 217 876.5 257 c 128,-1,62
 883 297 883 297 891 334 c 2,63,-1
 1105 1263 l 2,64,65
 1109 1280 1109 1280 1110.5 1301 c 128,-1,66
 1112 1322 1112 1322 1112 1330 c 0,67,68
 1112 1390 1112 1390 1075 1423.5 c 128,-1,69
 1038 1457 1038 1457 999 1457 c 0,70,71
 947 1457 947 1457 904 1442.5 c 128,-1,72
 861 1428 861 1428 807 1377 c 0,73,74
 761 1333 761 1333 722 1254.5 c 128,-1,75
 683 1176 683 1176 657 1056 c 2,76,-1
 639 971 l 1,77,-1
 892 971 l 1,78,-1
 868 868 l 1,79,-1
 620 868 l 1,0,1
EndSplineSet
EndChar

StartChar: daggerdbl
Encoding: 8225 8225 193
Width: 987
Flags: W
LayerCount: 2
Fore
SplineSet
880.5 513.5 m 128,-1,1
 846 489 846 489 801 489 c 0,2,3
 778 489 778 489 703 512 c 128,-1,4
 628 535 628 535 548 545 c 1,5,6
 536 443 536 443 538 367 c 128,-1,7
 540 291 540 291 534 264 c 0,8,9
 524 223 524 223 499.5 198.5 c 128,-1,10
 475 174 475 174 431 174 c 0,11,12
 394 174 394 174 370.5 191.5 c 128,-1,13
 347 209 347 209 347 238 c 0,14,15
 347 261 347 261 355 280 c 128,-1,16
 363 299 363 299 380 336 c 0,17,18
 395 368 395 368 423.5 430 c 128,-1,19
 452 492 452 492 470 545 c 1,20,21
 384 536 384 536 297.5 512.5 c 128,-1,22
 211 489 211 489 189 489 c 0,23,24
 156 489 156 489 136.5 508.5 c 128,-1,25
 117 528 117 528 117 560 c 0,26,27
 117 611 117 611 151 637 c 128,-1,28
 185 663 185 663 230 663 c 0,29,30
 254 663 254 663 330.5 641 c 128,-1,31
 407 619 407 619 485 611 c 1,32,33
 491 658 491 658 488.5 703 c 128,-1,34
 486 748 486 748 492 795 c 1,35,-1
 500 834 l 1,36,37
 514 882 514 882 537.5 928 c 128,-1,38
 561 974 561 974 575 1018 c 1,39,40
 489 1009 489 1009 405 987.5 c 128,-1,41
 321 966 321 966 296 966 c 0,42,43
 263 966 263 966 243 987.5 c 128,-1,44
 223 1009 223 1009 223 1039 c 0,45,46
 223 1091 223 1091 257.5 1115.5 c 128,-1,47
 292 1140 292 1140 337 1140 c 0,48,49
 357 1140 357 1140 433.5 1117 c 128,-1,50
 510 1094 510 1094 590 1084 c 1,51,52
 601 1186 601 1186 600 1262.5 c 128,-1,53
 599 1339 599 1339 604 1365 c 0,54,55
 612 1403 612 1403 639.5 1429 c 128,-1,56
 667 1455 667 1455 707 1455 c 0,57,58
 744 1455 744 1455 767.5 1437.5 c 128,-1,59
 791 1420 791 1420 791 1391 c 0,60,61
 791 1373 791 1373 784 1352 c 128,-1,62
 777 1331 777 1331 758 1293 c 256,63,64
 739 1255 739 1255 714.5 1200.5 c 128,-1,65
 690 1146 690 1146 668 1084 c 1,66,67
 776 1097 776 1097 848.5 1118.5 c 128,-1,68
 921 1140 921 1140 949 1140 c 0,69,70
 982 1140 982 1140 1001.5 1120.5 c 128,-1,71
 1021 1101 1021 1101 1021 1069 c 0,72,73
 1021 1018 1021 1018 987 992 c 128,-1,74
 953 966 953 966 908 966 c 0,75,76
 881 966 881 966 817.5 985.5 c 128,-1,77
 754 1005 754 1005 653 1018 c 1,78,79
 646 970 646 970 648.5 926 c 128,-1,80
 651 882 651 882 644 834 c 1,81,-1
 636 795 l 1,82,83
 621 748 621 748 599.5 701 c 128,-1,84
 578 654 578 654 563 611 c 1,85,86
 669 624 669 624 742.5 643.5 c 128,-1,87
 816 663 816 663 842 663 c 0,88,89
 875 663 875 663 895 641.5 c 128,-1,90
 915 620 915 620 915 590 c 0,91,0
 915 538 915 538 880.5 513.5 c 128,-1,1
EndSplineSet
EndChar

StartChar: perthousand
Encoding: 8240 8240 197
Width: 2697
Flags: W
LayerCount: 2
Fore
SplineSet
985 1145 m 0,0,1
 985 965 985 965 851 838.5 c 128,-1,2
 717 712 717 712 527 712 c 0,3,4
 378 712 378 712 283 799 c 128,-1,5
 188 886 188 886 188 1027 c 0,6,7
 188 1209 188 1209 323.5 1334.5 c 128,-1,8
 459 1460 459 1460 646 1460 c 0,9,10
 796 1460 796 1460 890.5 1373 c 128,-1,11
 985 1286 985 1286 985 1145 c 0,0,1
730 1219 m 0,12,13
 730 1301 730 1301 708 1345 c 128,-1,14
 686 1389 686 1389 633 1389 c 0,15,16
 549 1389 549 1389 496 1261.5 c 128,-1,17
 443 1134 443 1134 443 947 c 0,18,19
 443 869 443 869 466 826 c 128,-1,20
 489 783 489 783 542 783 c 0,21,22
 623 783 623 783 676.5 907.5 c 128,-1,23
 730 1032 730 1032 730 1219 c 0,12,13
1692 398 m 0,24,25
 1692 218 1692 218 1558 91.5 c 128,-1,26
 1424 -35 1424 -35 1234 -35 c 0,27,28
 1085 -35 1085 -35 990 52 c 128,-1,29
 895 139 895 139 895 280 c 0,30,31
 895 462 895 462 1030.5 587.5 c 128,-1,32
 1166 713 1166 713 1353 713 c 0,33,34
 1503 713 1503 713 1597.5 626 c 128,-1,35
 1692 539 1692 539 1692 398 c 0,24,25
1437 472 m 0,36,37
 1437 554 1437 554 1415 598 c 128,-1,38
 1393 642 1393 642 1340 642 c 0,39,40
 1256 642 1256 642 1203 514.5 c 128,-1,41
 1150 387 1150 387 1150 200 c 0,42,43
 1150 122 1150 122 1173 79 c 128,-1,44
 1196 36 1196 36 1249 36 c 0,45,46
 1330 36 1330 36 1383.5 160.5 c 128,-1,47
 1437 285 1437 285 1437 472 c 0,36,37
1745 1428 m 1,48,-1
 292 0 l 1,49,-1
 137 0 l 1,50,-1
 1587 1428 l 1,51,-1
 1745 1428 l 1,48,-1
2592 398 m 0,52,53
 2592 218 2592 218 2458 91.5 c 128,-1,54
 2324 -35 2324 -35 2134 -35 c 0,55,56
 1985 -35 1985 -35 1890 52 c 128,-1,57
 1795 139 1795 139 1795 280 c 0,58,59
 1795 462 1795 462 1930.5 587.5 c 128,-1,60
 2066 713 2066 713 2253 713 c 0,61,62
 2403 713 2403 713 2497.5 626 c 128,-1,63
 2592 539 2592 539 2592 398 c 0,52,53
2337 472 m 0,64,65
 2337 554 2337 554 2315 598 c 128,-1,66
 2293 642 2293 642 2240 642 c 0,67,68
 2156 642 2156 642 2103 514.5 c 128,-1,69
 2050 387 2050 387 2050 200 c 0,70,71
 2050 122 2050 122 2073 79 c 128,-1,72
 2096 36 2096 36 2149 36 c 0,73,74
 2230 36 2230 36 2283.5 160.5 c 128,-1,75
 2337 285 2337 285 2337 472 c 0,64,65
EndSplineSet
EndChar

